<svg xmlns="http://www.w3.org/2000/svg" xmlns:xlink="http://www.w3.org/1999/xlink" width="1626" zoomAndPan="magnify" viewBox="0 0 1219.5 260.999984" height="348" preserveAspectRatio="xMidYMid meet" version="1.0"><defs><g/><clipPath id="1b9d073801"><path d="M 119.082031 29.796875 L 229.914062 29.796875 L 229.914062 140 L 119.082031 140 Z M 119.082031 29.796875 " clip-rule="nonzero"/></clipPath><clipPath id="7dba8a75a4"><path d="M 358.207031 29.796875 L 469 29.796875 L 469 140 L 358.207031 140 Z M 358.207031 29.796875 " clip-rule="nonzero"/></clipPath><clipPath id="6f7558dd7e"><path d="M 0.425781 33 L 1116 33 L 1116 165 L 0.425781 165 Z M 0.425781 33 " clip-rule="nonzero"/></clipPath><clipPath id="2039fb620b"><rect x="0" width="1116" y="0" height="132"/></clipPath><clipPath id="60c6ca4120"><path d="M 2.886719 155.71875 L 1103.3125 155.71875 L 1103.3125 246.417969 L 2.886719 246.417969 Z M 2.886719 155.71875 " clip-rule="nonzero"/></clipPath><clipPath id="1b442c0b0b"><path d="M 10.382812 155.71875 L 1095.511719 155.71875 C 1097.5 155.71875 1099.40625 156.507812 1100.8125 157.914062 C 1102.21875 159.320312 1103.011719 161.226562 1103.011719 163.214844 L 1103.011719 238.917969 C 1103.011719 240.90625 1102.21875 242.816406 1100.8125 244.21875 C 1099.40625 245.625 1097.5 246.417969 1095.511719 246.417969 L 10.382812 246.417969 C 8.394531 246.417969 6.488281 245.625 5.082031 244.21875 C 3.675781 242.816406 2.886719 240.90625 2.886719 238.917969 L 2.886719 163.214844 C 2.886719 161.226562 3.675781 159.320312 5.082031 157.914062 C 6.488281 156.507812 8.394531 155.71875 10.382812 155.71875 Z M 10.382812 155.71875 " clip-rule="nonzero"/></clipPath><clipPath id="ccb82c628f"><path d="M 0.886719 0.71875 L 1101 0.71875 L 1101 91.417969 L 0.886719 91.417969 Z M 0.886719 0.71875 " clip-rule="nonzero"/></clipPath><clipPath id="8d31c2953e"><path d="M 8.382812 0.71875 L 1093.511719 0.71875 C 1095.5 0.71875 1097.40625 1.507812 1098.8125 2.914062 C 1100.21875 4.320312 1101.011719 6.226562 1101.011719 8.214844 L 1101.011719 83.917969 C 1101.011719 85.90625 1100.21875 87.816406 1098.8125 89.21875 C 1097.40625 90.625 1095.5 91.417969 1093.511719 91.417969 L 8.382812 91.417969 C 6.394531 91.417969 4.488281 90.625 3.082031 89.21875 C 1.675781 87.816406 0.886719 85.90625 0.886719 83.917969 L 0.886719 8.214844 C 0.886719 6.226562 1.675781 4.320312 3.082031 2.914062 C 4.488281 1.507812 6.394531 0.71875 8.382812 0.71875 Z M 8.382812 0.71875 " clip-rule="nonzero"/></clipPath><clipPath id="5289697345"><rect x="0" width="1102" y="0" height="92"/></clipPath><clipPath id="f3c6207c0f"><rect x="0" width="78" y="0" height="135"/></clipPath><clipPath id="2d7d8b2d16"><path d="M 1095.195312 0.582031 L 1153.25 0.582031 L 1153.25 58.640625 L 1095.195312 58.640625 Z M 1095.195312 0.582031 " clip-rule="nonzero"/></clipPath><clipPath id="3a67d937c1"><rect x="0" width="1046" y="0" height="45"/></clipPath><clipPath id="b6f451b32a"><rect x="0" width="30" y="0" height="26"/></clipPath><clipPath id="0db93e395e"><rect x="0" width="1154" y="0" height="247"/></clipPath></defs><g transform="matrix(1, 0, 0, 1, 37, 7)"><g clip-path="url(#0db93e395e)"><path fill="#ced7dd" d="M 152.070312 103.109375 L 152.070312 119.605469 C 152.070312 121.628906 153.710938 123.269531 155.738281 123.269531 L 163.066406 123.269531 L 163.066406 103.109375 Z M 152.070312 103.109375 " fill-opacity="1" fill-rule="nonzero"/><path fill="#ced7dd" d="M 196.058594 103.109375 L 196.058594 119.605469 C 196.058594 121.628906 194.417969 123.269531 192.394531 123.269531 L 185.0625 123.269531 L 185.0625 103.109375 Z M 196.058594 103.109375 " fill-opacity="1" fill-rule="nonzero"/><path fill="#b3c1c9" d="M 159.402344 108.277344 C 158.835938 108.496094 158.210938 108.605469 157.570312 108.605469 C 154.527344 108.605469 152.070312 106.152344 152.070312 103.109375 C 152.070312 100.066406 154.527344 97.609375 157.570312 97.609375 C 159.53125 97.609375 161.234375 98.617188 162.207031 100.15625 Z M 159.402344 108.277344 " fill-opacity="1" fill-rule="nonzero"/><path fill="#b3c1c9" d="M 185.921875 100.15625 C 186.894531 98.617188 188.597656 97.609375 190.558594 97.609375 C 193.601562 97.609375 196.058594 100.066406 196.058594 103.109375 C 196.058594 106.152344 193.601562 108.605469 190.558594 108.605469 C 189.917969 108.605469 189.296875 108.496094 188.726562 108.277344 Z M 185.921875 100.15625 " fill-opacity="1" fill-rule="nonzero"/><path fill="#ced7dd" d="M 168.566406 88.445312 L 179.5625 88.445312 L 179.5625 99.441406 L 168.566406 99.441406 Z M 168.566406 88.445312 " fill-opacity="1" fill-rule="nonzero"/><path fill="#e4eaef" d="M 168.566406 97.609375 L 179.5625 97.609375 C 184.621094 97.609375 188.726562 101.714844 188.726562 106.773438 L 188.726562 119.605469 C 188.726562 121.628906 187.085938 123.269531 185.0625 123.269531 L 163.066406 123.269531 C 161.042969 123.269531 159.402344 121.628906 159.402344 119.605469 L 159.402344 106.773438 C 159.402344 101.714844 163.507812 97.609375 168.566406 97.609375 Z M 168.566406 97.609375 " fill-opacity="1" fill-rule="nonzero"/><path fill="#c9042d" d="M 224.082031 75.761719 L 217.574219 74.460938 C 216.457031 69.75 214.605469 65.316406 212.132812 61.320312 L 215.796875 55.804688 C 216.84375 54.246094 216.640625 52.175781 215.320312 50.875 L 207.972656 43.523438 C 206.671875 42.203125 204.597656 42.003906 203.042969 43.046875 L 197.523438 46.710938 C 193.53125 44.238281 189.09375 42.386719 184.382812 41.269531 L 183.082031 34.761719 C 182.714844 32.949219 181.121094 31.628906 179.25 31.628906 L 168.878906 31.628906 C 167.007812 31.628906 165.414062 32.949219 165.046875 34.761719 L 163.746094 41.269531 C 159.035156 42.386719 154.601562 44.238281 150.605469 46.710938 L 145.089844 43.046875 C 143.53125 42.003906 141.457031 42.203125 140.15625 43.523438 L 132.808594 50.875 C 131.488281 52.175781 131.285156 54.246094 132.332031 55.804688 L 135.996094 61.320312 C 133.523438 65.316406 131.671875 69.75 130.554688 74.460938 L 124.046875 75.761719 C 122.234375 76.128906 120.914062 77.722656 120.914062 79.59375 L 120.914062 89.96875 C 120.914062 91.835938 122.234375 93.429688 124.046875 93.796875 L 130.554688 95.097656 C 131.671875 99.808594 133.523438 104.246094 135.996094 108.242188 L 132.332031 113.757812 C 131.285156 115.316406 131.488281 117.386719 132.808594 118.6875 L 140.15625 126.035156 C 141.457031 127.355469 143.53125 127.558594 145.089844 126.511719 L 150.605469 122.847656 C 154.601562 125.324219 159.035156 127.171875 163.746094 128.292969 L 165.046875 134.796875 C 165.414062 136.613281 167.007812 137.933594 168.878906 137.933594 L 179.25 137.933594 C 181.121094 137.933594 182.714844 136.613281 183.082031 134.796875 L 184.382812 128.292969 C 189.09375 127.171875 193.53125 125.324219 197.523438 122.847656 L 203.042969 126.511719 C 204.597656 127.558594 206.671875 127.355469 207.972656 126.035156 L 215.320312 118.6875 C 216.640625 117.386719 216.84375 115.316406 215.796875 113.757812 L 212.132812 108.242188 C 214.605469 104.246094 216.457031 99.808594 217.574219 95.097656 L 224.082031 93.796875 C 225.898438 93.429688 227.214844 91.835938 227.214844 89.96875 L 227.214844 79.59375 C 227.214844 77.722656 225.898438 76.128906 224.082031 75.761719 Z M 174.066406 121.4375 C 153.8125 121.4375 137.410156 105.03125 137.410156 84.78125 C 137.410156 64.527344 153.8125 48.125 174.066406 48.125 C 194.316406 48.125 210.722656 64.527344 210.722656 84.78125 C 210.722656 105.03125 194.316406 121.4375 174.066406 121.4375 Z M 174.066406 121.4375 " fill-opacity="1" fill-rule="nonzero"/><path fill="#e4eaef" d="M 183.175781 60.953125 L 183.230469 60.953125 C 188.691406 60.953125 193.234375 64.949219 194.078125 70.191406 C 196.242188 70.558594 197.890625 72.425781 197.890625 74.699219 L 197.890625 76.53125 C 197.890625 78.804688 196.242188 80.675781 194.078125 81.042969 C 193.234375 86.285156 188.691406 90.277344 183.230469 90.277344 L 164.902344 90.277344 C 159.4375 90.277344 154.894531 86.285156 154.050781 81.042969 C 151.886719 80.675781 150.238281 78.804688 150.238281 76.53125 L 150.238281 74.699219 C 150.238281 72.425781 151.886719 70.558594 154.050781 70.191406 C 154.894531 64.949219 159.4375 60.953125 164.902344 60.953125 Z M 183.175781 60.953125 " fill-opacity="1" fill-rule="nonzero"/><path fill="#ced7dd" d="M 181.074219 66.757812 C 182.050781 65.4375 183.226562 63.429688 183.230469 61.421875 C 183.230469 60.15625 182.203125 59.121094 180.9375 59.121094 L 167.191406 59.121094 C 165.925781 59.121094 164.898438 60.15625 164.902344 61.421875 C 164.90625 63.429688 166.078125 65.4375 167.054688 66.757812 C 167.769531 67.726562 168.914062 68.285156 170.117188 68.285156 L 178.011719 68.285156 C 179.21875 68.285156 180.359375 67.726562 181.074219 66.757812 Z M 181.074219 66.757812 " fill-opacity="1" fill-rule="nonzero"/><path fill="#c9042d" d="M 188.726562 75.617188 C 188.726562 76.097656 188.679688 76.574219 188.585938 77.046875 C 188.492188 77.519531 188.355469 77.976562 188.167969 78.421875 C 187.984375 78.867188 187.757812 79.289062 187.492188 79.6875 C 187.222656 80.089844 186.921875 80.460938 186.582031 80.800781 C 186.238281 81.140625 185.871094 81.445312 185.46875 81.710938 C 185.070312 81.980469 184.644531 82.207031 184.203125 82.390625 C 183.757812 82.574219 183.296875 82.710938 182.828125 82.804688 C 182.355469 82.902344 181.878906 82.949219 181.394531 82.949219 L 166.734375 82.949219 C 166.253906 82.949219 165.777344 82.902344 165.304688 82.804688 C 164.832031 82.710938 164.371094 82.574219 163.929688 82.390625 C 163.484375 82.207031 163.0625 81.980469 162.660156 81.710938 C 162.261719 81.445312 161.890625 81.140625 161.550781 80.800781 C 161.210938 80.460938 160.90625 80.089844 160.636719 79.6875 C 160.371094 79.289062 160.144531 78.867188 159.960938 78.421875 C 159.777344 77.976562 159.636719 77.519531 159.542969 77.046875 C 159.449219 76.574219 159.402344 76.097656 159.402344 75.617188 C 159.402344 75.136719 159.449219 74.65625 159.542969 74.1875 C 159.636719 73.714844 159.777344 73.253906 159.960938 72.8125 C 160.144531 72.367188 160.371094 71.945312 160.636719 71.542969 C 160.90625 71.144531 161.210938 70.773438 161.550781 70.433594 C 161.890625 70.09375 162.261719 69.789062 162.660156 69.519531 C 163.0625 69.253906 163.484375 69.027344 163.929688 68.84375 C 164.371094 68.660156 164.832031 68.519531 165.304688 68.425781 C 165.777344 68.332031 166.253906 68.285156 166.734375 68.285156 L 181.394531 68.285156 C 181.878906 68.285156 182.355469 68.332031 182.828125 68.425781 C 183.296875 68.519531 183.757812 68.660156 184.203125 68.84375 C 184.644531 69.027344 185.070312 69.253906 185.46875 69.519531 C 185.871094 69.789062 186.238281 70.09375 186.582031 70.433594 C 186.921875 70.773438 187.222656 71.144531 187.492188 71.542969 C 187.757812 71.945312 187.984375 72.367188 188.167969 72.8125 C 188.355469 73.253906 188.492188 73.714844 188.585938 74.1875 C 188.679688 74.65625 188.726562 75.136719 188.726562 75.617188 Z M 188.726562 75.617188 " fill-opacity="1" fill-rule="nonzero"/><g clip-path="url(#1b9d073801)"><path fill="#262626" d="M 224.433594 73.964844 L 219.074219 72.890625 C 218.011719 68.851562 216.410156 64.984375 214.296875 61.367188 L 217.332031 56.8125 C 218.84375 54.542969 218.539062 51.5 216.613281 49.570312 L 209.273438 42.234375 C 207.34375 40.304688 204.300781 40.003906 202.03125 41.515625 L 197.476562 44.546875 C 193.859375 42.4375 189.988281 40.832031 185.953125 39.769531 L 184.882812 34.410156 C 184.347656 31.738281 181.980469 29.796875 179.253906 29.796875 L 168.875 29.796875 C 166.148438 29.796875 163.78125 31.738281 163.246094 34.410156 L 162.175781 39.769531 C 158.140625 40.832031 154.273438 42.4375 150.652344 44.546875 L 146.097656 41.515625 C 143.832031 40.003906 140.785156 40.304688 138.855469 42.234375 L 131.519531 49.570312 C 129.589844 51.5 129.289062 54.542969 130.800781 56.8125 L 133.832031 61.367188 C 131.722656 64.984375 130.117188 68.851562 129.054688 72.890625 L 123.695312 73.964844 C 121.019531 74.5 119.082031 76.863281 119.082031 79.589844 L 119.082031 89.96875 C 119.082031 92.695312 121.019531 95.0625 123.695312 95.597656 L 129.054688 96.667969 C 130.117188 100.707031 131.722656 104.574219 133.832031 108.191406 L 130.800781 112.746094 C 129.289062 115.015625 129.585938 118.0625 131.519531 119.988281 L 138.855469 127.328125 C 140.785156 129.253906 143.832031 129.558594 146.097656 128.046875 L 150.652344 125.011719 C 154.273438 127.125 158.140625 128.726562 162.175781 129.789062 L 163.246094 135.148438 C 163.78125 137.824219 166.148438 139.765625 168.875 139.765625 L 179.253906 139.765625 C 181.980469 139.765625 184.347656 137.824219 184.882812 135.148438 L 185.953125 129.789062 C 189.988281 128.726562 193.855469 127.125 197.480469 125.011719 L 202.03125 128.046875 C 204.300781 129.558594 207.34375 129.253906 209.273438 127.328125 L 216.613281 119.988281 C 218.542969 118.0625 218.84375 115.015625 217.332031 112.746094 L 214.296875 108.191406 C 216.410156 104.574219 218.011719 100.707031 219.074219 96.667969 L 224.433594 95.597656 C 227.109375 95.0625 229.050781 92.695312 229.050781 89.96875 L 229.050781 79.589844 C 229.050781 76.863281 227.109375 74.5 224.433594 73.964844 Z M 225.382812 89.96875 C 225.382812 90.953125 224.683594 91.8125 223.714844 92.003906 L 217.21875 93.304688 C 216.515625 93.441406 215.960938 93.980469 215.796875 94.675781 C 214.746094 99.128906 212.988281 103.371094 210.570312 107.28125 C 210.191406 107.890625 210.207031 108.664062 210.605469 109.261719 L 214.28125 114.78125 C 214.828125 115.601562 214.71875 116.703125 214.023438 117.398438 L 206.683594 124.738281 C 205.988281 125.433594 204.890625 125.542969 204.066406 124.996094 L 198.546875 121.320312 C 197.949219 120.917969 197.179688 120.910156 196.566406 121.285156 C 192.652344 123.699219 188.414062 125.460938 183.960938 126.511719 C 183.265625 126.679688 182.726562 127.234375 182.585938 127.9375 L 181.289062 134.429688 C 181.09375 135.398438 180.238281 136.097656 179.253906 136.097656 L 168.875 136.097656 C 167.890625 136.097656 167.035156 135.398438 166.839844 134.429688 L 165.542969 127.9375 C 165.402344 127.230469 164.863281 126.675781 164.167969 126.511719 C 159.714844 125.460938 155.476562 123.703125 151.5625 121.285156 C 151.265625 121.101562 150.929688 121.011719 150.597656 121.011719 C 150.246094 121.011719 149.890625 121.113281 149.582031 121.320312 L 144.0625 124.996094 C 143.242188 125.546875 142.144531 125.433594 141.445312 124.738281 L 134.109375 117.398438 C 133.410156 116.703125 133.304688 115.601562 133.847656 114.78125 L 137.527344 109.261719 C 137.921875 108.664062 137.9375 107.890625 137.558594 107.28125 C 135.144531 103.371094 133.386719 99.128906 132.332031 94.675781 C 132.167969 93.980469 131.609375 93.441406 130.910156 93.304688 L 124.414062 92.003906 C 123.449219 91.8125 122.746094 90.957031 122.746094 89.96875 L 122.746094 79.589844 C 122.746094 78.605469 123.449219 77.75 124.414062 77.558594 L 130.910156 76.257812 C 131.613281 76.117188 132.167969 75.578125 132.332031 74.882812 C 133.386719 70.425781 135.144531 66.1875 137.558594 62.277344 C 137.9375 61.667969 137.921875 60.894531 137.527344 60.296875 L 133.847656 54.777344 C 133.300781 53.960938 133.410156 52.859375 134.109375 52.160156 L 141.445312 44.824219 C 142.144531 44.128906 143.242188 44.019531 144.0625 44.5625 L 149.582031 48.242188 C 150.179688 48.640625 150.953125 48.652344 151.5625 48.277344 C 155.472656 45.859375 159.714844 44.101562 164.167969 43.046875 C 164.863281 42.882812 165.402344 42.328125 165.542969 41.625 L 166.839844 35.128906 C 167.035156 34.164062 167.890625 33.460938 168.875 33.460938 L 179.253906 33.460938 C 180.238281 33.460938 181.09375 34.164062 181.289062 35.128906 L 182.585938 41.625 C 182.726562 42.328125 183.265625 42.882812 183.960938 43.046875 C 188.414062 44.097656 192.65625 45.859375 196.566406 48.277344 C 197.175781 48.652344 197.949219 48.640625 198.546875 48.242188 L 204.066406 44.5625 C 204.886719 44.015625 205.988281 44.128906 206.683594 44.824219 L 214.023438 52.160156 C 214.71875 52.859375 214.828125 53.957031 214.28125 54.777344 L 210.605469 60.296875 C 210.207031 60.894531 210.191406 61.667969 210.570312 62.277344 C 212.984375 66.1875 214.742188 70.425781 215.796875 74.882812 C 215.964844 75.578125 216.519531 76.117188 217.21875 76.257812 L 223.714844 77.558594 C 224.683594 77.75 225.382812 78.605469 225.382812 79.589844 Z M 225.382812 89.96875 " fill-opacity="1" fill-rule="nonzero"/></g><path fill="#262626" d="M 174.066406 46.292969 C 164.890625 46.292969 156.003906 49.570312 149.046875 55.53125 C 148.277344 56.1875 148.1875 57.34375 148.847656 58.113281 C 149.507812 58.886719 150.664062 58.972656 151.429688 58.3125 C 157.726562 52.925781 165.765625 49.953125 174.066406 49.953125 C 193.269531 49.953125 208.890625 65.574219 208.890625 84.777344 C 208.890625 94.761719 204.644531 103.75 197.894531 110.105469 L 197.894531 103.105469 C 197.894531 99.0625 194.605469 95.777344 190.5625 95.777344 C 188.722656 95.777344 187.003906 96.453125 185.679688 97.640625 C 184.414062 96.789062 182.960938 96.203125 181.398438 95.941406 L 181.398438 92.109375 L 183.230469 92.109375 C 189.15625 92.109375 194.207031 88.132812 195.644531 82.5 C 198.070312 81.558594 199.726562 79.222656 199.726562 76.53125 L 199.726562 74.699219 C 199.726562 72.007812 198.074219 69.671875 195.644531 68.726562 C 194.304688 63.480469 189.820312 59.714844 184.421875 59.21875 C 184.261719 58.960938 184.074219 58.71875 183.859375 58.5 C 183.078125 57.71875 182.042969 57.285156 180.941406 57.285156 L 167.195312 57.285156 C 166.089844 57.285156 165.054688 57.71875 164.277344 58.5 C 164.054688 58.71875 163.871094 58.964844 163.710938 59.21875 C 158.3125 59.714844 153.828125 63.480469 152.484375 68.726562 C 150.058594 69.671875 148.40625 72.007812 148.40625 74.699219 L 148.40625 76.53125 C 148.40625 79.222656 150.058594 81.558594 152.484375 82.5 C 153.925781 88.132812 158.972656 92.109375 164.902344 92.109375 L 166.734375 92.109375 L 166.734375 95.941406 C 165.171875 96.203125 163.714844 96.789062 162.449219 97.640625 C 161.128906 96.453125 159.410156 95.777344 157.570312 95.777344 C 153.527344 95.777344 150.238281 99.0625 150.238281 103.105469 L 150.238281 110.105469 C 143.484375 103.75 139.242188 94.761719 139.242188 84.777344 C 139.242188 77.171875 141.648438 69.945312 146.207031 63.882812 C 146.8125 63.074219 146.648438 61.925781 145.839844 61.316406 C 145.035156 60.710938 143.886719 60.871094 143.273438 61.679688 C 138.238281 68.382812 135.578125 76.371094 135.578125 84.78125 C 135.578125 106.003906 152.84375 123.269531 174.066406 123.269531 C 195.289062 123.269531 212.554688 106.003906 212.554688 84.78125 C 212.554688 63.558594 195.289062 46.292969 174.066406 46.292969 Z M 190.558594 110.441406 C 191.902344 110.441406 193.144531 110.050781 194.226562 109.421875 L 194.226562 113.121094 C 193.050781 113.960938 191.835938 114.75 190.558594 115.4375 Z M 194.226562 103.109375 C 194.226562 105.128906 192.582031 106.773438 190.558594 106.773438 C 190.558594 104.3125 189.734375 102.039062 188.363281 100.207031 C 188.988281 99.730469 189.742188 99.441406 190.558594 99.441406 C 192.582031 99.441406 194.226562 101.085938 194.226562 103.109375 Z M 166.734375 70.117188 L 181.394531 70.117188 C 184.425781 70.117188 186.894531 72.585938 186.894531 75.617188 C 186.894531 78.648438 184.425781 81.113281 181.394531 81.113281 L 166.734375 81.113281 C 163.703125 81.113281 161.234375 78.648438 161.234375 75.617188 C 161.234375 72.585938 163.703125 70.117188 166.734375 70.117188 Z M 166.871094 61.089844 C 166.929688 61.027344 167.039062 60.953125 167.191406 60.953125 L 180.9375 60.953125 C 181.09375 60.953125 181.199219 61.027344 181.261719 61.089844 C 181.3125 61.140625 181.394531 61.25 181.394531 61.417969 C 181.394531 62.597656 180.757812 64.105469 179.601562 65.664062 C 179.242188 66.15625 178.648438 66.449219 178.011719 66.449219 L 170.117188 66.449219 C 169.484375 66.449219 168.890625 66.15625 168.527344 65.664062 C 167.375 64.101562 166.734375 62.59375 166.734375 61.414062 C 166.734375 61.25 166.816406 61.140625 166.871094 61.085938 Z M 155.859375 80.75 C 155.734375 79.976562 155.132812 79.367188 154.355469 79.234375 C 153.03125 79.011719 152.070312 77.875 152.070312 76.53125 L 152.070312 74.699219 C 152.070312 73.359375 153.03125 72.222656 154.355469 72 C 155.132812 71.867188 155.734375 71.257812 155.859375 70.484375 C 156.484375 66.59375 159.457031 63.640625 163.238281 62.945312 C 163.523438 64.320312 164.128906 65.601562 164.785156 66.667969 C 160.667969 67.566406 157.570312 71.230469 157.570312 75.613281 C 157.570312 80.667969 161.679688 84.777344 166.734375 84.777344 L 181.394531 84.777344 C 186.449219 84.777344 190.558594 80.667969 190.558594 75.613281 C 190.558594 71.230469 187.460938 67.566406 183.34375 66.667969 C 184.003906 65.597656 184.609375 64.3125 184.890625 62.933594 C 188.65625 63.613281 191.640625 66.578125 192.269531 70.480469 C 192.394531 71.257812 192.996094 71.863281 193.773438 71.996094 C 195.097656 72.21875 196.058594 73.355469 196.058594 74.699219 L 196.058594 76.53125 C 196.058594 77.871094 195.097656 79.007812 193.773438 79.230469 C 192.996094 79.363281 192.394531 79.972656 192.269531 80.75 C 191.550781 85.210938 187.75 88.445312 183.230469 88.445312 L 164.902344 88.445312 C 160.378906 88.445312 156.578125 85.207031 155.859375 80.75 Z M 177.730469 92.113281 L 177.730469 95.777344 L 170.398438 95.777344 L 170.398438 92.113281 Z M 157.570312 99.441406 C 158.386719 99.441406 159.144531 99.730469 159.765625 100.207031 C 158.390625 102.039062 157.570312 104.3125 157.570312 106.773438 C 155.546875 106.773438 153.902344 105.128906 153.902344 103.109375 C 153.902344 101.085938 155.546875 99.441406 157.570312 99.441406 Z M 153.902344 109.421875 C 154.988281 110.050781 156.226562 110.441406 157.570312 110.441406 L 157.570312 115.4375 C 156.292969 114.746094 155.078125 113.960938 153.902344 113.121094 Z M 161.234375 117.125 L 161.234375 106.773438 C 161.234375 102.730469 164.523438 99.441406 168.566406 99.441406 L 179.5625 99.441406 C 183.605469 99.441406 186.894531 102.730469 186.894531 106.773438 L 186.894531 117.125 C 182.917969 118.707031 178.597656 119.605469 174.066406 119.605469 C 169.53125 119.605469 165.210938 118.707031 161.234375 117.125 Z M 161.234375 117.125 " fill-opacity="1" fill-rule="nonzero"/><path fill="#262626" d="M 168.566406 77.445312 C 169.578125 77.445312 170.398438 76.625 170.398438 75.609375 L 170.398438 75.59375 C 170.398438 74.582031 169.578125 73.769531 168.566406 73.769531 C 167.554688 73.769531 166.734375 74.597656 166.734375 75.609375 C 166.734375 76.625 167.554688 77.445312 168.566406 77.445312 Z M 168.566406 77.445312 " fill-opacity="1" fill-rule="nonzero"/><path fill="#262626" d="M 179.5625 77.445312 C 180.578125 77.445312 181.394531 76.625 181.394531 75.609375 L 181.394531 75.59375 C 181.394531 74.582031 180.578125 73.769531 179.5625 73.769531 C 178.550781 73.769531 177.730469 74.597656 177.730469 75.609375 C 177.730469 76.625 178.550781 77.445312 179.5625 77.445312 Z M 179.5625 77.445312 " fill-opacity="1" fill-rule="nonzero"/><path fill="#ced7dd" d="M 391.195312 103.109375 L 391.195312 119.605469 C 391.195312 121.628906 392.835938 123.269531 394.863281 123.269531 L 402.195312 123.269531 L 402.195312 103.109375 Z M 391.195312 103.109375 " fill-opacity="1" fill-rule="nonzero"/><path fill="#ced7dd" d="M 435.183594 103.109375 L 435.183594 119.605469 C 435.183594 121.628906 433.542969 123.269531 431.519531 123.269531 L 424.1875 123.269531 L 424.1875 103.109375 Z M 435.183594 103.109375 " fill-opacity="1" fill-rule="nonzero"/><path fill="#b3c1c9" d="M 398.527344 108.277344 C 397.960938 108.496094 397.335938 108.605469 396.695312 108.605469 C 393.652344 108.605469 391.195312 106.152344 391.195312 103.109375 C 391.195312 100.066406 393.652344 97.609375 396.695312 97.609375 C 398.65625 97.609375 400.359375 98.617188 401.332031 100.15625 Z M 398.527344 108.277344 " fill-opacity="1" fill-rule="nonzero"/><path fill="#b3c1c9" d="M 425.050781 100.15625 C 426.019531 98.617188 427.726562 97.609375 429.6875 97.609375 C 432.726562 97.609375 435.183594 100.066406 435.183594 103.109375 C 435.183594 106.152344 432.726562 108.605469 429.6875 108.605469 C 429.042969 108.605469 428.421875 108.496094 427.851562 108.277344 Z M 425.050781 100.15625 " fill-opacity="1" fill-rule="nonzero"/><path fill="#ced7dd" d="M 407.691406 88.445312 L 418.6875 88.445312 L 418.6875 99.441406 L 407.691406 99.441406 Z M 407.691406 88.445312 " fill-opacity="1" fill-rule="nonzero"/><path fill="#e4eaef" d="M 407.691406 97.609375 L 418.6875 97.609375 C 423.746094 97.609375 427.851562 101.714844 427.851562 106.773438 L 427.851562 119.605469 C 427.851562 121.628906 426.210938 123.269531 424.1875 123.269531 L 402.195312 123.269531 C 400.171875 123.269531 398.527344 121.628906 398.527344 119.605469 L 398.527344 106.773438 C 398.527344 101.714844 402.632812 97.609375 407.691406 97.609375 Z M 407.691406 97.609375 " fill-opacity="1" fill-rule="nonzero"/><path fill="#c9042d" d="M 463.207031 75.761719 L 456.703125 74.460938 C 455.582031 69.75 453.734375 65.316406 451.257812 61.320312 L 454.925781 55.804688 C 455.96875 54.246094 455.765625 52.175781 454.449219 50.875 L 447.097656 43.523438 C 445.796875 42.203125 443.726562 42.003906 442.167969 43.046875 L 436.652344 46.710938 C 432.65625 44.238281 428.21875 42.386719 423.507812 41.269531 L 422.207031 34.761719 C 421.839844 32.949219 420.246094 31.628906 418.378906 31.628906 L 408.003906 31.628906 C 406.132812 31.628906 404.539062 32.949219 404.171875 34.761719 L 402.871094 41.269531 C 398.160156 42.386719 393.726562 44.238281 389.730469 46.710938 L 384.214844 43.046875 C 382.65625 42.003906 380.585938 42.203125 379.285156 43.523438 L 371.933594 50.875 C 370.613281 52.175781 370.414062 54.246094 371.457031 55.804688 L 375.121094 61.320312 C 372.648438 65.316406 370.796875 69.75 369.679688 74.460938 L 363.171875 75.761719 C 361.359375 76.128906 360.039062 77.722656 360.039062 79.59375 L 360.039062 89.96875 C 360.039062 91.835938 361.359375 93.429688 363.171875 93.796875 L 369.679688 95.097656 C 370.796875 99.808594 372.648438 104.246094 375.121094 108.242188 L 371.457031 113.757812 C 370.414062 115.316406 370.613281 117.386719 371.933594 118.6875 L 379.285156 126.035156 C 380.585938 127.355469 382.65625 127.558594 384.214844 126.511719 L 389.730469 122.847656 C 393.726562 125.324219 398.160156 127.171875 402.871094 128.292969 L 404.171875 134.796875 C 404.539062 136.613281 406.132812 137.933594 408.003906 137.933594 L 418.378906 137.933594 C 420.246094 137.933594 421.839844 136.613281 422.207031 134.796875 L 423.507812 128.292969 C 428.21875 127.171875 432.65625 125.324219 436.652344 122.847656 L 442.167969 126.511719 C 443.726562 127.558594 445.796875 127.355469 447.097656 126.035156 L 454.449219 118.6875 C 455.765625 117.386719 455.96875 115.316406 454.925781 113.757812 L 451.257812 108.242188 C 453.734375 104.246094 455.582031 99.808594 456.703125 95.097656 L 463.207031 93.796875 C 465.023438 93.429688 466.34375 91.835938 466.34375 89.96875 L 466.34375 79.59375 C 466.34375 77.722656 465.023438 76.128906 463.207031 75.761719 Z M 413.191406 121.4375 C 392.9375 121.4375 376.535156 105.03125 376.535156 84.78125 C 376.535156 64.527344 392.9375 48.125 413.191406 48.125 C 433.441406 48.125 449.847656 64.527344 449.847656 84.78125 C 449.847656 105.03125 433.441406 121.4375 413.191406 121.4375 Z M 413.191406 121.4375 " fill-opacity="1" fill-rule="nonzero"/><path fill="#e4eaef" d="M 422.300781 60.953125 L 422.355469 60.953125 C 427.816406 60.953125 432.363281 64.949219 433.203125 70.191406 C 435.367188 70.558594 437.015625 72.425781 437.015625 74.699219 L 437.015625 76.53125 C 437.015625 78.804688 435.367188 80.675781 433.203125 81.042969 C 432.363281 86.285156 427.816406 90.277344 422.355469 90.277344 L 404.027344 90.277344 C 398.566406 90.277344 394.019531 86.285156 393.175781 81.042969 C 391.011719 80.675781 389.363281 78.804688 389.363281 76.53125 L 389.363281 74.699219 C 389.363281 72.425781 391.011719 70.558594 393.175781 70.191406 C 394.019531 64.949219 398.566406 60.953125 404.027344 60.953125 Z M 422.300781 60.953125 " fill-opacity="1" fill-rule="nonzero"/><path fill="#ced7dd" d="M 420.199219 66.757812 C 421.175781 65.4375 422.351562 63.429688 422.355469 61.421875 C 422.355469 60.15625 421.328125 59.121094 420.0625 59.121094 L 406.316406 59.121094 C 405.054688 59.121094 404.023438 60.15625 404.027344 61.421875 C 404.03125 63.429688 405.203125 65.4375 406.179688 66.757812 C 406.898438 67.726562 408.039062 68.285156 409.246094 68.285156 L 417.136719 68.285156 C 418.34375 68.285156 419.484375 67.726562 420.199219 66.757812 Z M 420.199219 66.757812 " fill-opacity="1" fill-rule="nonzero"/><path fill="#c9042d" d="M 427.851562 75.617188 C 427.851562 76.097656 427.804688 76.574219 427.710938 77.046875 C 427.617188 77.519531 427.480469 77.976562 427.296875 78.421875 C 427.109375 78.867188 426.886719 79.289062 426.617188 79.6875 C 426.351562 80.089844 426.046875 80.460938 425.707031 80.800781 C 425.367188 81.140625 424.996094 81.445312 424.59375 81.710938 C 424.195312 81.980469 423.773438 82.207031 423.328125 82.390625 C 422.882812 82.574219 422.425781 82.710938 421.953125 82.804688 C 421.480469 82.902344 421.003906 82.949219 420.523438 82.949219 L 405.859375 82.949219 C 405.378906 82.949219 404.902344 82.902344 404.429688 82.804688 C 403.957031 82.710938 403.5 82.574219 403.054688 82.390625 C 402.609375 82.207031 402.1875 81.980469 401.785156 81.710938 C 401.386719 81.445312 401.015625 81.140625 400.675781 80.800781 C 400.335938 80.460938 400.03125 80.089844 399.761719 79.6875 C 399.496094 79.289062 399.269531 78.867188 399.085938 78.421875 C 398.902344 77.976562 398.761719 77.519531 398.667969 77.046875 C 398.574219 76.574219 398.527344 76.097656 398.527344 75.617188 C 398.527344 75.136719 398.574219 74.65625 398.667969 74.1875 C 398.761719 73.714844 398.902344 73.253906 399.085938 72.8125 C 399.269531 72.367188 399.496094 71.945312 399.761719 71.542969 C 400.03125 71.144531 400.335938 70.773438 400.675781 70.433594 C 401.015625 70.09375 401.386719 69.789062 401.785156 69.519531 C 402.1875 69.253906 402.609375 69.027344 403.054688 68.84375 C 403.5 68.660156 403.957031 68.519531 404.429688 68.425781 C 404.902344 68.332031 405.378906 68.285156 405.859375 68.285156 L 420.523438 68.285156 C 421.003906 68.285156 421.480469 68.332031 421.953125 68.425781 C 422.425781 68.519531 422.882812 68.660156 423.328125 68.84375 C 423.773438 69.027344 424.195312 69.253906 424.59375 69.519531 C 424.996094 69.789062 425.367188 70.09375 425.707031 70.433594 C 426.046875 70.773438 426.351562 71.144531 426.617188 71.542969 C 426.886719 71.945312 427.109375 72.367188 427.296875 72.8125 C 427.480469 73.253906 427.617188 73.714844 427.710938 74.1875 C 427.804688 74.65625 427.851562 75.136719 427.851562 75.617188 Z M 427.851562 75.617188 " fill-opacity="1" fill-rule="nonzero"/><g clip-path="url(#7dba8a75a4)"><path fill="#262626" d="M 463.558594 73.964844 L 458.199219 72.890625 C 457.136719 68.851562 455.535156 64.984375 453.421875 61.367188 L 456.457031 56.8125 C 457.96875 54.542969 457.664062 51.5 455.738281 49.570312 L 448.398438 42.234375 C 446.472656 40.304688 443.425781 40.003906 441.15625 41.515625 L 436.601562 44.546875 C 432.984375 42.4375 429.117188 40.832031 425.078125 39.769531 L 424.007812 34.410156 C 423.472656 31.738281 421.105469 29.796875 418.378906 29.796875 L 408 29.796875 C 405.273438 29.796875 402.910156 31.738281 402.375 34.410156 L 401.300781 39.769531 C 397.265625 40.832031 393.398438 42.4375 389.777344 44.546875 L 385.222656 41.515625 C 382.957031 40.003906 379.910156 40.304688 377.980469 42.234375 L 370.644531 49.570312 C 368.714844 51.5 368.414062 54.542969 369.925781 56.8125 L 372.957031 61.367188 C 370.847656 64.984375 369.242188 68.851562 368.179688 72.890625 L 362.820312 73.964844 C 360.148438 74.5 358.207031 76.863281 358.207031 79.589844 L 358.207031 89.96875 C 358.207031 92.695312 360.148438 95.0625 362.820312 95.597656 L 368.179688 96.667969 C 369.242188 100.707031 370.847656 104.574219 372.957031 108.191406 L 369.925781 112.746094 C 368.414062 115.015625 368.714844 118.0625 370.644531 119.988281 L 377.980469 127.328125 C 379.910156 129.253906 382.957031 129.558594 385.222656 128.046875 L 389.777344 125.011719 C 393.398438 127.125 397.265625 128.726562 401.300781 129.789062 L 402.375 135.148438 C 402.910156 137.824219 405.273438 139.765625 408 139.765625 L 418.378906 139.765625 C 421.105469 139.765625 423.472656 137.824219 424.007812 135.148438 L 425.078125 129.789062 C 429.117188 128.726562 432.984375 127.125 436.605469 125.011719 L 441.15625 128.046875 C 443.425781 129.558594 446.472656 129.253906 448.398438 127.328125 L 455.738281 119.988281 C 457.667969 118.0625 457.96875 115.015625 456.457031 112.746094 L 453.421875 108.191406 C 455.535156 104.574219 457.136719 100.707031 458.199219 96.667969 L 463.558594 95.597656 C 466.234375 95.0625 468.175781 92.695312 468.175781 89.96875 L 468.175781 79.589844 C 468.175781 76.863281 466.234375 74.5 463.558594 73.964844 Z M 464.507812 89.96875 C 464.507812 90.953125 463.808594 91.8125 462.839844 92.003906 L 456.347656 93.304688 C 455.640625 93.441406 455.085938 93.980469 454.921875 94.675781 C 453.871094 99.128906 452.113281 103.371094 449.695312 107.28125 C 449.316406 107.890625 449.332031 108.664062 449.730469 109.261719 L 453.40625 114.78125 C 453.953125 115.601562 453.84375 116.703125 453.148438 117.398438 L 445.808594 124.738281 C 445.113281 125.433594 444.015625 125.542969 443.191406 124.996094 L 437.671875 121.320312 C 437.074219 120.917969 436.304688 120.910156 435.695312 121.285156 C 431.777344 123.699219 427.539062 125.460938 423.085938 126.511719 C 422.390625 126.679688 421.851562 127.234375 421.714844 127.9375 L 420.414062 134.429688 C 420.222656 135.398438 419.367188 136.097656 418.378906 136.097656 L 408 136.097656 C 407.015625 136.097656 406.160156 135.398438 405.96875 134.429688 L 404.667969 127.9375 C 404.527344 127.230469 403.988281 126.675781 403.292969 126.511719 C 398.839844 125.460938 394.601562 123.703125 390.6875 121.285156 C 390.390625 121.101562 390.054688 121.011719 389.726562 121.011719 C 389.371094 121.011719 389.015625 121.113281 388.707031 121.320312 L 383.1875 124.996094 C 382.367188 125.546875 381.269531 125.433594 380.570312 124.738281 L 373.234375 117.398438 C 372.535156 116.703125 372.429688 115.601562 372.972656 114.78125 L 376.652344 109.261719 C 377.050781 108.664062 377.0625 107.890625 376.6875 107.28125 C 374.269531 103.371094 372.511719 99.128906 371.460938 94.675781 C 371.292969 93.980469 370.738281 93.441406 370.035156 93.304688 L 363.539062 92.003906 C 362.574219 91.8125 361.871094 90.957031 361.871094 89.96875 L 361.871094 79.589844 C 361.871094 78.605469 362.574219 77.75 363.539062 77.558594 L 370.035156 76.257812 C 370.738281 76.117188 371.292969 75.578125 371.460938 74.882812 C 372.511719 70.425781 374.269531 66.1875 376.6875 62.277344 C 377.0625 61.667969 377.050781 60.894531 376.652344 60.296875 L 372.972656 54.777344 C 372.425781 53.960938 372.535156 52.859375 373.234375 52.160156 L 380.570312 44.824219 C 381.269531 44.128906 382.367188 44.019531 383.1875 44.5625 L 388.710938 48.242188 C 389.308594 48.640625 390.078125 48.652344 390.6875 48.277344 C 394.601562 45.859375 398.839844 44.101562 403.292969 43.046875 C 403.988281 42.882812 404.527344 42.328125 404.667969 41.625 L 405.96875 35.128906 C 406.160156 34.164062 407.015625 33.460938 408 33.460938 L 418.378906 33.460938 C 419.367188 33.460938 420.222656 34.164062 420.414062 35.128906 L 421.714844 41.625 C 421.851562 42.328125 422.390625 42.882812 423.085938 43.046875 C 427.539062 44.097656 431.78125 45.859375 435.691406 48.277344 C 436.300781 48.652344 437.074219 48.640625 437.671875 48.242188 L 443.191406 44.5625 C 444.011719 44.015625 445.113281 44.128906 445.808594 44.824219 L 453.148438 52.160156 C 453.84375 52.859375 453.953125 53.957031 453.40625 54.777344 L 449.730469 60.296875 C 449.332031 60.894531 449.316406 61.667969 449.695312 62.277344 C 452.109375 66.1875 453.867188 70.425781 454.921875 74.882812 C 455.089844 75.578125 455.644531 76.117188 456.347656 76.257812 L 462.839844 77.558594 C 463.808594 77.75 464.507812 78.605469 464.507812 79.589844 Z M 464.507812 89.96875 " fill-opacity="1" fill-rule="nonzero"/></g><path fill="#262626" d="M 413.191406 46.292969 C 404.015625 46.292969 395.128906 49.570312 388.171875 55.53125 C 387.402344 56.1875 387.3125 57.34375 387.972656 58.113281 C 388.632812 58.886719 389.789062 58.972656 390.558594 58.3125 C 396.851562 52.925781 404.890625 49.953125 413.191406 49.953125 C 432.394531 49.953125 448.015625 65.574219 448.015625 84.777344 C 448.015625 94.761719 443.769531 103.75 437.019531 110.105469 L 437.019531 103.105469 C 437.019531 99.0625 433.730469 95.777344 429.6875 95.777344 C 427.847656 95.777344 426.128906 96.453125 424.808594 97.640625 C 423.539062 96.789062 422.085938 96.203125 420.523438 95.941406 L 420.523438 92.109375 L 422.355469 92.109375 C 428.285156 92.109375 433.332031 88.132812 434.773438 82.5 C 437.195312 81.558594 438.851562 79.222656 438.851562 76.53125 L 438.851562 74.699219 C 438.851562 72.007812 437.199219 69.671875 434.773438 68.726562 C 433.429688 63.480469 428.945312 59.714844 423.546875 59.21875 C 423.386719 58.960938 423.203125 58.71875 422.984375 58.5 C 422.203125 57.71875 421.167969 57.285156 420.066406 57.285156 L 406.320312 57.285156 C 405.214844 57.285156 404.179688 57.71875 403.402344 58.5 C 403.179688 58.71875 403 58.964844 402.835938 59.21875 C 397.4375 59.714844 392.953125 63.480469 391.609375 68.726562 C 389.1875 69.671875 387.53125 72.007812 387.53125 74.699219 L 387.53125 76.53125 C 387.53125 79.222656 389.183594 81.558594 391.609375 82.5 C 393.050781 88.132812 398.097656 92.109375 404.027344 92.109375 L 405.859375 92.109375 L 405.859375 95.941406 C 404.296875 96.203125 402.839844 96.789062 401.574219 97.640625 C 400.253906 96.453125 398.535156 95.777344 396.695312 95.777344 C 392.652344 95.777344 389.363281 99.0625 389.363281 103.105469 L 389.363281 110.105469 C 382.613281 103.75 378.367188 94.761719 378.367188 84.777344 C 378.367188 77.171875 380.773438 69.945312 385.332031 63.882812 C 385.9375 63.074219 385.773438 61.925781 384.96875 61.316406 C 384.160156 60.710938 383.011719 60.871094 382.402344 61.679688 C 377.363281 68.382812 374.703125 76.371094 374.703125 84.78125 C 374.703125 106.003906 391.96875 123.269531 413.191406 123.269531 C 434.414062 123.269531 451.679688 106.003906 451.679688 84.78125 C 451.679688 63.558594 434.414062 46.292969 413.191406 46.292969 Z M 429.6875 110.441406 C 431.027344 110.441406 432.269531 110.050781 433.351562 109.421875 L 433.351562 113.121094 C 432.175781 113.960938 430.964844 114.75 429.6875 115.4375 Z M 433.351562 103.109375 C 433.351562 105.128906 431.707031 106.773438 429.6875 106.773438 C 429.6875 104.3125 428.859375 102.039062 427.488281 100.207031 C 428.113281 99.730469 428.867188 99.441406 429.6875 99.441406 C 431.707031 99.441406 433.351562 101.085938 433.351562 103.109375 Z M 405.859375 70.117188 L 420.523438 70.117188 C 423.554688 70.117188 426.019531 72.585938 426.019531 75.617188 C 426.019531 78.648438 423.554688 81.113281 420.523438 81.113281 L 405.859375 81.113281 C 402.828125 81.113281 400.359375 78.648438 400.359375 75.617188 C 400.359375 72.585938 402.828125 70.117188 405.859375 70.117188 Z M 405.996094 61.089844 C 406.054688 61.027344 406.164062 60.953125 406.316406 60.953125 L 420.0625 60.953125 C 420.21875 60.953125 420.324219 61.027344 420.386719 61.089844 C 420.4375 61.140625 420.523438 61.25 420.523438 61.417969 C 420.523438 62.597656 419.882812 64.105469 418.726562 65.664062 C 418.367188 66.15625 417.773438 66.449219 417.136719 66.449219 L 409.246094 66.449219 C 408.609375 66.449219 408.015625 66.15625 407.652344 65.664062 C 406.5 64.101562 405.859375 62.59375 405.859375 61.414062 C 405.859375 61.25 405.945312 61.140625 405.996094 61.085938 Z M 394.984375 80.75 C 394.859375 79.976562 394.257812 79.367188 393.480469 79.234375 C 392.15625 79.011719 391.195312 77.875 391.195312 76.53125 L 391.195312 74.699219 C 391.195312 73.359375 392.15625 72.222656 393.480469 72 C 394.257812 71.867188 394.859375 71.257812 394.984375 70.484375 C 395.609375 66.59375 398.582031 63.640625 402.367188 62.945312 C 402.648438 64.320312 403.253906 65.601562 403.914062 66.667969 C 399.792969 67.566406 396.695312 71.230469 396.695312 75.613281 C 396.695312 80.667969 400.804688 84.777344 405.859375 84.777344 L 420.523438 84.777344 C 425.574219 84.777344 429.6875 80.667969 429.6875 75.613281 C 429.6875 71.230469 426.585938 67.566406 422.46875 66.667969 C 423.128906 65.597656 423.738281 64.3125 424.015625 62.933594 C 427.78125 63.613281 430.765625 66.578125 431.394531 70.480469 C 431.519531 71.257812 432.125 71.863281 432.898438 71.996094 C 434.222656 72.21875 435.183594 73.355469 435.183594 74.699219 L 435.183594 76.53125 C 435.183594 77.871094 434.222656 79.007812 432.898438 79.230469 C 432.125 79.363281 431.519531 79.972656 431.394531 80.75 C 430.675781 85.210938 426.875 88.445312 422.355469 88.445312 L 404.027344 88.445312 C 399.503906 88.445312 395.703125 85.207031 394.984375 80.75 Z M 416.855469 92.113281 L 416.855469 95.777344 L 409.523438 95.777344 L 409.523438 92.113281 Z M 396.695312 99.441406 C 397.511719 99.441406 398.269531 99.730469 398.894531 100.207031 C 397.519531 102.039062 396.695312 104.3125 396.695312 106.773438 C 394.671875 106.773438 393.03125 105.128906 393.03125 103.109375 C 393.03125 101.085938 394.671875 99.441406 396.695312 99.441406 Z M 393.03125 109.421875 C 394.113281 110.050781 395.351562 110.441406 396.695312 110.441406 L 396.695312 115.4375 C 395.417969 114.746094 394.203125 113.960938 393.03125 113.121094 Z M 400.359375 117.125 L 400.359375 106.773438 C 400.359375 102.730469 403.648438 99.441406 407.691406 99.441406 L 418.6875 99.441406 C 422.730469 99.441406 426.019531 102.730469 426.019531 106.773438 L 426.019531 117.125 C 422.042969 118.707031 417.722656 119.605469 413.191406 119.605469 C 408.65625 119.605469 404.335938 118.707031 400.359375 117.125 Z M 400.359375 117.125 " fill-opacity="1" fill-rule="nonzero"/><path fill="#262626" d="M 407.691406 77.445312 C 408.707031 77.445312 409.523438 76.625 409.523438 75.609375 L 409.523438 75.59375 C 409.523438 74.582031 408.707031 73.769531 407.691406 73.769531 C 406.679688 73.769531 405.859375 74.597656 405.859375 75.609375 C 405.859375 76.625 406.679688 77.445312 407.691406 77.445312 Z M 407.691406 77.445312 " fill-opacity="1" fill-rule="nonzero"/><path fill="#262626" d="M 418.6875 77.445312 C 419.703125 77.445312 420.523438 76.625 420.523438 75.609375 L 420.523438 75.59375 C 420.523438 74.582031 419.703125 73.769531 418.6875 73.769531 C 417.675781 73.769531 416.855469 74.597656 416.855469 75.609375 C 416.855469 76.625 417.675781 77.445312 418.6875 77.445312 Z M 418.6875 77.445312 " fill-opacity="1" fill-rule="nonzero"/><g clip-path="url(#6f7558dd7e)"><g transform="matrix(1, 0, 0, 1, 0, 33)"><g clip-path="url(#2039fb620b)"><g fill="#014b93" fill-opacity="1"><g transform="translate(1.898829, 100.639014)"><g><path d="M 88.921875 -68.265625 L 88.921875 -67.5625 C 88.921875 -67.632812 88.921875 -67.691406 88.921875 -67.734375 C 88.921875 -67.773438 88.921875 -67.832031 88.921875 -67.90625 C 88.921875 -67.988281 88.921875 -68.046875 88.921875 -68.078125 C 88.921875 -68.117188 88.921875 -68.179688 88.921875 -68.265625 Z M 91.140625 -5.015625 C 91.597656 -4.390625 91.75 -3.457031 91.59375 -2.21875 C 91.363281 -0.664062 90.472656 0.109375 88.921875 0.109375 L 76.078125 0.109375 C 75.066406 0.109375 74.25 -0.117188 73.625 -0.578125 C 73.394531 -0.734375 73.179688 -0.96875 72.984375 -1.28125 C 72.796875 -1.59375 72.582031 -1.90625 72.34375 -2.21875 L 51.21875 -39.671875 L 26.609375 -39.671875 L 26.609375 -3.96875 C 26.609375 -2.175781 26.195312 -1.046875 25.375 -0.578125 C 24.5625 -0.117188 23.882812 0.109375 23.34375 0.109375 L 12.71875 0.109375 C 12.175781 0.109375 11.472656 -0.117188 10.609375 -0.578125 C 9.753906 -1.046875 9.328125 -2.175781 9.328125 -3.96875 L 9.328125 -52.96875 C 9.328125 -54.757812 9.753906 -55.867188 10.609375 -56.296875 C 11.472656 -56.722656 12.175781 -56.9375 12.71875 -56.9375 L 63.484375 -56.9375 C 66.429688 -56.9375 68.488281 -57.796875 69.65625 -59.515625 C 70.90625 -61.222656 71.53125 -64.019531 71.53125 -67.90625 C 71.53125 -71.800781 70.90625 -74.601562 69.65625 -76.3125 C 68.488281 -78.019531 66.429688 -78.875 63.484375 -78.875 L 12.71875 -78.875 C 12.175781 -78.875 11.472656 -79.085938 10.609375 -79.515625 C 9.753906 -79.953125 9.328125 -81.0625 9.328125 -82.84375 L 9.328125 -92.0625 C 9.328125 -93.925781 9.753906 -95.070312 10.609375 -95.5 C 11.472656 -95.9375 12.175781 -96.15625 12.71875 -96.15625 L 66.515625 -96.15625 C 74.523438 -96.15625 80.28125 -93.664062 83.78125 -88.6875 C 87.125 -83.863281 88.835938 -76.9375 88.921875 -67.90625 C 88.835938 -58.882812 87.125 -51.960938 83.78125 -47.140625 C 80.820312 -43.097656 76.46875 -40.726562 70.71875 -40.03125 Z M 91.140625 -5.015625 "/></g></g></g><g fill="#014b93" fill-opacity="1"><g transform="translate(106.695067, 100.639014)"><g/></g></g><g fill="#014b93" fill-opacity="1"><g transform="translate(170.404306, 100.639014)"><g/></g></g><g fill="#014b93" fill-opacity="1"><g transform="translate(234.147787, 100.639014)"><g><path d="M 90.078125 -66.390625 C 90.078125 -59.003906 88.132812 -53.363281 84.25 -49.46875 C 88.53125 -45.582031 90.671875 -39.789062 90.671875 -32.09375 L 90.671875 -24.265625 C 90.671875 -22.484375 90.59375 -20.753906 90.4375 -19.078125 C 90.28125 -17.398438 90.046875 -15.828125 89.734375 -14.359375 C 89.421875 -12.878906 89.007812 -11.492188 88.5 -10.203125 C 88 -8.921875 87.359375 -7.738281 86.578125 -6.65625 C 85.253906 -4.550781 83.3125 -2.878906 80.75 -1.640625 C 78.414062 -0.472656 75.5 0.109375 72 0.109375 L 19.484375 0.109375 C 17.691406 0.109375 16 -0.332031 14.40625 -1.21875 C 12.8125 -2.113281 11.550781 -3.34375 10.625 -4.90625 C 10 -5.988281 9.566406 -7.191406 9.328125 -8.515625 L 9.453125 -88.21875 C 9.609375 -88.6875 9.78125 -89.171875 9.96875 -89.671875 C 10.164062 -90.179688 10.382812 -90.671875 10.625 -91.140625 C 12.488281 -94.171875 15.171875 -95.800781 18.671875 -96.03125 L 18.671875 -96.15625 L 70.25 -96.15625 C 77.40625 -96.15625 82.5 -94.171875 85.53125 -90.203125 C 88.5625 -86.390625 90.078125 -80.632812 90.078125 -72.9375 Z M 26.484375 -17.859375 C 26.484375 -17.617188 26.503906 -17.457031 26.546875 -17.375 C 26.585938 -17.300781 26.609375 -17.265625 26.609375 -17.265625 L 67.21875 -17.265625 C 69.550781 -17.265625 71.179688 -17.769531 72.109375 -18.78125 C 73.046875 -19.875 73.515625 -21.742188 73.515625 -24.390625 L 73.515625 -32.328125 C 73.515625 -34.816406 73.007812 -36.679688 72 -37.921875 C 70.90625 -39.171875 68.878906 -39.796875 65.921875 -39.796875 L 43.296875 -39.796875 C 42.285156 -39.796875 41.390625 -40.160156 40.609375 -40.890625 C 39.828125 -41.628906 39.4375 -42.546875 39.4375 -43.640625 L 39.4375 -53.203125 C 39.4375 -54.296875 39.828125 -55.210938 40.609375 -55.953125 C 41.390625 -56.691406 42.285156 -57.0625 43.296875 -57.0625 L 65.921875 -57.0625 C 68.960938 -57.0625 70.945312 -57.601562 71.875 -58.6875 C 72.882812 -59.78125 73.390625 -61.492188 73.390625 -63.828125 L 73.390625 -71.875 C 73.390625 -74.445312 72.925781 -76.238281 72 -77.25 C 71.0625 -78.332031 69.46875 -78.875 67.21875 -78.875 L 26.71875 -78.875 C 26.5625 -78.875 26.484375 -78.644531 26.484375 -78.1875 Z M 26.484375 -17.859375 "/></g></g></g><g fill="#014b93" fill-opacity="1"><g transform="translate(337.903268, 100.639014)"><g/></g></g><g fill="#014b93" fill-opacity="1"><g transform="translate(401.612508, 100.639014)"><g/></g></g><g fill="#014b93" fill-opacity="1"><g transform="translate(465.356002, 100.639014)"><g><path d="M 89.96875 -96.15625 C 90.507812 -96.15625 91.207031 -95.9375 92.0625 -95.5 C 92.914062 -95.070312 93.34375 -93.96875 93.34375 -92.1875 L 93.34375 -83.078125 C 93.34375 -81.140625 92.914062 -79.953125 92.0625 -79.515625 C 91.207031 -79.085938 90.507812 -78.875 89.96875 -78.875 L 59.984375 -78.875 L 59.984375 -3.96875 C 59.984375 -2.175781 59.570312 -1.066406 58.75 -0.640625 C 57.9375 -0.210938 57.253906 0 56.703125 0 L 45.96875 0 C 45.507812 0 44.847656 -0.210938 43.984375 -0.640625 C 43.128906 -1.066406 42.703125 -2.175781 42.703125 -3.96875 L 42.703125 -78.875 L 12.71875 -78.875 C 12.175781 -78.875 11.472656 -79.085938 10.609375 -79.515625 C 9.753906 -79.953125 9.328125 -81.140625 9.328125 -83.078125 L 9.328125 -92.1875 C 9.328125 -93.96875 9.753906 -95.070312 10.609375 -95.5 C 11.472656 -95.9375 12.175781 -96.15625 12.71875 -96.15625 Z M 89.96875 -96.15625 "/></g></g></g><g fill="#014b93" fill-opacity="1"><g transform="translate(571.771778, 100.639014)"><g><path d="M 23.34375 -96.15625 C 23.800781 -96.15625 24.457031 -95.921875 25.3125 -95.453125 C 26.175781 -94.984375 26.609375 -93.851562 26.609375 -92.0625 L 26.609375 -3.96875 C 26.609375 -2.175781 26.175781 -1.046875 25.3125 -0.578125 C 24.457031 -0.117188 23.800781 0.109375 23.34375 0.109375 L 12.609375 0.109375 C 12.140625 0.109375 11.472656 -0.117188 10.609375 -0.578125 C 9.753906 -1.046875 9.328125 -2.175781 9.328125 -3.96875 L 9.328125 -92.0625 C 9.328125 -93.851562 9.753906 -94.984375 10.609375 -95.453125 C 11.472656 -95.921875 12.140625 -96.15625 12.609375 -96.15625 Z M 23.34375 -96.15625 "/></g></g></g><g fill="#014b93" fill-opacity="1"><g transform="translate(611.44396, 100.639014)"><g><path d="M 80.625 -96.15625 C 81.09375 -96.15625 81.753906 -95.921875 82.609375 -95.453125 C 83.460938 -94.984375 83.890625 -93.851562 83.890625 -92.0625 L 83.890625 -83.078125 C 83.890625 -81.210938 83.460938 -80.046875 82.609375 -79.578125 C 81.753906 -79.109375 81.09375 -78.875 80.625 -78.875 L 38.734375 -78.875 C 36.085938 -78.875 34.066406 -78.601562 32.671875 -78.0625 C 31.273438 -77.59375 30.109375 -76.738281 29.171875 -75.5 C 28.316406 -74.332031 27.65625 -72.617188 27.1875 -70.359375 C 27.03125 -69.273438 26.894531 -68.007812 26.78125 -66.5625 C 26.664062 -65.125 26.609375 -63.515625 26.609375 -61.734375 L 26.609375 -34.546875 C 26.609375 -32.828125 26.664062 -31.226562 26.78125 -29.75 C 26.894531 -28.269531 27.03125 -26.945312 27.1875 -25.78125 C 27.414062 -24.695312 27.6875 -23.726562 28 -22.875 C 28.3125 -22.019531 28.703125 -21.28125 29.171875 -20.65625 C 30.109375 -19.40625 31.273438 -18.550781 32.671875 -18.09375 C 34.066406 -17.539062 36.085938 -17.265625 38.734375 -17.265625 L 80.625 -17.265625 C 81.09375 -17.265625 81.753906 -17.03125 82.609375 -16.5625 C 83.460938 -16.101562 83.890625 -14.976562 83.890625 -13.1875 L 83.890625 -3.96875 C 83.890625 -2.175781 83.460938 -1.046875 82.609375 -0.578125 C 81.753906 -0.117188 81.09375 0.109375 80.625 0.109375 L 38.15625 0.109375 C 33.101562 0.109375 28.707031 -0.546875 24.96875 -1.859375 C 21.394531 -3.109375 18.398438 -5.25 15.984375 -8.28125 C 13.578125 -11.394531 11.867188 -15.207031 10.859375 -19.71875 C 10.304688 -22.050781 9.910156 -24.617188 9.671875 -27.421875 C 9.441406 -30.222656 9.328125 -33.253906 9.328125 -36.515625 L 9.328125 -59.625 C 9.328125 -62.8125 9.441406 -65.804688 9.671875 -68.609375 C 9.910156 -71.410156 10.304688 -73.941406 10.859375 -76.203125 C 11.867188 -80.867188 13.578125 -84.675781 15.984375 -87.625 C 18.242188 -90.582031 21.238281 -92.765625 24.96875 -94.171875 C 28.707031 -95.492188 33.101562 -96.15625 38.15625 -96.15625 Z M 80.625 -96.15625 "/></g></g></g><g fill="#014b93" fill-opacity="1"><g transform="translate(708.408288, 100.639014)"><g><path d="M 71.875 -85.296875 L 104.671875 -4.4375 C 105.140625 -3.34375 105.253906 -2.410156 105.015625 -1.640625 C 104.941406 -1.328125 104.726562 -0.957031 104.375 -0.53125 C 104.03125 -0.101562 103.390625 0.109375 102.453125 0.109375 L 89.96875 0.109375 C 88.332031 0.109375 87.203125 -0.742188 86.578125 -2.453125 L 57.640625 -74.6875 C 57.566406 -74.832031 57.53125 -74.90625 57.53125 -74.90625 L 57.0625 -74.90625 C 57.0625 -74.90625 57.039062 -74.882812 57 -74.84375 C 56.957031 -74.8125 56.898438 -74.71875 56.828125 -74.5625 L 41.890625 -36.75 L 56.359375 -36.75 C 57.992188 -36.75 59.125 -35.972656 59.75 -34.421875 L 63.9375 -24.03125 C 64.332031 -22.707031 64.179688 -21.582031 63.484375 -20.65625 C 62.859375 -19.5625 61.84375 -19.015625 60.4375 -19.015625 L 34.890625 -19.015625 L 28.234375 -2.328125 C 27.617188 -0.703125 26.53125 0.109375 24.96875 0.109375 L 12.140625 0.109375 C 11.203125 0.109375 10.554688 -0.101562 10.203125 -0.53125 C 9.859375 -0.957031 9.644531 -1.328125 9.5625 -1.640625 C 9.332031 -2.335938 9.410156 -3.269531 9.796875 -4.4375 L 42.359375 -85.296875 C 43.910156 -89.421875 45.617188 -92.257812 47.484375 -93.8125 C 47.722656 -93.96875 48 -94.160156 48.3125 -94.390625 C 48.625 -94.628906 48.929688 -94.828125 49.234375 -94.984375 C 51.578125 -96.617188 54.265625 -97.4375 57.296875 -97.4375 C 60.484375 -97.4375 63.359375 -96.460938 65.921875 -94.515625 C 68.492188 -92.566406 70.242188 -90.078125 71.171875 -87.046875 C 71.328125 -86.816406 71.460938 -86.546875 71.578125 -86.234375 C 71.703125 -85.921875 71.800781 -85.609375 71.875 -85.296875 Z M 71.875 -85.296875 "/></g></g></g><g fill="#014b93" fill-opacity="1"><g transform="translate(826.725925, 100.639014)"><g/></g></g><g fill="#014b93" fill-opacity="1"><g transform="translate(890.435164, 100.639014)"><g><path d="M 76.890625 -97.78125 C 84.046875 -97.78125 89.257812 -95.679688 92.53125 -91.484375 C 95.957031 -87.203125 97.671875 -81.71875 97.671875 -75.03125 L 97.671875 -65.234375 C 97.671875 -57.609375 95.921875 -51.691406 92.421875 -47.484375 C 88.992188 -43.367188 83.894531 -41.3125 77.125 -41.3125 L 32.671875 -41.3125 C 28.628906 -41.3125 26.609375 -38.664062 26.609375 -33.375 L 26.609375 -20.0625 C 26.609375 -18.125 27.382812 -17.15625 28.9375 -17.15625 L 94.859375 -17.15625 C 96.648438 -17.15625 97.546875 -16.101562 97.546875 -14 L 97.546875 -3.03125 C 97.546875 -0.9375 96.648438 0.109375 94.859375 0.109375 L 20.1875 0.109375 C 16.300781 0.109375 13.5 -0.859375 11.78125 -2.796875 C 10.144531 -4.660156 9.328125 -7.65625 9.328125 -11.78125 L 9.328125 -33.375 C 9.328125 -41.226562 11.039062 -47.140625 14.46875 -51.109375 C 17.894531 -55.304688 22.988281 -57.40625 29.75 -57.40625 L 74.21875 -57.40625 C 78.257812 -57.40625 80.28125 -60.015625 80.28125 -65.234375 L 80.28125 -72.703125 C 80.28125 -75.191406 79.8125 -77.132812 78.875 -78.53125 C 77.945312 -79.925781 76.351562 -80.625 74.09375 -80.625 L 21.359375 -80.625 C 19.640625 -80.625 18.78125 -81.675781 18.78125 -83.78125 L 18.78125 -94.640625 C 18.78125 -96.734375 19.640625 -97.78125 21.359375 -97.78125 Z M 76.890625 -97.78125 "/></g></g></g><g fill="#014b93" fill-opacity="1"><g transform="translate(1001.168299, 100.639014)"><g><path d="M 96.5 -43.765625 C 97.195312 -40.878906 97.546875 -37.53125 97.546875 -33.71875 L 97.546875 -23.578125 C 97.546875 -15.953125 95.953125 -10.15625 92.765625 -6.1875 C 89.492188 -1.988281 84.007812 0.109375 76.3125 0.109375 L 42.125 0.109375 C 36.289062 0.109375 31.273438 -0.546875 27.078125 -1.859375 C 24.972656 -2.484375 23.082031 -3.335938 21.40625 -4.421875 C 19.738281 -5.515625 18.242188 -6.800781 16.921875 -8.28125 C 14.273438 -11.3125 12.367188 -15.125 11.203125 -19.71875 C 10.660156 -22.050781 10.210938 -24.65625 9.859375 -27.53125 C 9.503906 -30.414062 9.328125 -33.53125 9.328125 -36.875 L 9.328125 -60.90625 C 9.328125 -64.25 9.503906 -67.34375 9.859375 -70.1875 C 10.210938 -73.03125 10.660156 -75.617188 11.203125 -77.953125 C 11.828125 -80.285156 12.625 -82.382812 13.59375 -84.25 C 14.5625 -86.113281 15.671875 -87.785156 16.921875 -89.265625 C 18.242188 -90.742188 19.738281 -92.023438 21.40625 -93.109375 C 23.082031 -94.203125 24.972656 -95.0625 27.078125 -95.6875 C 31.191406 -97.082031 36.207031 -97.78125 42.125 -97.78125 L 85.421875 -97.78125 C 87.128906 -97.78125 87.984375 -96.734375 87.984375 -94.640625 L 87.984375 -83.671875 C 87.984375 -81.640625 87.128906 -80.625 85.421875 -80.625 L 42.125 -80.625 C 39.25 -80.625 36.757812 -80.316406 34.65625 -79.703125 C 32.632812 -79.148438 31.039062 -78.097656 29.875 -76.546875 C 28.707031 -74.992188 27.890625 -73.050781 27.421875 -70.71875 C 26.953125 -68.300781 26.71875 -65.226562 26.71875 -61.5 L 26.71875 -36.0625 C 26.71875 -32.476562 26.953125 -29.40625 27.421875 -26.84375 C 27.890625 -24.351562 28.707031 -22.40625 29.875 -21 C 31.113281 -19.519531 32.707031 -18.507812 34.65625 -17.96875 C 36.757812 -17.34375 39.25 -17.03125 42.125 -17.03125 L 73.515625 -17.03125 C 75.921875 -17.03125 77.671875 -17.691406 78.765625 -19.015625 C 79.847656 -20.335938 80.390625 -22.476562 80.390625 -25.4375 L 80.390625 -33.71875 C 80.390625 -36.675781 79.882812 -38.78125 78.875 -40.03125 C 77.789062 -41.34375 76.039062 -42 73.625 -42 L 43.640625 -42 C 42.859375 -42 42.175781 -42.269531 41.59375 -42.8125 C 41.007812 -43.363281 40.71875 -44.03125 40.71875 -44.8125 L 40.71875 -54.5 C 40.71875 -55.351562 41.007812 -56.050781 41.59375 -56.59375 C 42.175781 -57.132812 42.859375 -57.40625 43.640625 -57.40625 L 77.125 -57.40625 C 80.707031 -57.40625 83.898438 -56.863281 86.703125 -55.78125 C 89.191406 -54.769531 91.289062 -53.210938 93 -51.109375 C 94.632812 -49.160156 95.800781 -46.710938 96.5 -43.765625 Z M 96.5 -43.765625 "/></g></g></g></g></g></g><g clip-path="url(#60c6ca4120)"><g clip-path="url(#1b442c0b0b)"><g transform="matrix(1, 0, 0, 1, 2, 155)"><g clip-path="url(#5289697345)"><g clip-path="url(#ccb82c628f)"><g clip-path="url(#8d31c2953e)"><path fill="#c9042d" d="M 0.886719 0.71875 L 1100.957031 0.71875 L 1100.957031 91.417969 L 0.886719 91.417969 Z M 0.886719 0.71875 " fill-opacity="1" fill-rule="nonzero"/></g></g></g></g></g></g><g transform="matrix(1, 0, 0, 1, 818, 49)"><g clip-path="url(#f3c6207c0f)"><g fill="#000000" fill-opacity="1"><g transform="translate(0.165202, 98.189535)"><g><path d="M 14.164062 -47.589844 C 11.8125 -47.589844 9.9375 -48.34375 8.542969 -49.851562 C 7.230469 -51.265625 6.578125 -53.132812 6.578125 -55.445312 L 6.578125 -63.273438 C 6.578125 -65.585938 7.230469 -67.453125 8.542969 -68.867188 C 9.9375 -70.375 11.8125 -71.128906 14.164062 -71.128906 L 55.582031 -71.128906 C 57.933594 -71.128906 59.808594 -70.375 61.207031 -68.867188 C 62.515625 -67.453125 63.171875 -65.585938 63.171875 -63.273438 L 63.171875 -55.445312 C 63.171875 -53.132812 62.515625 -51.265625 61.207031 -49.851562 C 59.808594 -48.34375 57.933594 -47.589844 55.582031 -47.589844 Z M 14.164062 -56.019531 L 55.582031 -56.019531 C 55.648438 -56.019531 55.695312 -56.023438 55.730469 -56.027344 C 55.707031 -56.023438 55.675781 -56.015625 55.628906 -56 C 55.40625 -55.917969 55.203125 -55.777344 55.019531 -55.578125 C 54.863281 -55.414062 54.761719 -55.253906 54.714844 -55.097656 C 54.730469 -55.148438 54.738281 -55.265625 54.738281 -55.445312 L 54.738281 -63.273438 C 54.738281 -63.453125 54.730469 -63.570312 54.714844 -63.621094 C 54.761719 -63.464844 54.863281 -63.304688 55.019531 -63.140625 C 55.203125 -62.941406 55.40625 -62.800781 55.628906 -62.71875 C 55.675781 -62.703125 55.707031 -62.695312 55.730469 -62.691406 C 55.695312 -62.695312 55.648438 -62.699219 55.582031 -62.699219 L 14.164062 -62.699219 C 14.101562 -62.699219 14.050781 -62.695312 14.019531 -62.691406 C 14.039062 -62.695312 14.074219 -62.703125 14.117188 -62.71875 C 14.339844 -62.800781 14.546875 -62.941406 14.730469 -63.140625 C 14.882812 -63.304688 14.984375 -63.464844 15.03125 -63.621094 C 15.015625 -63.570312 15.007812 -63.453125 15.007812 -63.273438 L 15.007812 -55.445312 C 15.007812 -55.265625 15.015625 -55.148438 15.03125 -55.097656 C 14.984375 -55.253906 14.882812 -55.414062 14.730469 -55.578125 C 14.546875 -55.777344 14.339844 -55.917969 14.117188 -56 C 14.074219 -56.015625 14.039062 -56.023438 14.019531 -56.027344 C 14.050781 -56.023438 14.101562 -56.019531 14.164062 -56.019531 Z M 14.164062 -56.019531 "/></g></g></g><g fill="#c9042d" fill-opacity="1"><g transform="translate(0.165202, 98.189535)"><g><path d="M 14.171875 -51.796875 C 11.921875 -51.796875 10.796875 -53.015625 10.796875 -55.453125 L 10.796875 -63.265625 C 10.796875 -65.691406 11.921875 -66.90625 14.171875 -66.90625 L 55.578125 -66.90625 C 57.828125 -66.90625 58.953125 -65.691406 58.953125 -63.265625 L 58.953125 -55.453125 C 58.953125 -53.015625 57.828125 -51.796875 55.578125 -51.796875 Z M 14.171875 -51.796875 "/></g></g></g></g></g><path fill="#c9042d" d="M 1115.847656 24.734375 L 1115.847656 39.4375 L 1110.226562 39.4375 L 1110.226562 24.734375 L 1106.21875 24.734375 L 1106.21875 20.101562 L 1119.855469 20.101562 L 1119.855469 24.734375 L 1115.847656 24.734375 " fill-opacity="1" fill-rule="nonzero"/><path fill="#c9042d" d="M 1142.5625 20.101562 L 1142.5625 39.4375 L 1137.050781 39.4375 L 1137.050781 25.613281 L 1133.472656 39.4375 L 1129.707031 39.4375 L 1125.988281 25.613281 L 1125.988281 39.4375 L 1121.542969 39.4375 L 1121.542969 20.101562 L 1129.296875 20.101562 L 1132.101562 30.371094 L 1134.777344 20.101562 L 1142.5625 20.101562 " fill-opacity="1" fill-rule="nonzero"/><g clip-path="url(#2d7d8b2d16)"><path fill="#c9042d" d="M 1124.390625 5.34375 C 1110.917969 5.34375 1099.957031 16.304688 1099.957031 29.777344 C 1099.957031 43.25 1110.917969 54.210938 1124.390625 54.210938 C 1137.863281 54.210938 1148.824219 43.25 1148.824219 29.777344 C 1148.824219 16.304688 1137.863281 5.34375 1124.390625 5.34375 Z M 1124.390625 58.972656 C 1120.449219 58.972656 1116.625 58.199219 1113.023438 56.675781 C 1109.546875 55.207031 1106.425781 53.101562 1103.746094 50.421875 C 1101.066406 47.742188 1098.960938 44.617188 1097.492188 41.140625 C 1095.96875 37.542969 1095.195312 33.71875 1095.195312 29.777344 C 1095.195312 25.835938 1095.96875 22.015625 1097.492188 18.414062 C 1098.960938 14.9375 1101.066406 11.816406 1103.746094 9.132812 C 1106.425781 6.453125 1109.546875 4.347656 1113.023438 2.878906 C 1116.625 1.355469 1120.449219 0.582031 1124.390625 0.582031 C 1128.328125 0.582031 1132.152344 1.355469 1135.753906 2.878906 C 1139.230469 4.347656 1142.351562 6.453125 1145.03125 9.132812 C 1147.710938 11.816406 1149.816406 14.9375 1151.289062 18.414062 C 1152.8125 22.015625 1153.582031 25.835938 1153.582031 29.777344 C 1153.582031 33.71875 1152.8125 37.542969 1151.289062 41.140625 C 1149.816406 44.617188 1147.710938 47.742188 1145.03125 50.421875 C 1142.351562 53.101562 1139.230469 55.207031 1135.753906 56.675781 C 1132.152344 58.199219 1128.328125 58.972656 1124.390625 58.972656 " fill-opacity="1" fill-rule="nonzero"/></g><g transform="matrix(1, 0, 0, 1, 34, 177)"><g clip-path="url(#3a67d937c1)"><g fill="#ffffff" fill-opacity="1"><g transform="translate(3.700203, 33.686385)"><g><path d="M 0.375 -25.65625 L 21.09375 -25.65625 L 7.203125 0 L 0.671875 0 L 12.34375 -20.453125 L 0.375 -20.453125 Z M 0.375 -25.65625 "/></g></g></g><g fill="#ffffff" fill-opacity="1"><g transform="translate(28.006012, 33.686385)"><g/></g></g><g fill="#ffffff" fill-opacity="1"><g transform="translate(41.017821, 33.686385)"><g/></g></g><g fill="#ffffff" fill-opacity="1"><g transform="translate(54.029631, 33.686385)"><g/></g></g><g fill="#ffffff" fill-opacity="1"><g transform="translate(67.084257, 33.686385)"><g><path d="M 7.921875 0 L 2.265625 0 L 2.265625 -25.65625 L 7.921875 -25.65625 Z M 7.921875 0 "/></g></g></g><g fill="#ffffff" fill-opacity="1"><g transform="translate(80.850128, 33.686385)"><g><path d="M 22.421875 0 L 16.75 0 L 7.921875 -16 L 7.921875 0 L 2.265625 0 L 2.265625 -25.65625 L 7.921875 -25.65625 L 16.75 -9.65625 L 16.75 -25.65625 L 22.421875 -25.65625 Z M 22.421875 0 "/></g></g></g><g fill="#ffffff" fill-opacity="1"><g transform="translate(109.094459, 33.686385)"><g><path d="M 13.171875 -20.53125 L 13.171875 0 L 7.515625 0 L 7.515625 -20.53125 L 0.1875 -20.53125 L 0.1875 -25.65625 L 20.484375 -25.65625 L 20.484375 -20.53125 Z M 13.171875 -20.53125 "/></g></g></g><g fill="#ffffff" fill-opacity="1"><g transform="translate(133.342144, 33.686385)"><g><path d="M 17.125 -5.125 L 17.125 0 L 2.265625 0 L 2.265625 -25.65625 L 17.125 -25.65625 L 17.125 -20.53125 L 7.921875 -20.53125 L 7.921875 -15.4375 L 16.75 -15.4375 L 16.75 -10.296875 L 7.921875 -10.296875 L 7.921875 -5.125 Z M 17.125 -5.125 "/></g></g></g><g fill="#ffffff" fill-opacity="1"><g transform="translate(156.307868, 33.686385)"><g><path d="M 7.921875 -9.171875 L 7.921875 0 L 2.265625 0 L 2.265625 -25.65625 L 11.890625 -25.65625 C 13.273438 -25.65625 14.5625 -25.304688 15.75 -24.609375 C 16.945312 -23.921875 17.910156 -22.960938 18.640625 -21.734375 C 19.367188 -20.503906 19.734375 -19.070312 19.734375 -17.4375 C 19.734375 -16 19.46875 -14.726562 18.9375 -13.625 C 18.414062 -12.519531 17.710938 -11.613281 16.828125 -10.90625 C 15.953125 -10.195312 14.972656 -9.707031 13.890625 -9.4375 L 21.25 0 L 14.078125 0 L 7.96875 -9.171875 Z M 10.9375 -21.203125 L 7.921875 -21.203125 L 7.921875 -13.625 L 10.9375 -13.625 C 11.769531 -13.625 12.546875 -13.945312 13.265625 -14.59375 C 13.984375 -15.25 14.34375 -16.195312 14.34375 -17.4375 C 14.34375 -18.613281 13.984375 -19.535156 13.265625 -20.203125 C 12.546875 -20.867188 11.769531 -21.203125 10.9375 -21.203125 Z M 10.9375 -21.203125 "/></g></g></g><g fill="#ffffff" fill-opacity="1"><g transform="translate(180.668656, 33.686385)"><g><path d="M 22.421875 0 L 16.75 0 L 7.921875 -16 L 7.921875 0 L 2.265625 0 L 2.265625 -25.65625 L 7.921875 -25.65625 L 16.75 -9.65625 L 16.75 -25.65625 L 22.421875 -25.65625 Z M 22.421875 0 "/></g></g></g><g fill="#ffffff" fill-opacity="1"><g transform="translate(208.912987, 33.686385)"><g><path d="M 16.21875 -9.8125 L 12.984375 -18.9375 L 9.734375 -9.8125 Z M 25.8125 0 L 19.734375 0 L 17.890625 -5.171875 L 8.109375 -5.171875 L 6.265625 0 L 0.1875 0 L 10.609375 -25.65625 L 15.390625 -25.65625 Z M 25.8125 0 "/></g></g></g><g fill="#ffffff" fill-opacity="1"><g transform="translate(238.47698, 33.686385)"><g><path d="M 13.171875 -20.53125 L 13.171875 0 L 7.515625 0 L 7.515625 -20.53125 L 0.1875 -20.53125 L 0.1875 -25.65625 L 20.484375 -25.65625 L 20.484375 -20.53125 Z M 13.171875 -20.53125 "/></g></g></g><g fill="#ffffff" fill-opacity="1"><g transform="translate(262.724665, 33.686385)"><g><path d="M 7.921875 0 L 2.265625 0 L 2.265625 -25.65625 L 7.921875 -25.65625 Z M 7.921875 0 "/></g></g></g><g fill="#ffffff" fill-opacity="1"><g transform="translate(276.490537, 33.686385)"><g><path d="M 22.078125 -12.875 C 22.078125 -14.207031 21.722656 -15.441406 21.015625 -16.578125 C 20.316406 -17.722656 19.394531 -18.648438 18.25 -19.359375 C 17.101562 -20.066406 15.863281 -20.421875 14.53125 -20.421875 C 13.21875 -20.421875 11.984375 -20.066406 10.828125 -19.359375 C 9.671875 -18.648438 8.738281 -17.722656 8.03125 -16.578125 C 7.332031 -15.441406 6.984375 -14.207031 6.984375 -12.875 C 6.984375 -11.5625 7.332031 -10.328125 8.03125 -9.171875 C 8.738281 -8.015625 9.671875 -7.078125 10.828125 -6.359375 C 11.984375 -5.640625 13.21875 -5.28125 14.53125 -5.28125 C 15.863281 -5.28125 17.101562 -5.640625 18.25 -6.359375 C 19.394531 -7.078125 20.316406 -8.015625 21.015625 -9.171875 C 21.722656 -10.328125 22.078125 -11.5625 22.078125 -12.875 Z M 27.734375 -12.828125 C 27.734375 -11.066406 27.378906 -9.382812 26.671875 -7.78125 C 25.972656 -6.1875 25.015625 -4.78125 23.796875 -3.5625 C 22.578125 -2.34375 21.171875 -1.378906 19.578125 -0.671875 C 17.992188 0.0234375 16.3125 0.375 14.53125 0.375 C 12.769531 0.375 11.085938 0.0234375 9.484375 -0.671875 C 7.890625 -1.378906 6.484375 -2.34375 5.265625 -3.5625 C 4.046875 -4.78125 3.082031 -6.1875 2.375 -7.78125 C 1.675781 -9.382812 1.328125 -11.066406 1.328125 -12.828125 C 1.328125 -14.617188 1.675781 -16.304688 2.375 -17.890625 C 3.082031 -19.472656 4.046875 -20.875 5.265625 -22.09375 C 6.484375 -23.3125 7.890625 -24.269531 9.484375 -24.96875 C 11.085938 -25.675781 12.769531 -26.03125 14.53125 -26.03125 C 16.3125 -26.03125 17.992188 -25.675781 19.578125 -24.96875 C 21.171875 -24.269531 22.578125 -23.3125 23.796875 -22.09375 C 25.015625 -20.875 25.972656 -19.472656 26.671875 -17.890625 C 27.378906 -16.304688 27.734375 -14.617188 27.734375 -12.828125 Z M 27.734375 -12.828125 "/></g></g></g><g fill="#ffffff" fill-opacity="1"><g transform="translate(309.108567, 33.686385)"><g><path d="M 22.421875 0 L 16.75 0 L 7.921875 -16 L 7.921875 0 L 2.265625 0 L 2.265625 -25.65625 L 7.921875 -25.65625 L 16.75 -9.65625 L 16.75 -25.65625 L 22.421875 -25.65625 Z M 22.421875 0 "/></g></g></g><g fill="#ffffff" fill-opacity="1"><g transform="translate(337.352898, 33.686385)"><g><path d="M 16.21875 -9.8125 L 12.984375 -18.9375 L 9.734375 -9.8125 Z M 25.8125 0 L 19.734375 0 L 17.890625 -5.171875 L 8.109375 -5.171875 L 6.265625 0 L 0.1875 0 L 10.609375 -25.65625 L 15.390625 -25.65625 Z M 25.8125 0 "/></g></g></g><g fill="#ffffff" fill-opacity="1"><g transform="translate(366.916891, 33.686385)"><g><path d="M 2.265625 0 L 2.265625 -25.65625 L 7.921875 -25.65625 L 7.921875 -5.125 L 17.125 -5.125 L 17.125 0 Z M 2.265625 0 "/></g></g></g><g fill="#ffffff" fill-opacity="1"><g transform="translate(388.940005, 33.686385)"><g/></g></g><g fill="#ffffff" fill-opacity="1"><g transform="translate(401.951814, 33.686385)"><g><path d="M 2.265625 0 L 2.265625 -25.65625 L 7.921875 -25.65625 L 7.921875 -5.125 L 17.125 -5.125 L 17.125 0 Z M 2.265625 0 "/></g></g></g><g fill="#ffffff" fill-opacity="1"><g transform="translate(423.974928, 33.686385)"><g><path d="M 17.125 -5.125 L 17.125 0 L 2.265625 0 L 2.265625 -25.65625 L 17.125 -25.65625 L 17.125 -20.53125 L 7.921875 -20.53125 L 7.921875 -15.4375 L 16.75 -15.4375 L 16.75 -10.296875 L 7.921875 -10.296875 L 7.921875 -5.125 Z M 17.125 -5.125 "/></g></g></g><g fill="#ffffff" fill-opacity="1"><g transform="translate(446.940651, 33.686385)"><g><path d="M 25.8125 -25.65625 L 15.4375 0 L 10.5625 0 L 0.1875 -25.65625 L 6.296875 -25.65625 L 11.578125 -11.25 L 12.984375 -7.203125 L 14.375 -11.25 L 19.703125 -25.65625 Z M 25.8125 -25.65625 "/></g></g></g><g fill="#ffffff" fill-opacity="1"><g transform="translate(476.504645, 33.686385)"><g><path d="M 17.125 -5.125 L 17.125 0 L 2.265625 0 L 2.265625 -25.65625 L 17.125 -25.65625 L 17.125 -20.53125 L 7.921875 -20.53125 L 7.921875 -15.4375 L 16.75 -15.4375 L 16.75 -10.296875 L 7.921875 -10.296875 L 7.921875 -5.125 Z M 17.125 -5.125 "/></g></g></g><g fill="#ffffff" fill-opacity="1"><g transform="translate(499.470368, 33.686385)"><g><path d="M 2.265625 0 L 2.265625 -25.65625 L 7.921875 -25.65625 L 7.921875 -5.125 L 17.125 -5.125 L 17.125 0 Z M 2.265625 0 "/></g></g></g><g fill="#ffffff" fill-opacity="1"><g transform="translate(521.493482, 33.686385)"><g/></g></g><g fill="#ffffff" fill-opacity="1"><g transform="translate(534.505291, 33.686385)"><g><path d="M 7.921875 -9.171875 L 7.921875 0 L 2.265625 0 L 2.265625 -25.65625 L 11.890625 -25.65625 C 13.273438 -25.65625 14.5625 -25.304688 15.75 -24.609375 C 16.945312 -23.921875 17.910156 -22.960938 18.640625 -21.734375 C 19.367188 -20.503906 19.734375 -19.070312 19.734375 -17.4375 C 19.734375 -16 19.46875 -14.726562 18.9375 -13.625 C 18.414062 -12.519531 17.710938 -11.613281 16.828125 -10.90625 C 15.953125 -10.195312 14.972656 -9.707031 13.890625 -9.4375 L 21.25 0 L 14.078125 0 L 7.96875 -9.171875 Z M 10.9375 -21.203125 L 7.921875 -21.203125 L 7.921875 -13.625 L 10.9375 -13.625 C 11.769531 -13.625 12.546875 -13.945312 13.265625 -14.59375 C 13.984375 -15.25 14.34375 -16.195312 14.34375 -17.4375 C 14.34375 -18.613281 13.984375 -19.535156 13.265625 -20.203125 C 12.546875 -20.867188 11.769531 -21.203125 10.9375 -21.203125 Z M 10.9375 -21.203125 "/></g></g></g><g fill="#ffffff" fill-opacity="1"><g transform="translate(558.866079, 33.686385)"><g><path d="M 22.078125 -12.875 C 22.078125 -14.207031 21.722656 -15.441406 21.015625 -16.578125 C 20.316406 -17.722656 19.394531 -18.648438 18.25 -19.359375 C 17.101562 -20.066406 15.863281 -20.421875 14.53125 -20.421875 C 13.21875 -20.421875 11.984375 -20.066406 10.828125 -19.359375 C 9.671875 -18.648438 8.738281 -17.722656 8.03125 -16.578125 C 7.332031 -15.441406 6.984375 -14.207031 6.984375 -12.875 C 6.984375 -11.5625 7.332031 -10.328125 8.03125 -9.171875 C 8.738281 -8.015625 9.671875 -7.078125 10.828125 -6.359375 C 11.984375 -5.640625 13.21875 -5.28125 14.53125 -5.28125 C 15.863281 -5.28125 17.101562 -5.640625 18.25 -6.359375 C 19.394531 -7.078125 20.316406 -8.015625 21.015625 -9.171875 C 21.722656 -10.328125 22.078125 -11.5625 22.078125 -12.875 Z M 27.734375 -12.828125 C 27.734375 -11.066406 27.378906 -9.382812 26.671875 -7.78125 C 25.972656 -6.1875 25.015625 -4.78125 23.796875 -3.5625 C 22.578125 -2.34375 21.171875 -1.378906 19.578125 -0.671875 C 17.992188 0.0234375 16.3125 0.375 14.53125 0.375 C 12.769531 0.375 11.085938 0.0234375 9.484375 -0.671875 C 7.890625 -1.378906 6.484375 -2.34375 5.265625 -3.5625 C 4.046875 -4.78125 3.082031 -6.1875 2.375 -7.78125 C 1.675781 -9.382812 1.328125 -11.066406 1.328125 -12.828125 C 1.328125 -14.617188 1.675781 -16.304688 2.375 -17.890625 C 3.082031 -19.472656 4.046875 -20.875 5.265625 -22.09375 C 6.484375 -23.3125 7.890625 -24.269531 9.484375 -24.96875 C 11.085938 -25.675781 12.769531 -26.03125 14.53125 -26.03125 C 16.3125 -26.03125 17.992188 -25.675781 19.578125 -24.96875 C 21.171875 -24.269531 22.578125 -23.3125 23.796875 -22.09375 C 25.015625 -20.875 25.972656 -19.472656 26.671875 -17.890625 C 27.378906 -16.304688 27.734375 -14.617188 27.734375 -12.828125 Z M 27.734375 -12.828125 "/></g></g></g><g fill="#ffffff" fill-opacity="1"><g transform="translate(591.484109, 33.686385)"><g><path d="M 14.640625 -7.515625 C 14.640625 -8.335938 14.332031 -9.054688 13.71875 -9.671875 C 13.101562 -10.296875 12.367188 -10.609375 11.515625 -10.609375 L 7.921875 -10.609375 L 7.921875 -4.421875 L 11.515625 -4.421875 C 12.367188 -4.421875 13.101562 -4.71875 13.71875 -5.3125 C 14.332031 -5.914062 14.640625 -6.648438 14.640625 -7.515625 Z M 12.875 -18.21875 C 12.875 -19.050781 12.578125 -19.753906 11.984375 -20.328125 C 11.390625 -20.910156 10.691406 -21.203125 9.890625 -21.203125 L 7.921875 -21.203125 L 7.921875 -15.25 L 9.890625 -15.25 C 10.691406 -15.25 11.390625 -15.539062 11.984375 -16.125 C 12.578125 -16.71875 12.875 -17.414062 12.875 -18.21875 Z M 20.421875 -7.359375 C 20.421875 -5.140625 19.738281 -3.359375 18.375 -2.015625 C 17.019531 -0.671875 15.109375 0 12.640625 0 L 2.265625 0 L 2.265625 -25.65625 L 11.09375 -25.65625 C 12.550781 -25.65625 13.8125 -25.363281 14.875 -24.78125 C 15.945312 -24.207031 16.78125 -23.4375 17.375 -22.46875 C 17.96875 -21.5 18.265625 -20.425781 18.265625 -19.25 C 18.265625 -17.9375 17.992188 -16.804688 17.453125 -15.859375 C 16.910156 -14.921875 16.160156 -14.238281 15.203125 -13.8125 C 16.640625 -13.476562 17.867188 -12.753906 18.890625 -11.640625 C 19.910156 -10.523438 20.421875 -9.097656 20.421875 -7.359375 Z M 20.421875 -7.359375 "/></g></g></g><g fill="#ffffff" fill-opacity="1"><g transform="translate(615.844897, 33.686385)"><g><path d="M 22.078125 -12.875 C 22.078125 -14.207031 21.722656 -15.441406 21.015625 -16.578125 C 20.316406 -17.722656 19.394531 -18.648438 18.25 -19.359375 C 17.101562 -20.066406 15.863281 -20.421875 14.53125 -20.421875 C 13.21875 -20.421875 11.984375 -20.066406 10.828125 -19.359375 C 9.671875 -18.648438 8.738281 -17.722656 8.03125 -16.578125 C 7.332031 -15.441406 6.984375 -14.207031 6.984375 -12.875 C 6.984375 -11.5625 7.332031 -10.328125 8.03125 -9.171875 C 8.738281 -8.015625 9.671875 -7.078125 10.828125 -6.359375 C 11.984375 -5.640625 13.21875 -5.28125 14.53125 -5.28125 C 15.863281 -5.28125 17.101562 -5.640625 18.25 -6.359375 C 19.394531 -7.078125 20.316406 -8.015625 21.015625 -9.171875 C 21.722656 -10.328125 22.078125 -11.5625 22.078125 -12.875 Z M 27.734375 -12.828125 C 27.734375 -11.066406 27.378906 -9.382812 26.671875 -7.78125 C 25.972656 -6.1875 25.015625 -4.78125 23.796875 -3.5625 C 22.578125 -2.34375 21.171875 -1.378906 19.578125 -0.671875 C 17.992188 0.0234375 16.3125 0.375 14.53125 0.375 C 12.769531 0.375 11.085938 0.0234375 9.484375 -0.671875 C 7.890625 -1.378906 6.484375 -2.34375 5.265625 -3.5625 C 4.046875 -4.78125 3.082031 -6.1875 2.375 -7.78125 C 1.675781 -9.382812 1.328125 -11.066406 1.328125 -12.828125 C 1.328125 -14.617188 1.675781 -16.304688 2.375 -17.890625 C 3.082031 -19.472656 4.046875 -20.875 5.265625 -22.09375 C 6.484375 -23.3125 7.890625 -24.269531 9.484375 -24.96875 C 11.085938 -25.675781 12.769531 -26.03125 14.53125 -26.03125 C 16.3125 -26.03125 17.992188 -25.675781 19.578125 -24.96875 C 21.171875 -24.269531 22.578125 -23.3125 23.796875 -22.09375 C 25.015625 -20.875 25.972656 -19.472656 26.671875 -17.890625 C 27.378906 -16.304688 27.734375 -14.617188 27.734375 -12.828125 Z M 27.734375 -12.828125 "/></g></g></g><g fill="#ffffff" fill-opacity="1"><g transform="translate(648.462927, 33.686385)"><g><path d="M 13.171875 -20.53125 L 13.171875 0 L 7.515625 0 L 7.515625 -20.53125 L 0.1875 -20.53125 L 0.1875 -25.65625 L 20.484375 -25.65625 L 20.484375 -20.53125 Z M 13.171875 -20.53125 "/></g></g></g><g fill="#ffffff" fill-opacity="1"><g transform="translate(672.710611, 33.686385)"><g><path d="M 7.921875 0 L 2.265625 0 L 2.265625 -25.65625 L 7.921875 -25.65625 Z M 7.921875 0 "/></g></g></g><g fill="#ffffff" fill-opacity="1"><g transform="translate(686.476483, 33.686385)"><g><path d="M 20.796875 -8.71875 L 27.09375 -8.71875 C 26.507812 -6.957031 25.601562 -5.390625 24.375 -4.015625 C 23.144531 -2.648438 21.6875 -1.578125 20 -0.796875 C 18.3125 -0.015625 16.488281 0.375 14.53125 0.375 C 12.71875 0.375 11.007812 0.0351562 9.40625 -0.640625 C 7.8125 -1.316406 6.40625 -2.265625 5.1875 -3.484375 C 3.96875 -4.710938 3.019531 -6.125 2.34375 -7.71875 C 1.664062 -9.3125 1.328125 -11.015625 1.328125 -12.828125 C 1.328125 -14.640625 1.664062 -16.34375 2.34375 -17.9375 C 3.019531 -19.539062 3.96875 -20.953125 5.1875 -22.171875 C 6.40625 -23.390625 7.8125 -24.335938 9.40625 -25.015625 C 11.007812 -25.691406 12.71875 -26.03125 14.53125 -26.03125 C 16.488281 -26.03125 18.300781 -25.640625 19.96875 -24.859375 C 21.644531 -24.085938 23.097656 -23.023438 24.328125 -21.671875 C 25.566406 -20.328125 26.476562 -18.773438 27.0625 -17.015625 L 20.75 -17.015625 C 20.226562 -18.171875 19.382812 -19.082031 18.21875 -19.75 C 17.0625 -20.414062 15.832031 -20.75 14.53125 -20.75 C 13.144531 -20.75 11.882812 -20.390625 10.75 -19.671875 C 9.625 -18.960938 8.726562 -18.007812 8.0625 -16.8125 C 7.394531 -15.613281 7.0625 -14.285156 7.0625 -12.828125 C 7.0625 -11.367188 7.394531 -10.039062 8.0625 -8.84375 C 8.726562 -7.65625 9.625 -6.703125 10.75 -5.984375 C 11.882812 -5.265625 13.144531 -4.90625 14.53125 -4.90625 C 15.863281 -4.90625 17.109375 -5.253906 18.265625 -5.953125 C 19.421875 -6.660156 20.265625 -7.582031 20.796875 -8.71875 Z M 20.796875 -8.71875 "/></g></g></g><g fill="#ffffff" fill-opacity="1"><g transform="translate(718.076501, 33.686385)"><g><path d="M 12.21875 -4 C 12.820312 -4 13.476562 -4.09375 14.1875 -4.28125 C 14.894531 -4.46875 15.503906 -4.78125 16.015625 -5.21875 C 16.535156 -5.664062 16.796875 -6.265625 16.796875 -7.015625 C 16.796875 -7.722656 16.523438 -8.289062 15.984375 -8.71875 C 15.441406 -9.144531 14.726562 -9.492188 13.84375 -9.765625 C 12.96875 -10.046875 12.003906 -10.304688 10.953125 -10.546875 C 9.910156 -10.785156 8.859375 -11.070312 7.796875 -11.40625 C 6.742188 -11.75 5.773438 -12.195312 4.890625 -12.75 C 4.015625 -13.300781 3.304688 -14.015625 2.765625 -14.890625 C 2.234375 -15.773438 1.96875 -16.898438 1.96875 -18.265625 C 1.96875 -19.597656 2.242188 -20.75 2.796875 -21.71875 C 3.347656 -22.6875 4.082031 -23.488281 5 -24.125 C 5.914062 -24.769531 6.945312 -25.25 8.09375 -25.5625 C 9.238281 -25.875 10.390625 -26.03125 11.546875 -26.03125 C 13.304688 -26.03125 14.953125 -25.753906 16.484375 -25.203125 C 18.023438 -24.648438 19.28125 -23.773438 20.25 -22.578125 C 21.21875 -21.390625 21.722656 -19.8125 21.765625 -17.84375 L 16.296875 -17.84375 C 16.148438 -19.175781 15.6875 -20.097656 14.90625 -20.609375 C 14.125 -21.128906 13.03125 -21.390625 11.625 -21.390625 C 11.09375 -21.390625 10.53125 -21.300781 9.9375 -21.125 C 9.351562 -20.945312 8.851562 -20.664062 8.4375 -20.28125 C 8.019531 -19.894531 7.8125 -19.375 7.8125 -18.71875 C 7.8125 -18.0625 8.082031 -17.546875 8.625 -17.171875 C 9.164062 -16.796875 9.875 -16.476562 10.75 -16.21875 C 11.632812 -15.96875 12.601562 -15.726562 13.65625 -15.5 C 14.71875 -15.28125 15.769531 -15.003906 16.8125 -14.671875 C 17.851562 -14.347656 18.8125 -13.898438 19.6875 -13.328125 C 20.570312 -12.765625 21.285156 -12.03125 21.828125 -11.125 C 22.367188 -10.21875 22.640625 -9.0625 22.640625 -7.65625 C 22.640625 -6.144531 22.335938 -4.859375 21.734375 -3.796875 C 21.128906 -2.742188 20.316406 -1.894531 19.296875 -1.25 C 18.273438 -0.613281 17.128906 -0.144531 15.859375 0.15625 C 14.597656 0.457031 13.3125 0.609375 12 0.609375 C 10.113281 0.609375 8.34375 0.285156 6.6875 -0.359375 C 5.039062 -1.003906 3.707031 -1.992188 2.6875 -3.328125 C 1.675781 -4.660156 1.15625 -6.367188 1.125 -8.453125 L 6.875 -8.453125 C 6.945312 -6.921875 7.507812 -5.796875 8.5625 -5.078125 C 9.625 -4.359375 10.84375 -4 12.21875 -4 Z M 12.21875 -4 "/></g></g></g><g fill="#ffffff" fill-opacity="1"><g transform="translate(745.415923, 33.686385)"><g/></g></g><g fill="#ffffff" fill-opacity="1"><g transform="translate(758.427732, 33.686385)"><g><path d="M 20.796875 -8.71875 L 27.09375 -8.71875 C 26.507812 -6.957031 25.601562 -5.390625 24.375 -4.015625 C 23.144531 -2.648438 21.6875 -1.578125 20 -0.796875 C 18.3125 -0.015625 16.488281 0.375 14.53125 0.375 C 12.71875 0.375 11.007812 0.0351562 9.40625 -0.640625 C 7.8125 -1.316406 6.40625 -2.265625 5.1875 -3.484375 C 3.96875 -4.710938 3.019531 -6.125 2.34375 -7.71875 C 1.664062 -9.3125 1.328125 -11.015625 1.328125 -12.828125 C 1.328125 -14.640625 1.664062 -16.34375 2.34375 -17.9375 C 3.019531 -19.539062 3.96875 -20.953125 5.1875 -22.171875 C 6.40625 -23.390625 7.8125 -24.335938 9.40625 -25.015625 C 11.007812 -25.691406 12.71875 -26.03125 14.53125 -26.03125 C 16.488281 -26.03125 18.300781 -25.640625 19.96875 -24.859375 C 21.644531 -24.085938 23.097656 -23.023438 24.328125 -21.671875 C 25.566406 -20.328125 26.476562 -18.773438 27.0625 -17.015625 L 20.75 -17.015625 C 20.226562 -18.171875 19.382812 -19.082031 18.21875 -19.75 C 17.0625 -20.414062 15.832031 -20.75 14.53125 -20.75 C 13.144531 -20.75 11.882812 -20.390625 10.75 -19.671875 C 9.625 -18.960938 8.726562 -18.007812 8.0625 -16.8125 C 7.394531 -15.613281 7.0625 -14.285156 7.0625 -12.828125 C 7.0625 -11.367188 7.394531 -10.039062 8.0625 -8.84375 C 8.726562 -7.65625 9.625 -6.703125 10.75 -5.984375 C 11.882812 -5.265625 13.144531 -4.90625 14.53125 -4.90625 C 15.863281 -4.90625 17.109375 -5.253906 18.265625 -5.953125 C 19.421875 -6.660156 20.265625 -7.582031 20.796875 -8.71875 Z M 20.796875 -8.71875 "/></g></g></g><g fill="#ffffff" fill-opacity="1"><g transform="translate(790.02775, 33.686385)"><g><path d="M 22.078125 -12.875 C 22.078125 -14.207031 21.722656 -15.441406 21.015625 -16.578125 C 20.316406 -17.722656 19.394531 -18.648438 18.25 -19.359375 C 17.101562 -20.066406 15.863281 -20.421875 14.53125 -20.421875 C 13.21875 -20.421875 11.984375 -20.066406 10.828125 -19.359375 C 9.671875 -18.648438 8.738281 -17.722656 8.03125 -16.578125 C 7.332031 -15.441406 6.984375 -14.207031 6.984375 -12.875 C 6.984375 -11.5625 7.332031 -10.328125 8.03125 -9.171875 C 8.738281 -8.015625 9.671875 -7.078125 10.828125 -6.359375 C 11.984375 -5.640625 13.21875 -5.28125 14.53125 -5.28125 C 15.863281 -5.28125 17.101562 -5.640625 18.25 -6.359375 C 19.394531 -7.078125 20.316406 -8.015625 21.015625 -9.171875 C 21.722656 -10.328125 22.078125 -11.5625 22.078125 -12.875 Z M 27.734375 -12.828125 C 27.734375 -11.066406 27.378906 -9.382812 26.671875 -7.78125 C 25.972656 -6.1875 25.015625 -4.78125 23.796875 -3.5625 C 22.578125 -2.34375 21.171875 -1.378906 19.578125 -0.671875 C 17.992188 0.0234375 16.3125 0.375 14.53125 0.375 C 12.769531 0.375 11.085938 0.0234375 9.484375 -0.671875 C 7.890625 -1.378906 6.484375 -2.34375 5.265625 -3.5625 C 4.046875 -4.78125 3.082031 -6.1875 2.375 -7.78125 C 1.675781 -9.382812 1.328125 -11.066406 1.328125 -12.828125 C 1.328125 -14.617188 1.675781 -16.304688 2.375 -17.890625 C 3.082031 -19.472656 4.046875 -20.875 5.265625 -22.09375 C 6.484375 -23.3125 7.890625 -24.269531 9.484375 -24.96875 C 11.085938 -25.675781 12.769531 -26.03125 14.53125 -26.03125 C 16.3125 -26.03125 17.992188 -25.675781 19.578125 -24.96875 C 21.171875 -24.269531 22.578125 -23.3125 23.796875 -22.09375 C 25.015625 -20.875 25.972656 -19.472656 26.671875 -17.890625 C 27.378906 -16.304688 27.734375 -14.617188 27.734375 -12.828125 Z M 27.734375 -12.828125 "/></g></g></g><g fill="#ffffff" fill-opacity="1"><g transform="translate(822.645738, 33.686385)"><g><path d="M 34.265625 0 L 28.03125 0 L 25.015625 -17.703125 L 20 0 L 14.453125 0 L 9.4375 -17.703125 L 6.421875 0 L 0.1875 0 L 5.171875 -25.65625 L 11.890625 -25.65625 L 17.25 -7.65625 L 22.5625 -25.65625 L 29.28125 -25.65625 Z M 34.265625 0 "/></g></g></g><g fill="#ffffff" fill-opacity="1"><g transform="translate(860.65552, 33.686385)"><g><path d="M 7.921875 -9.171875 L 7.921875 0 L 2.265625 0 L 2.265625 -25.65625 L 11.890625 -25.65625 C 13.273438 -25.65625 14.5625 -25.304688 15.75 -24.609375 C 16.945312 -23.921875 17.910156 -22.960938 18.640625 -21.734375 C 19.367188 -20.503906 19.734375 -19.070312 19.734375 -17.4375 C 19.734375 -15.695312 19.367188 -14.207031 18.640625 -12.96875 C 17.910156 -11.738281 16.945312 -10.796875 15.75 -10.140625 C 14.5625 -9.492188 13.273438 -9.171875 11.890625 -9.171875 Z M 10.9375 -21.203125 L 7.921875 -21.203125 L 7.921875 -13.625 L 10.9375 -13.625 C 11.769531 -13.625 12.546875 -13.945312 13.265625 -14.59375 C 13.984375 -15.25 14.34375 -16.195312 14.34375 -17.4375 C 14.34375 -18.613281 13.984375 -19.535156 13.265625 -20.203125 C 12.546875 -20.867188 11.769531 -21.203125 10.9375 -21.203125 Z M 10.9375 -21.203125 "/></g></g></g><g fill="#ffffff" fill-opacity="1"><g transform="translate(884.526111, 33.686385)"><g><path d="M 17.125 -5.125 L 17.125 0 L 2.265625 0 L 2.265625 -25.65625 L 17.125 -25.65625 L 17.125 -20.53125 L 7.921875 -20.53125 L 7.921875 -15.4375 L 16.75 -15.4375 L 16.75 -10.296875 L 7.921875 -10.296875 L 7.921875 -5.125 Z M 17.125 -5.125 "/></g></g></g><g fill="#ffffff" fill-opacity="1"><g transform="translate(907.491876, 33.686385)"><g><path d="M 13.171875 -20.53125 L 13.171875 0 L 7.515625 0 L 7.515625 -20.53125 L 0.1875 -20.53125 L 0.1875 -25.65625 L 20.484375 -25.65625 L 20.484375 -20.53125 Z M 13.171875 -20.53125 "/></g></g></g><g fill="#ffffff" fill-opacity="1"><g transform="translate(931.739561, 33.686385)"><g><path d="M 7.921875 0 L 2.265625 0 L 2.265625 -25.65625 L 7.921875 -25.65625 Z M 7.921875 0 "/></g></g></g><g fill="#ffffff" fill-opacity="1"><g transform="translate(945.505433, 33.686385)"><g><path d="M 13.171875 -20.53125 L 13.171875 0 L 7.515625 0 L 7.515625 -20.53125 L 0.1875 -20.53125 L 0.1875 -25.65625 L 20.484375 -25.65625 L 20.484375 -20.53125 Z M 13.171875 -20.53125 "/></g></g></g><g fill="#ffffff" fill-opacity="1"><g transform="translate(969.753118, 33.686385)"><g><path d="M 7.921875 0 L 2.265625 0 L 2.265625 -25.65625 L 7.921875 -25.65625 Z M 7.921875 0 "/></g></g></g><g fill="#ffffff" fill-opacity="1"><g transform="translate(983.51899, 33.686385)"><g><path d="M 22.078125 -12.875 C 22.078125 -14.207031 21.722656 -15.441406 21.015625 -16.578125 C 20.316406 -17.722656 19.394531 -18.648438 18.25 -19.359375 C 17.101562 -20.066406 15.863281 -20.421875 14.53125 -20.421875 C 13.21875 -20.421875 11.984375 -20.066406 10.828125 -19.359375 C 9.671875 -18.648438 8.738281 -17.722656 8.03125 -16.578125 C 7.332031 -15.441406 6.984375 -14.207031 6.984375 -12.875 C 6.984375 -11.5625 7.332031 -10.328125 8.03125 -9.171875 C 8.738281 -8.015625 9.671875 -7.078125 10.828125 -6.359375 C 11.984375 -5.640625 13.21875 -5.28125 14.53125 -5.28125 C 15.863281 -5.28125 17.101562 -5.640625 18.25 -6.359375 C 19.394531 -7.078125 20.316406 -8.015625 21.015625 -9.171875 C 21.722656 -10.328125 22.078125 -11.5625 22.078125 -12.875 Z M 27.734375 -12.828125 C 27.734375 -11.066406 27.378906 -9.382812 26.671875 -7.78125 C 25.972656 -6.1875 25.015625 -4.78125 23.796875 -3.5625 C 22.578125 -2.34375 21.171875 -1.378906 19.578125 -0.671875 C 17.992188 0.0234375 16.3125 0.375 14.53125 0.375 C 12.769531 0.375 11.085938 0.0234375 9.484375 -0.671875 C 7.890625 -1.378906 6.484375 -2.34375 5.265625 -3.5625 C 4.046875 -4.78125 3.082031 -6.1875 2.375 -7.78125 C 1.675781 -9.382812 1.328125 -11.066406 1.328125 -12.828125 C 1.328125 -14.617188 1.675781 -16.304688 2.375 -17.890625 C 3.082031 -19.472656 4.046875 -20.875 5.265625 -22.09375 C 6.484375 -23.3125 7.890625 -24.269531 9.484375 -24.96875 C 11.085938 -25.675781 12.769531 -26.03125 14.53125 -26.03125 C 16.3125 -26.03125 17.992188 -25.675781 19.578125 -24.96875 C 21.171875 -24.269531 22.578125 -23.3125 23.796875 -22.09375 C 25.015625 -20.875 25.972656 -19.472656 26.671875 -17.890625 C 27.378906 -16.304688 27.734375 -14.617188 27.734375 -12.828125 Z M 27.734375 -12.828125 "/></g></g></g><g fill="#ffffff" fill-opacity="1"><g transform="translate(1016.137061, 33.686385)"><g><path d="M 22.421875 0 L 16.75 0 L 7.921875 -16 L 7.921875 0 L 2.265625 0 L 2.265625 -25.65625 L 7.921875 -25.65625 L 16.75 -9.65625 L 16.75 -25.65625 L 22.421875 -25.65625 Z M 22.421875 0 "/></g></g></g></g></g><g transform="matrix(1, 0, 0, 1, 59, 176)"><g clip-path="url(#b6f451b32a)"><g fill="#ffffff" fill-opacity="1"><g transform="translate(2.242285, 20.141116)"><g><path d="M 7.359375 -11.484375 L 7.359375 0 L 4.203125 0 L 4.203125 -11.484375 L 0.109375 -11.484375 L 0.109375 -14.359375 L 11.46875 -14.359375 L 11.46875 -11.484375 Z M 7.359375 -11.484375 "/></g></g></g><g fill="#ffffff" fill-opacity="1"><g transform="translate(13.811435, 20.141116)"><g><path d="M 9.15625 -14.359375 L 12.53125 -14.359375 L 12.53125 0 L 9.15625 0 L 9.15625 -5.765625 L 4.4375 -5.765625 L 4.4375 0 L 1.265625 0 L 1.265625 -14.359375 L 4.4375 -14.359375 L 4.4375 -8.640625 L 9.15625 -8.640625 Z M 9.15625 -14.359375 "/></g></g></g></g></g></g></g></svg>