<svg xmlns="http://www.w3.org/2000/svg" xmlns:xlink="http://www.w3.org/1999/xlink" width="1626" zoomAndPan="magnify" viewBox="0 0 1219.5 260.999984" height="348" preserveAspectRatio="xMidYMid meet" version="1.0"><defs><g/><clipPath id="2ff5642394"><path d="M 146.425781 32.886719 L 258.878906 32.886719 L 258.878906 145.339844 L 146.425781 145.339844 Z M 146.425781 32.886719 " clip-rule="nonzero"/></clipPath><clipPath id="0d9992e41b"><path d="M 390.640625 32.886719 L 503 32.886719 L 503 145.339844 L 390.640625 145.339844 Z M 390.640625 32.886719 " clip-rule="nonzero"/></clipPath><clipPath id="9aa058ef97"><rect x="0" width="1139" y="0" height="135"/></clipPath><clipPath id="b896e2d9bc"><path d="M 27.757812 161.492188 L 1151.617188 161.492188 L 1151.617188 254.121094 L 27.757812 254.121094 Z M 27.757812 161.492188 " clip-rule="nonzero"/></clipPath><clipPath id="212c72b388"><path d="M 35.253906 161.492188 L 1143.8125 161.492188 C 1145.800781 161.492188 1147.707031 162.28125 1149.113281 163.6875 C 1150.519531 165.09375 1151.308594 167 1151.308594 168.988281 L 1151.308594 246.625 C 1151.308594 248.613281 1150.519531 250.519531 1149.113281 251.925781 C 1147.707031 253.332031 1145.800781 254.121094 1143.8125 254.121094 L 35.253906 254.121094 C 33.265625 254.121094 31.359375 253.332031 29.953125 251.925781 C 28.546875 250.519531 27.757812 248.613281 27.757812 246.625 L 27.757812 168.988281 C 27.757812 167 28.546875 165.09375 29.953125 163.6875 C 31.359375 162.28125 33.265625 161.492188 35.253906 161.492188 Z M 35.253906 161.492188 " clip-rule="nonzero"/></clipPath><clipPath id="d14f64158e"><path d="M 0.757812 0.492188 L 1124.527344 0.492188 L 1124.527344 93.121094 L 0.757812 93.121094 Z M 0.757812 0.492188 " clip-rule="nonzero"/></clipPath><clipPath id="1a4a5d772e"><path d="M 8.253906 0.492188 L 1116.8125 0.492188 C 1118.800781 0.492188 1120.707031 1.28125 1122.113281 2.6875 C 1123.519531 4.09375 1124.308594 6 1124.308594 7.988281 L 1124.308594 85.625 C 1124.308594 87.613281 1123.519531 89.519531 1122.113281 90.925781 C 1120.707031 92.332031 1118.800781 93.121094 1116.8125 93.121094 L 8.253906 93.121094 C 6.265625 93.121094 4.359375 92.332031 2.953125 90.925781 C 1.546875 89.519531 0.757812 87.613281 0.757812 85.625 L 0.757812 7.988281 C 0.757812 6 1.546875 4.09375 2.953125 2.6875 C 4.359375 1.28125 6.265625 0.492188 8.253906 0.492188 Z M 8.253906 0.492188 " clip-rule="nonzero"/></clipPath><clipPath id="da158a3161"><rect x="0" width="1125" y="0" height="94"/></clipPath><clipPath id="b763baa27a"><rect x="0" width="79" y="0" height="137"/></clipPath><clipPath id="743c220e8c"><path d="M 1143.328125 3.050781 L 1203 3.050781 L 1203 63 L 1143.328125 63 Z M 1143.328125 3.050781 " clip-rule="nonzero"/></clipPath><clipPath id="becfbff9b9"><path d="M 0.457031 1 L 1067.296875 1 L 1067.296875 46.917969 L 0.457031 46.917969 Z M 0.457031 1 " clip-rule="nonzero"/></clipPath><clipPath id="42695c847f"><rect x="0" width="1068" y="0" height="46"/></clipPath><clipPath id="7cb32e574f"><path d="M 25 0.859375 L 55 0.859375 L 55 27 L 25 27 Z M 25 0.859375 " clip-rule="nonzero"/></clipPath><clipPath id="dbff1843bc"><rect x="0" width="30" y="0" height="27"/></clipPath><clipPath id="548b165ed7"><rect x="0" width="1068" y="0" height="47"/></clipPath></defs><path fill="#ced7dd" d="M 180.121094 107.769531 L 180.121094 124.617188 C 180.121094 126.6875 181.796875 128.363281 183.867188 128.363281 L 191.355469 128.363281 L 191.355469 107.769531 Z M 180.121094 107.769531 " fill-opacity="1" fill-rule="nonzero"/><path fill="#ced7dd" d="M 225.050781 107.769531 L 225.050781 124.617188 C 225.050781 126.6875 223.375 128.363281 221.308594 128.363281 L 213.820312 128.363281 L 213.820312 107.769531 Z M 225.050781 107.769531 " fill-opacity="1" fill-rule="nonzero"/><path fill="#b3c1c9" d="M 187.609375 113.050781 C 187.03125 113.273438 186.394531 113.386719 185.738281 113.386719 C 182.628906 113.386719 180.121094 110.878906 180.121094 107.769531 C 180.121094 104.660156 182.628906 102.152344 185.738281 102.152344 C 187.742188 102.152344 189.480469 103.183594 190.472656 104.753906 Z M 187.609375 113.050781 " fill-opacity="1" fill-rule="nonzero"/><path fill="#b3c1c9" d="M 214.699219 104.753906 C 215.691406 103.183594 217.433594 102.152344 219.433594 102.152344 C 222.542969 102.152344 225.050781 104.660156 225.050781 107.769531 C 225.050781 110.878906 222.542969 113.386719 219.433594 113.386719 C 218.78125 113.386719 218.144531 113.273438 217.5625 113.050781 Z M 214.699219 104.753906 " fill-opacity="1" fill-rule="nonzero"/><path fill="#ced7dd" d="M 196.96875 92.792969 L 208.203125 92.792969 L 208.203125 104.027344 L 196.96875 104.027344 Z M 196.96875 92.792969 " fill-opacity="1" fill-rule="nonzero"/><path fill="#e4eaef" d="M 196.96875 102.152344 L 208.203125 102.152344 C 213.371094 102.152344 217.5625 106.347656 217.5625 111.515625 L 217.5625 124.617188 C 217.5625 126.683594 215.886719 128.363281 213.820312 128.363281 L 191.355469 128.363281 C 189.289062 128.363281 187.609375 126.683594 187.609375 124.617188 L 187.609375 111.515625 C 187.609375 106.347656 191.804688 102.152344 196.96875 102.152344 Z M 196.96875 102.152344 " fill-opacity="1" fill-rule="nonzero"/><path fill="#c9042d" d="M 253.675781 79.839844 L 247.03125 78.507812 C 245.886719 73.699219 243.996094 69.167969 241.46875 65.085938 L 245.214844 59.453125 C 246.28125 57.859375 246.074219 55.746094 244.726562 54.414062 L 237.21875 46.910156 C 235.890625 45.558594 233.777344 45.355469 232.183594 46.421875 L 226.550781 50.164062 C 222.46875 47.636719 217.9375 45.746094 213.125 44.605469 L 211.796875 37.960938 C 211.421875 36.105469 209.792969 34.757812 207.882812 34.757812 L 197.289062 34.757812 C 195.378906 34.757812 193.75 36.105469 193.375 37.960938 L 192.046875 44.605469 C 187.234375 45.746094 182.707031 47.636719 178.625 50.164062 L 172.988281 46.421875 C 171.398438 45.355469 169.28125 45.558594 167.953125 46.910156 L 160.445312 54.414062 C 159.097656 55.746094 158.890625 57.859375 159.960938 59.453125 L 163.703125 65.085938 C 161.175781 69.167969 159.285156 73.699219 158.144531 78.507812 L 151.496094 79.839844 C 149.644531 80.210938 148.296875 81.839844 148.296875 83.75 L 148.296875 94.347656 C 148.296875 96.257812 149.644531 97.886719 151.496094 98.257812 L 158.144531 99.589844 C 159.285156 104.398438 161.175781 108.929688 163.703125 113.011719 L 159.960938 118.648438 C 158.890625 120.238281 159.097656 122.351562 160.445312 123.683594 L 167.953125 131.191406 C 169.28125 132.539062 171.398438 132.742188 172.988281 131.675781 L 178.625 127.933594 C 182.707031 130.460938 187.234375 132.351562 192.046875 133.492188 L 193.375 140.136719 C 193.75 141.992188 195.378906 143.339844 197.289062 143.339844 L 207.882812 143.339844 C 209.792969 143.339844 211.421875 141.992188 211.796875 140.136719 L 213.125 133.492188 C 217.9375 132.351562 222.46875 130.460938 226.550781 127.933594 L 232.183594 131.675781 C 233.777344 132.742188 235.890625 132.539062 237.21875 131.191406 L 244.726562 123.683594 C 246.074219 122.351562 246.28125 120.238281 245.214844 118.648438 L 241.46875 113.011719 C 243.996094 108.929688 245.886719 104.398438 247.03125 99.589844 L 253.675781 98.257812 C 255.527344 97.886719 256.878906 96.257812 256.878906 94.347656 L 256.878906 83.75 C 256.878906 81.839844 255.527344 80.210938 253.675781 79.839844 Z M 202.585938 126.492188 C 181.898438 126.492188 165.144531 109.734375 165.144531 89.050781 C 165.144531 68.363281 181.898438 51.605469 202.585938 51.605469 C 223.273438 51.605469 240.027344 68.363281 240.027344 89.050781 C 240.027344 109.734375 223.273438 126.492188 202.585938 126.492188 Z M 202.585938 126.492188 " fill-opacity="1" fill-rule="nonzero"/><path fill="#e4eaef" d="M 211.890625 64.710938 L 211.945312 64.710938 C 217.527344 64.710938 222.167969 68.792969 223.03125 74.148438 C 225.238281 74.523438 226.921875 76.429688 226.921875 78.753906 L 226.921875 80.625 C 226.921875 82.945312 225.238281 84.855469 223.03125 85.230469 C 222.167969 90.585938 217.527344 94.664062 211.945312 94.664062 L 193.226562 94.664062 C 187.648438 94.664062 183.003906 90.585938 182.144531 85.230469 C 179.933594 84.855469 178.25 82.945312 178.25 80.625 L 178.25 78.753906 C 178.25 76.429688 179.933594 74.523438 182.144531 74.148438 C 183.003906 68.792969 187.648438 64.710938 193.226562 64.710938 Z M 211.890625 64.710938 " fill-opacity="1" fill-rule="nonzero"/><path fill="#ced7dd" d="M 209.746094 70.640625 C 210.742188 69.289062 211.941406 67.242188 211.945312 65.1875 C 211.949219 63.898438 210.898438 62.839844 209.605469 62.839844 L 195.566406 62.839844 C 194.273438 62.839844 193.222656 63.898438 193.226562 65.1875 C 193.230469 67.242188 194.429688 69.289062 195.425781 70.640625 C 196.15625 71.628906 197.324219 72.199219 198.554688 72.199219 L 206.617188 72.199219 C 207.847656 72.199219 209.015625 71.632812 209.746094 70.640625 Z M 209.746094 70.640625 " fill-opacity="1" fill-rule="nonzero"/><path fill="#c9042d" d="M 217.5625 79.6875 C 217.5625 80.179688 217.515625 80.667969 217.417969 81.148438 C 217.324219 81.632812 217.179688 82.101562 216.992188 82.554688 C 216.804688 83.007812 216.574219 83.441406 216.300781 83.847656 C 216.027344 84.257812 215.71875 84.636719 215.371094 84.984375 C 215.023438 85.332031 214.644531 85.640625 214.234375 85.914062 C 213.828125 86.1875 213.394531 86.417969 212.941406 86.605469 C 212.488281 86.796875 212.019531 86.9375 211.535156 87.03125 C 211.054688 87.128906 210.566406 87.175781 210.074219 87.175781 L 195.097656 87.175781 C 194.605469 87.175781 194.121094 87.128906 193.636719 87.03125 C 193.15625 86.9375 192.6875 86.796875 192.234375 86.605469 C 191.777344 86.417969 191.347656 86.1875 190.9375 85.914062 C 190.527344 85.640625 190.152344 85.332031 189.804688 84.984375 C 189.457031 84.636719 189.144531 84.257812 188.871094 83.847656 C 188.597656 83.441406 188.367188 83.007812 188.179688 82.554688 C 187.992188 82.101562 187.851562 81.632812 187.753906 81.148438 C 187.65625 80.667969 187.609375 80.179688 187.609375 79.6875 C 187.609375 79.195312 187.65625 78.710938 187.753906 78.226562 C 187.851562 77.746094 187.992188 77.277344 188.179688 76.824219 C 188.367188 76.367188 188.597656 75.9375 188.871094 75.527344 C 189.144531 75.121094 189.457031 74.742188 189.804688 74.394531 C 190.152344 74.046875 190.527344 73.734375 190.9375 73.460938 C 191.347656 73.1875 191.777344 72.957031 192.234375 72.769531 C 192.6875 72.582031 193.15625 72.441406 193.636719 72.34375 C 194.121094 72.25 194.605469 72.199219 195.097656 72.199219 L 210.074219 72.199219 C 210.566406 72.199219 211.054688 72.25 211.535156 72.34375 C 212.019531 72.441406 212.488281 72.582031 212.941406 72.769531 C 213.394531 72.957031 213.828125 73.1875 214.234375 73.460938 C 214.644531 73.734375 215.023438 74.046875 215.371094 74.394531 C 215.71875 74.742188 216.027344 75.121094 216.300781 75.527344 C 216.574219 75.9375 216.804688 76.367188 216.992188 76.824219 C 217.179688 77.277344 217.324219 77.746094 217.417969 78.226562 C 217.515625 78.710938 217.5625 79.195312 217.5625 79.6875 Z M 217.5625 79.6875 " fill-opacity="1" fill-rule="nonzero"/><g clip-path="url(#2ff5642394)"><path fill="#262626" d="M 254.035156 78 L 248.5625 76.90625 C 247.476562 72.78125 245.835938 68.832031 243.679688 65.132812 L 246.777344 60.484375 C 248.324219 58.164062 248.015625 55.054688 246.046875 53.085938 L 238.550781 45.589844 C 236.578125 43.621094 233.46875 43.3125 231.152344 44.855469 L 226.5 47.953125 C 222.804688 45.796875 218.851562 44.160156 214.730469 43.074219 L 213.636719 37.601562 C 213.089844 34.867188 210.671875 32.886719 207.886719 32.886719 L 197.285156 32.886719 C 194.5 32.886719 192.085938 34.867188 191.539062 37.601562 L 190.441406 43.074219 C 186.320312 44.160156 182.371094 45.796875 178.671875 47.953125 L 174.019531 44.855469 C 171.707031 43.3125 168.59375 43.621094 166.625 45.589844 L 159.128906 53.085938 C 157.160156 55.054688 156.851562 58.164062 158.394531 60.484375 L 161.492188 65.132812 C 159.335938 68.832031 157.699219 72.78125 156.613281 76.90625 L 151.136719 78 C 148.40625 78.546875 146.425781 80.964844 146.425781 83.75 L 146.425781 94.347656 C 146.425781 97.132812 148.40625 99.550781 151.136719 100.097656 L 156.613281 101.191406 C 157.699219 105.316406 159.335938 109.265625 161.492188 112.964844 L 158.394531 117.613281 C 156.851562 119.929688 157.15625 123.042969 159.128906 125.011719 L 166.625 132.507812 C 168.59375 134.476562 171.707031 134.785156 174.019531 133.242188 L 178.671875 130.140625 C 182.371094 132.300781 186.320312 133.9375 190.441406 135.023438 L 191.539062 140.496094 C 192.085938 143.230469 194.5 145.210938 197.285156 145.210938 L 207.886719 145.210938 C 210.671875 145.210938 213.089844 143.230469 213.636719 140.496094 L 214.730469 135.023438 C 218.851562 133.9375 222.804688 132.300781 226.503906 130.140625 L 231.152344 133.242188 C 233.46875 134.785156 236.578125 134.476562 238.550781 132.507812 L 246.046875 125.011719 C 248.015625 123.042969 248.324219 119.929688 246.777344 117.613281 L 243.679688 112.964844 C 245.835938 109.265625 247.476562 105.316406 248.5625 101.191406 L 254.035156 100.097656 C 256.765625 99.550781 258.75 97.132812 258.75 94.347656 L 258.75 83.75 C 258.75 80.964844 256.765625 78.546875 254.035156 78 Z M 255.003906 94.347656 C 255.003906 95.355469 254.289062 96.230469 253.300781 96.425781 L 246.667969 97.753906 C 245.949219 97.894531 245.378906 98.445312 245.210938 99.15625 C 244.140625 103.707031 242.34375 108.039062 239.871094 112.03125 C 239.488281 112.652344 239.503906 113.445312 239.910156 114.054688 L 243.664062 119.691406 C 244.222656 120.53125 244.113281 121.65625 243.398438 122.367188 L 235.902344 129.863281 C 235.191406 130.570312 234.070312 130.6875 233.230469 130.128906 L 227.59375 126.371094 C 226.984375 125.960938 226.195312 125.953125 225.570312 126.335938 C 221.574219 128.800781 217.242188 130.601562 212.695312 131.675781 C 211.984375 131.84375 211.433594 132.410156 211.292969 133.128906 L 209.964844 139.765625 C 209.769531 140.75 208.894531 141.46875 207.886719 141.46875 L 197.285156 141.46875 C 196.28125 141.46875 195.40625 140.75 195.207031 139.765625 L 193.882812 133.128906 C 193.738281 132.410156 193.1875 131.84375 192.476562 131.675781 C 187.929688 130.601562 183.601562 128.804688 179.601562 126.335938 C 179.300781 126.148438 178.957031 126.054688 178.617188 126.054688 C 178.257812 126.054688 177.894531 126.160156 177.578125 126.371094 L 171.941406 130.128906 C 171.105469 130.6875 169.984375 130.570312 169.269531 129.863281 L 161.773438 122.367188 C 161.0625 121.65625 160.953125 120.53125 161.507812 119.691406 L 165.265625 114.054688 C 165.671875 113.445312 165.6875 112.652344 165.300781 112.03125 C 162.832031 108.039062 161.035156 103.707031 159.960938 99.15625 C 159.789062 98.445312 159.222656 97.894531 158.507812 97.753906 L 151.871094 96.425781 C 150.886719 96.230469 150.167969 95.355469 150.167969 94.347656 L 150.167969 83.75 C 150.167969 82.742188 150.886719 81.867188 151.871094 81.671875 L 158.507812 80.34375 C 159.226562 80.203125 159.792969 79.652344 159.960938 78.941406 C 161.035156 74.386719 162.832031 70.058594 165.300781 66.0625 C 165.6875 65.441406 165.671875 64.648438 165.265625 64.042969 L 161.507812 58.40625 C 160.949219 57.566406 161.0625 56.441406 161.773438 55.730469 L 169.269531 48.234375 C 169.984375 47.527344 171.101562 47.414062 171.941406 47.96875 L 177.582031 51.726562 C 178.191406 52.136719 178.980469 52.144531 179.601562 51.761719 C 183.597656 49.296875 187.929688 47.496094 192.476562 46.421875 C 193.1875 46.253906 193.738281 45.6875 193.882812 44.96875 L 195.207031 38.335938 C 195.40625 37.347656 196.28125 36.628906 197.285156 36.628906 L 207.886719 36.628906 C 208.894531 36.628906 209.769531 37.347656 209.964844 38.335938 L 211.292969 44.96875 C 211.433594 45.6875 211.984375 46.253906 212.695312 46.421875 C 217.242188 47.496094 221.574219 49.292969 225.570312 51.761719 C 226.195312 52.144531 226.980469 52.136719 227.59375 51.726562 L 233.230469 47.96875 C 234.070312 47.410156 235.191406 47.527344 235.902344 48.234375 L 243.398438 55.730469 C 244.113281 56.441406 244.222656 57.566406 243.664062 58.40625 L 239.910156 64.042969 C 239.503906 64.648438 239.488281 65.441406 239.871094 66.0625 C 242.339844 70.058594 244.136719 74.386719 245.210938 78.941406 C 245.382812 79.652344 245.949219 80.203125 246.667969 80.34375 L 253.300781 81.671875 C 254.289062 81.867188 255.003906 82.742188 255.003906 83.75 Z M 255.003906 94.347656 " fill-opacity="1" fill-rule="nonzero"/></g><path fill="#262626" d="M 202.585938 49.734375 C 193.214844 49.734375 184.140625 53.085938 177.03125 59.171875 C 176.246094 59.84375 176.15625 61.027344 176.828125 61.8125 C 177.503906 62.601562 178.6875 62.6875 179.46875 62.015625 C 185.898438 56.511719 194.109375 53.476562 202.589844 53.476562 C 222.203125 53.476562 238.15625 69.433594 238.15625 89.046875 C 238.15625 99.242188 233.824219 108.425781 226.925781 114.914062 L 226.925781 107.769531 C 226.925781 103.636719 223.566406 100.28125 219.4375 100.28125 C 217.558594 100.28125 215.800781 100.972656 214.453125 102.183594 C 213.160156 101.316406 211.671875 100.71875 210.078125 100.449219 L 210.078125 96.535156 L 211.949219 96.535156 C 218.003906 96.535156 223.160156 92.476562 224.628906 86.71875 C 227.105469 85.757812 228.796875 83.371094 228.796875 80.621094 L 228.796875 78.75 C 228.796875 76.003906 227.109375 73.617188 224.628906 72.652344 C 223.261719 67.292969 218.679688 63.445312 213.164062 62.9375 C 213 62.675781 212.8125 62.429688 212.589844 62.207031 C 211.792969 61.40625 210.734375 60.964844 209.609375 60.964844 L 195.566406 60.964844 C 194.441406 60.964844 193.382812 61.40625 192.585938 62.207031 C 192.363281 62.429688 192.175781 62.679688 192.011719 62.9375 C 186.496094 63.445312 181.917969 67.292969 180.542969 72.652344 C 178.066406 73.617188 176.378906 76.003906 176.378906 78.75 L 176.378906 80.621094 C 176.378906 83.371094 178.066406 85.757812 180.542969 86.71875 C 182.015625 92.476562 187.171875 96.535156 193.226562 96.535156 L 195.097656 96.535156 L 195.097656 100.449219 C 193.5 100.71875 192.015625 101.3125 190.722656 102.183594 C 189.375 100.972656 187.617188 100.28125 185.738281 100.28125 C 181.609375 100.28125 178.25 103.636719 178.25 107.769531 L 178.25 114.914062 C 171.351562 108.421875 167.015625 99.242188 167.015625 89.046875 C 167.015625 81.277344 169.476562 73.894531 174.132812 67.703125 C 174.75 66.878906 174.585938 65.703125 173.757812 65.082031 C 172.933594 64.460938 171.761719 64.628906 171.136719 65.453125 C 165.992188 72.300781 163.273438 80.460938 163.273438 89.050781 C 163.273438 110.726562 180.910156 128.363281 202.589844 128.363281 C 224.265625 128.363281 241.902344 110.726562 241.902344 89.050781 C 241.902344 67.371094 224.265625 49.734375 202.589844 49.734375 Z M 219.433594 115.257812 C 220.804688 115.257812 222.074219 114.859375 223.179688 114.21875 L 223.179688 117.996094 C 221.980469 118.855469 220.742188 119.660156 219.433594 120.363281 Z M 223.179688 107.769531 C 223.179688 109.835938 221.5 111.515625 219.433594 111.515625 C 219.433594 108.996094 218.59375 106.679688 217.191406 104.804688 C 217.828125 104.320312 218.601562 104.027344 219.433594 104.027344 C 221.5 104.027344 223.179688 105.703125 223.179688 107.769531 Z M 195.097656 74.070312 L 210.074219 74.070312 C 213.171875 74.070312 215.691406 76.59375 215.691406 79.6875 C 215.691406 82.785156 213.171875 85.304688 210.074219 85.304688 L 195.097656 85.304688 C 192 85.304688 189.480469 82.785156 189.480469 79.6875 C 189.480469 76.59375 192 74.070312 195.097656 74.070312 Z M 195.238281 64.851562 C 195.296875 64.785156 195.410156 64.710938 195.566406 64.710938 L 209.605469 64.710938 C 209.765625 64.710938 209.875 64.785156 209.9375 64.851562 C 209.988281 64.902344 210.074219 65.015625 210.074219 65.183594 C 210.074219 66.390625 209.421875 67.933594 208.242188 69.523438 C 207.875 70.027344 207.265625 70.328125 206.621094 70.328125 L 198.554688 70.328125 C 197.910156 70.328125 197.300781 70.027344 196.929688 69.523438 C 195.75 67.929688 195.101562 66.386719 195.097656 65.183594 C 195.097656 65.011719 195.183594 64.902344 195.238281 64.847656 Z M 183.992188 84.933594 C 183.863281 84.140625 183.25 83.519531 182.457031 83.382812 C 181.101562 83.15625 180.121094 81.996094 180.121094 80.625 L 180.121094 78.753906 C 180.121094 77.382812 181.101562 76.222656 182.457031 75.992188 C 183.25 75.859375 183.863281 75.238281 183.992188 74.445312 C 184.628906 70.472656 187.664062 67.453125 191.53125 66.746094 C 191.820312 68.148438 192.4375 69.457031 193.109375 70.550781 C 188.902344 71.464844 185.738281 75.207031 185.738281 79.6875 C 185.738281 84.847656 189.9375 89.046875 195.097656 89.046875 L 210.074219 89.046875 C 215.238281 89.046875 219.433594 84.847656 219.433594 79.6875 C 219.433594 75.207031 216.269531 71.464844 212.0625 70.550781 C 212.738281 69.453125 213.359375 68.140625 213.644531 66.734375 C 217.492188 67.429688 220.539062 70.457031 221.183594 74.441406 C 221.308594 75.234375 221.925781 75.855469 222.71875 75.992188 C 224.070312 76.21875 225.050781 77.378906 225.050781 78.75 L 225.050781 80.621094 C 225.050781 81.992188 224.070312 83.152344 222.71875 83.382812 C 221.925781 83.515625 221.308594 84.136719 221.183594 84.929688 C 220.449219 89.488281 216.566406 92.792969 211.945312 92.792969 L 193.226562 92.792969 C 188.609375 92.792969 184.726562 89.484375 183.992188 84.929688 Z M 206.332031 96.539062 L 206.332031 100.28125 L 198.84375 100.28125 L 198.84375 96.539062 Z M 185.738281 104.027344 C 186.574219 104.027344 187.347656 104.320312 187.984375 104.804688 C 186.578125 106.679688 185.738281 108.996094 185.738281 111.515625 C 183.671875 111.515625 181.992188 109.835938 181.992188 107.769531 C 181.992188 105.703125 183.671875 104.027344 185.738281 104.027344 Z M 181.992188 114.21875 C 183.101562 114.859375 184.367188 115.257812 185.738281 115.257812 L 185.738281 120.363281 C 184.433594 119.65625 183.195312 118.855469 181.992188 117.996094 Z M 189.480469 122.085938 L 189.480469 111.515625 C 189.480469 107.382812 192.839844 104.027344 196.96875 104.027344 L 208.203125 104.027344 C 212.332031 104.027344 215.691406 107.382812 215.691406 111.515625 L 215.691406 122.085938 C 211.628906 123.703125 207.214844 124.617188 202.585938 124.617188 C 197.957031 124.617188 193.542969 123.703125 189.480469 122.085938 Z M 189.480469 122.085938 " fill-opacity="1" fill-rule="nonzero"/><path fill="#262626" d="M 196.96875 81.554688 C 198.003906 81.554688 198.84375 80.71875 198.84375 79.683594 L 198.84375 79.667969 C 198.84375 78.628906 198.003906 77.804688 196.96875 77.804688 C 195.933594 77.804688 195.097656 78.648438 195.097656 79.683594 C 195.097656 80.71875 195.933594 81.554688 196.96875 81.554688 Z M 196.96875 81.554688 " fill-opacity="1" fill-rule="nonzero"/><path fill="#262626" d="M 208.203125 81.554688 C 209.238281 81.554688 210.074219 80.71875 210.074219 79.683594 L 210.074219 79.667969 C 210.074219 78.628906 209.238281 77.804688 208.203125 77.804688 C 207.167969 77.804688 206.332031 78.648438 206.332031 79.683594 C 206.332031 80.71875 207.167969 81.554688 208.203125 81.554688 Z M 208.203125 81.554688 " fill-opacity="1" fill-rule="nonzero"/><path fill="#ced7dd" d="M 424.339844 107.769531 L 424.339844 124.617188 C 424.339844 126.6875 426.015625 128.363281 428.082031 128.363281 L 435.574219 128.363281 L 435.574219 107.769531 Z M 424.339844 107.769531 " fill-opacity="1" fill-rule="nonzero"/><path fill="#ced7dd" d="M 469.269531 107.769531 L 469.269531 124.617188 C 469.269531 126.6875 467.59375 128.363281 465.527344 128.363281 L 458.039062 128.363281 L 458.039062 107.769531 Z M 469.269531 107.769531 " fill-opacity="1" fill-rule="nonzero"/><path fill="#b3c1c9" d="M 431.828125 113.050781 C 431.246094 113.273438 430.609375 113.386719 429.957031 113.386719 C 426.847656 113.386719 424.339844 110.878906 424.339844 107.769531 C 424.339844 104.660156 426.847656 102.152344 429.957031 102.152344 C 431.960938 102.152344 433.699219 103.183594 434.691406 104.753906 Z M 431.828125 113.050781 " fill-opacity="1" fill-rule="nonzero"/><path fill="#b3c1c9" d="M 458.917969 104.753906 C 459.910156 103.183594 461.652344 102.152344 463.652344 102.152344 C 466.761719 102.152344 469.269531 104.660156 469.269531 107.769531 C 469.269531 110.878906 466.761719 113.386719 463.652344 113.386719 C 463 113.386719 462.363281 113.273438 461.78125 113.050781 Z M 458.917969 104.753906 " fill-opacity="1" fill-rule="nonzero"/><path fill="#ced7dd" d="M 441.1875 92.792969 L 452.421875 92.792969 L 452.421875 104.027344 L 441.1875 104.027344 Z M 441.1875 92.792969 " fill-opacity="1" fill-rule="nonzero"/><path fill="#e4eaef" d="M 441.1875 102.152344 L 452.421875 102.152344 C 457.589844 102.152344 461.78125 106.347656 461.78125 111.515625 L 461.78125 124.617188 C 461.78125 126.683594 460.105469 128.363281 458.039062 128.363281 L 435.574219 128.363281 C 433.503906 128.363281 431.828125 126.683594 431.828125 124.617188 L 431.828125 111.515625 C 431.828125 106.347656 436.023438 102.152344 441.1875 102.152344 Z M 441.1875 102.152344 " fill-opacity="1" fill-rule="nonzero"/><path fill="#c9042d" d="M 497.894531 79.839844 L 491.25 78.507812 C 490.105469 73.699219 488.214844 69.167969 485.6875 65.085938 L 489.433594 59.453125 C 490.5 57.859375 490.292969 55.746094 488.945312 54.414062 L 481.4375 46.910156 C 480.109375 45.558594 477.992188 45.355469 476.402344 46.421875 L 470.765625 50.164062 C 466.6875 47.636719 462.15625 45.746094 457.34375 44.605469 L 456.015625 37.960938 C 455.640625 36.105469 454.011719 34.757812 452.101562 34.757812 L 441.507812 34.757812 C 439.597656 34.757812 437.96875 36.105469 437.59375 37.960938 L 436.265625 44.605469 C 431.453125 45.746094 426.921875 47.636719 422.84375 50.164062 L 417.207031 46.421875 C 415.617188 45.355469 413.5 45.558594 412.171875 46.910156 L 404.664062 54.414062 C 403.316406 55.746094 403.109375 57.859375 404.175781 59.453125 L 407.921875 65.085938 C 405.394531 69.167969 403.503906 73.699219 402.363281 78.507812 L 395.714844 79.839844 C 393.863281 80.210938 392.515625 81.839844 392.515625 83.75 L 392.515625 94.347656 C 392.515625 96.257812 393.863281 97.886719 395.714844 98.257812 L 402.363281 99.589844 C 403.503906 104.398438 405.394531 108.929688 407.921875 113.011719 L 404.175781 118.648438 C 403.109375 120.238281 403.316406 122.351562 404.664062 123.683594 L 412.171875 131.191406 C 413.5 132.539062 415.617188 132.742188 417.207031 131.675781 L 422.84375 127.933594 C 426.921875 130.460938 431.453125 132.351562 436.265625 133.492188 L 437.59375 140.136719 C 437.96875 141.992188 439.597656 143.339844 441.507812 143.339844 L 452.101562 143.339844 C 454.011719 143.339844 455.640625 141.992188 456.015625 140.136719 L 457.34375 133.492188 C 462.15625 132.351562 466.6875 130.460938 470.765625 127.933594 L 476.402344 131.675781 C 477.992188 132.742188 480.109375 132.539062 481.4375 131.191406 L 488.945312 123.683594 C 490.292969 122.351562 490.5 120.238281 489.433594 118.648438 L 485.6875 113.011719 C 488.214844 108.929688 490.105469 104.398438 491.25 99.589844 L 497.894531 98.257812 C 499.746094 97.886719 501.09375 96.257812 501.09375 94.347656 L 501.09375 83.75 C 501.09375 81.839844 499.746094 80.210938 497.894531 79.839844 Z M 446.804688 126.492188 C 426.117188 126.492188 409.363281 109.734375 409.363281 89.050781 C 409.363281 68.363281 426.117188 51.605469 446.804688 51.605469 C 467.492188 51.605469 484.246094 68.363281 484.246094 89.050781 C 484.246094 109.734375 467.492188 126.492188 446.804688 126.492188 Z M 446.804688 126.492188 " fill-opacity="1" fill-rule="nonzero"/><path fill="#e4eaef" d="M 456.109375 64.710938 L 456.164062 64.710938 C 461.742188 64.710938 466.386719 68.792969 467.246094 74.148438 C 469.457031 74.523438 471.140625 76.429688 471.140625 78.753906 L 471.140625 80.625 C 471.140625 82.945312 469.457031 84.855469 467.246094 85.230469 C 466.386719 90.585938 461.742188 94.664062 456.164062 94.664062 L 437.445312 94.664062 C 431.867188 94.664062 427.222656 90.585938 426.363281 85.230469 C 424.152344 84.855469 422.46875 82.945312 422.46875 80.625 L 422.46875 78.753906 C 422.46875 76.429688 424.152344 74.523438 426.363281 74.148438 C 427.222656 68.792969 431.867188 64.710938 437.445312 64.710938 Z M 456.109375 64.710938 " fill-opacity="1" fill-rule="nonzero"/><path fill="#ced7dd" d="M 453.964844 70.640625 C 454.960938 69.289062 456.160156 67.242188 456.164062 65.1875 C 456.167969 63.898438 455.117188 62.839844 453.824219 62.839844 L 439.785156 62.839844 C 438.492188 62.839844 437.441406 63.898438 437.445312 65.1875 C 437.449219 67.242188 438.648438 69.289062 439.644531 70.640625 C 440.375 71.628906 441.542969 72.199219 442.773438 72.199219 L 450.835938 72.199219 C 452.066406 72.199219 453.234375 71.632812 453.964844 70.640625 Z M 453.964844 70.640625 " fill-opacity="1" fill-rule="nonzero"/><path fill="#c9042d" d="M 461.78125 79.6875 C 461.78125 80.179688 461.734375 80.667969 461.636719 81.148438 C 461.542969 81.632812 461.398438 82.101562 461.210938 82.554688 C 461.023438 83.007812 460.792969 83.441406 460.519531 83.847656 C 460.246094 84.257812 459.9375 84.636719 459.589844 84.984375 C 459.242188 85.332031 458.863281 85.640625 458.453125 85.914062 C 458.042969 86.1875 457.613281 86.417969 457.160156 86.605469 C 456.703125 86.796875 456.234375 86.9375 455.753906 87.03125 C 455.273438 87.128906 454.785156 87.175781 454.292969 87.175781 L 439.316406 87.175781 C 438.824219 87.175781 438.335938 87.128906 437.855469 87.03125 C 437.375 86.9375 436.90625 86.796875 436.449219 86.605469 C 435.996094 86.417969 435.566406 86.1875 435.15625 85.914062 C 434.746094 85.640625 434.367188 85.332031 434.019531 84.984375 C 433.671875 84.636719 433.363281 84.257812 433.089844 83.847656 C 432.816406 83.441406 432.585938 83.007812 432.398438 82.554688 C 432.210938 82.101562 432.066406 81.632812 431.972656 81.148438 C 431.875 80.667969 431.828125 80.179688 431.828125 79.6875 C 431.828125 79.195312 431.875 78.710938 431.972656 78.226562 C 432.066406 77.746094 432.210938 77.277344 432.398438 76.824219 C 432.585938 76.367188 432.816406 75.9375 433.089844 75.527344 C 433.363281 75.121094 433.671875 74.742188 434.019531 74.394531 C 434.367188 74.046875 434.746094 73.734375 435.15625 73.460938 C 435.566406 73.1875 435.996094 72.957031 436.449219 72.769531 C 436.90625 72.582031 437.375 72.441406 437.855469 72.34375 C 438.335938 72.25 438.824219 72.199219 439.316406 72.199219 L 454.292969 72.199219 C 454.785156 72.199219 455.273438 72.25 455.753906 72.34375 C 456.234375 72.441406 456.703125 72.582031 457.160156 72.769531 C 457.613281 72.957031 458.042969 73.1875 458.453125 73.460938 C 458.863281 73.734375 459.242188 74.046875 459.589844 74.394531 C 459.9375 74.742188 460.246094 75.121094 460.519531 75.527344 C 460.792969 75.9375 461.023438 76.367188 461.210938 76.824219 C 461.398438 77.277344 461.542969 77.746094 461.636719 78.226562 C 461.734375 78.710938 461.78125 79.195312 461.78125 79.6875 Z M 461.78125 79.6875 " fill-opacity="1" fill-rule="nonzero"/><g clip-path="url(#0d9992e41b)"><path fill="#262626" d="M 498.253906 78 L 492.78125 76.90625 C 491.695312 72.78125 490.054688 68.832031 487.898438 65.132812 L 490.996094 60.484375 C 492.542969 58.164062 492.234375 55.054688 490.261719 53.085938 L 482.765625 45.589844 C 480.796875 43.621094 477.6875 43.3125 475.371094 44.855469 L 470.71875 47.953125 C 467.019531 45.796875 463.070312 44.160156 458.949219 43.074219 L 457.855469 37.601562 C 457.308594 34.867188 454.890625 32.886719 452.105469 32.886719 L 441.503906 32.886719 C 438.71875 32.886719 436.300781 34.867188 435.753906 37.601562 L 434.660156 43.074219 C 430.539062 44.160156 426.589844 45.796875 422.890625 47.953125 L 418.238281 44.855469 C 415.925781 43.3125 412.8125 43.621094 410.84375 45.589844 L 403.347656 53.085938 C 401.375 55.054688 401.066406 58.164062 402.613281 60.484375 L 405.710938 65.132812 C 403.554688 68.832031 401.914062 72.78125 400.832031 76.90625 L 395.355469 78 C 392.625 78.546875 390.640625 80.964844 390.640625 83.75 L 390.640625 94.347656 C 390.640625 97.132812 392.625 99.550781 395.355469 100.097656 L 400.832031 101.191406 C 401.914062 105.316406 403.554688 109.265625 405.710938 112.964844 L 402.613281 117.613281 C 401.066406 119.929688 401.375 123.042969 403.347656 125.011719 L 410.84375 132.507812 C 412.8125 134.476562 415.925781 134.785156 418.238281 133.242188 L 422.890625 130.140625 C 426.589844 132.300781 430.539062 133.9375 434.660156 135.023438 L 435.753906 140.496094 C 436.300781 143.230469 438.71875 145.210938 441.503906 145.210938 L 452.105469 145.210938 C 454.890625 145.210938 457.308594 143.230469 457.855469 140.496094 L 458.949219 135.023438 C 463.070312 133.9375 467.019531 132.300781 470.71875 130.140625 L 475.371094 133.242188 C 477.6875 134.785156 480.796875 134.476562 482.765625 132.507812 L 490.261719 125.011719 C 492.234375 123.042969 492.542969 119.929688 490.996094 117.613281 L 487.898438 112.964844 C 490.054688 109.265625 491.695312 105.316406 492.78125 101.191406 L 498.253906 100.097656 C 500.984375 99.550781 502.96875 97.132812 502.96875 94.347656 L 502.96875 83.75 C 502.96875 80.964844 500.984375 78.546875 498.253906 78 Z M 499.222656 94.347656 C 499.222656 95.355469 498.507812 96.230469 497.519531 96.425781 L 490.886719 97.753906 C 490.167969 97.894531 489.597656 98.445312 489.429688 99.15625 C 488.359375 103.707031 486.558594 108.039062 484.089844 112.03125 C 483.707031 112.652344 483.71875 113.445312 484.125 114.054688 L 487.882812 119.691406 C 488.441406 120.53125 488.328125 121.65625 487.617188 122.367188 L 480.121094 129.863281 C 479.410156 130.570312 478.289062 130.6875 477.449219 130.128906 L 471.8125 126.371094 C 471.203125 125.960938 470.414062 125.953125 469.789062 126.335938 C 465.792969 128.800781 461.460938 130.601562 456.914062 131.675781 C 456.203125 131.84375 455.652344 132.410156 455.511719 133.128906 L 454.183594 139.765625 C 453.984375 140.75 453.113281 141.46875 452.105469 141.46875 L 441.503906 141.46875 C 440.496094 141.46875 439.625 140.75 439.425781 139.765625 L 438.097656 133.128906 C 437.957031 132.410156 437.40625 131.84375 436.695312 131.675781 C 432.148438 130.601562 427.816406 128.804688 423.820312 126.335938 C 423.519531 126.148438 423.175781 126.054688 422.835938 126.054688 C 422.476562 126.054688 422.113281 126.160156 421.796875 126.371094 L 416.160156 130.128906 C 415.320312 130.6875 414.199219 130.570312 413.488281 129.863281 L 405.992188 122.367188 C 405.28125 121.65625 405.167969 120.53125 405.726562 119.691406 L 409.484375 114.054688 C 409.890625 113.445312 409.902344 112.652344 409.519531 112.03125 C 407.050781 108.039062 405.253906 103.707031 404.179688 99.15625 C 404.007812 98.445312 403.441406 97.894531 402.726562 97.753906 L 396.089844 96.425781 C 395.101562 96.230469 394.386719 95.355469 394.386719 94.347656 L 394.386719 83.75 C 394.386719 82.742188 395.101562 81.867188 396.089844 81.671875 L 402.726562 80.34375 C 403.445312 80.203125 404.011719 79.652344 404.179688 78.941406 C 405.253906 74.386719 407.050781 70.058594 409.519531 66.0625 C 409.902344 65.441406 409.890625 64.648438 409.484375 64.042969 L 405.726562 58.40625 C 405.167969 57.566406 405.28125 56.441406 405.992188 55.730469 L 413.488281 48.234375 C 414.199219 47.527344 415.320312 47.414062 416.160156 47.96875 L 421.800781 51.726562 C 422.410156 52.136719 423.199219 52.144531 423.820312 51.761719 C 427.816406 49.296875 432.148438 47.496094 436.695312 46.421875 C 437.40625 46.253906 437.957031 45.6875 438.097656 44.96875 L 439.425781 38.335938 C 439.625 37.347656 440.496094 36.628906 441.503906 36.628906 L 452.105469 36.628906 C 453.113281 36.628906 453.984375 37.347656 454.183594 38.335938 L 455.511719 44.96875 C 455.652344 45.6875 456.203125 46.253906 456.914062 46.421875 C 461.460938 47.496094 465.792969 49.292969 469.789062 51.761719 C 470.410156 52.144531 471.199219 52.136719 471.808594 51.726562 L 477.449219 47.96875 C 478.289062 47.410156 479.410156 47.527344 480.121094 48.234375 L 487.617188 55.730469 C 488.328125 56.441406 488.441406 57.566406 487.882812 58.40625 L 484.125 64.042969 C 483.71875 64.648438 483.707031 65.441406 484.089844 66.0625 C 486.558594 70.058594 488.355469 74.386719 489.429688 78.941406 C 489.601562 79.652344 490.167969 80.203125 490.886719 80.34375 L 497.519531 81.671875 C 498.507812 81.867188 499.222656 82.742188 499.222656 83.75 Z M 499.222656 94.347656 " fill-opacity="1" fill-rule="nonzero"/></g><path fill="#262626" d="M 446.804688 49.734375 C 437.433594 49.734375 428.355469 53.085938 421.25 59.171875 C 420.464844 59.84375 420.371094 61.027344 421.046875 61.8125 C 421.722656 62.601562 422.902344 62.6875 423.6875 62.015625 C 430.117188 56.511719 438.324219 53.476562 446.808594 53.476562 C 466.421875 53.476562 482.375 69.433594 482.375 89.046875 C 482.375 99.242188 478.039062 108.425781 471.144531 114.914062 L 471.144531 107.769531 C 471.144531 103.636719 467.785156 100.28125 463.65625 100.28125 C 461.777344 100.28125 460.019531 100.972656 458.671875 102.183594 C 457.375 101.316406 455.890625 100.71875 454.296875 100.449219 L 454.296875 96.535156 L 456.167969 96.535156 C 462.222656 96.535156 467.378906 92.476562 468.847656 86.71875 C 471.324219 85.757812 473.015625 83.371094 473.015625 80.621094 L 473.015625 78.75 C 473.015625 76.003906 471.328125 73.617188 468.847656 72.652344 C 467.476562 67.292969 462.898438 63.445312 457.382812 62.9375 C 457.21875 62.675781 457.03125 62.429688 456.808594 62.207031 C 456.011719 61.40625 454.953125 60.964844 453.828125 60.964844 L 439.785156 60.964844 C 438.660156 60.964844 437.601562 61.40625 436.804688 62.207031 C 436.582031 62.429688 436.394531 62.679688 436.230469 62.9375 C 430.714844 63.445312 426.136719 67.292969 424.761719 72.652344 C 422.285156 73.617188 420.59375 76.003906 420.59375 78.75 L 420.59375 80.621094 C 420.59375 83.371094 422.285156 85.757812 424.761719 86.71875 C 426.234375 92.476562 431.390625 96.535156 437.445312 96.535156 L 439.316406 96.535156 L 439.316406 100.449219 C 437.71875 100.71875 436.234375 101.3125 434.941406 102.183594 C 433.589844 100.972656 431.835938 100.28125 429.957031 100.28125 C 425.828125 100.28125 422.46875 103.636719 422.46875 107.769531 L 422.46875 114.914062 C 415.570312 108.421875 411.234375 99.242188 411.234375 89.046875 C 411.234375 81.277344 413.691406 73.894531 418.347656 67.703125 C 418.96875 66.878906 418.800781 65.703125 417.976562 65.082031 C 417.152344 64.460938 415.980469 64.628906 415.355469 65.453125 C 410.210938 72.300781 407.492188 80.460938 407.492188 89.050781 C 407.492188 110.726562 425.128906 128.363281 446.808594 128.363281 C 468.484375 128.363281 486.121094 110.726562 486.121094 89.050781 C 486.121094 67.371094 468.484375 49.734375 446.808594 49.734375 Z M 463.652344 115.257812 C 465.023438 115.257812 466.292969 114.859375 467.398438 114.21875 L 467.398438 117.996094 C 466.199219 118.855469 464.957031 119.660156 463.652344 120.363281 Z M 467.398438 107.769531 C 467.398438 109.835938 465.71875 111.515625 463.652344 111.515625 C 463.652344 108.996094 462.8125 106.679688 461.410156 104.804688 C 462.046875 104.320312 462.820312 104.027344 463.652344 104.027344 C 465.71875 104.027344 467.398438 105.703125 467.398438 107.769531 Z M 439.316406 74.070312 L 454.292969 74.070312 C 457.390625 74.070312 459.910156 76.59375 459.910156 79.6875 C 459.910156 82.785156 457.390625 85.304688 454.292969 85.304688 L 439.316406 85.304688 C 436.21875 85.304688 433.699219 82.785156 433.699219 79.6875 C 433.699219 76.59375 436.21875 74.070312 439.316406 74.070312 Z M 439.453125 64.851562 C 439.515625 64.785156 439.628906 64.710938 439.785156 64.710938 L 453.824219 64.710938 C 453.980469 64.710938 454.09375 64.785156 454.15625 64.851562 C 454.207031 64.902344 454.292969 65.015625 454.292969 65.183594 C 454.292969 66.390625 453.640625 67.933594 452.460938 69.523438 C 452.089844 70.027344 451.484375 70.328125 450.835938 70.328125 L 442.773438 70.328125 C 442.125 70.328125 441.519531 70.027344 441.148438 69.523438 C 439.96875 67.929688 439.316406 66.386719 439.316406 65.183594 C 439.316406 65.011719 439.402344 64.902344 439.453125 64.847656 Z M 428.210938 84.933594 C 428.082031 84.140625 427.464844 83.519531 426.675781 83.382812 C 425.320312 83.15625 424.339844 81.996094 424.339844 80.625 L 424.339844 78.753906 C 424.339844 77.382812 425.320312 76.222656 426.675781 75.992188 C 427.464844 75.859375 428.082031 75.238281 428.210938 74.445312 C 428.847656 70.472656 431.882812 67.453125 435.75 66.746094 C 436.035156 68.148438 436.65625 69.457031 437.328125 70.550781 C 433.121094 71.464844 429.957031 75.207031 429.957031 79.6875 C 429.957031 84.847656 434.15625 89.046875 439.316406 89.046875 L 454.292969 89.046875 C 459.453125 89.046875 463.652344 84.847656 463.652344 79.6875 C 463.652344 75.207031 460.488281 71.464844 456.28125 70.550781 C 456.957031 69.453125 457.578125 68.140625 457.863281 66.734375 C 461.707031 67.429688 464.757812 70.457031 465.398438 74.441406 C 465.527344 75.234375 466.144531 75.855469 466.933594 75.992188 C 468.289062 76.21875 469.269531 77.378906 469.269531 78.75 L 469.269531 80.621094 C 469.269531 81.992188 468.289062 83.152344 466.933594 83.382812 C 466.144531 83.515625 465.527344 84.136719 465.398438 84.929688 C 464.667969 89.488281 460.785156 92.792969 456.164062 92.792969 L 437.445312 92.792969 C 432.824219 92.792969 428.941406 89.484375 428.210938 84.929688 Z M 450.550781 96.539062 L 450.550781 100.28125 L 443.0625 100.28125 L 443.0625 96.539062 Z M 429.957031 104.027344 C 430.789062 104.027344 431.5625 104.320312 432.199219 104.804688 C 430.796875 106.679688 429.957031 108.996094 429.957031 111.515625 C 427.890625 111.515625 426.210938 109.835938 426.210938 107.769531 C 426.210938 105.703125 427.890625 104.027344 429.957031 104.027344 Z M 426.210938 114.21875 C 427.316406 114.859375 428.585938 115.257812 429.957031 115.257812 L 429.957031 120.363281 C 428.652344 119.65625 427.410156 118.855469 426.210938 117.996094 Z M 433.699219 122.085938 L 433.699219 111.515625 C 433.699219 107.382812 437.058594 104.027344 441.1875 104.027344 L 452.421875 104.027344 C 456.550781 104.027344 459.910156 107.382812 459.910156 111.515625 L 459.910156 122.085938 C 455.847656 123.703125 451.433594 124.617188 446.804688 124.617188 C 442.175781 124.617188 437.761719 123.703125 433.699219 122.085938 Z M 433.699219 122.085938 " fill-opacity="1" fill-rule="nonzero"/><path fill="#262626" d="M 441.1875 81.554688 C 442.222656 81.554688 443.0625 80.71875 443.0625 79.683594 L 443.0625 79.667969 C 443.0625 78.628906 442.222656 77.804688 441.1875 77.804688 C 440.152344 77.804688 439.316406 78.648438 439.316406 79.683594 C 439.316406 80.71875 440.152344 81.554688 441.1875 81.554688 Z M 441.1875 81.554688 " fill-opacity="1" fill-rule="nonzero"/><path fill="#262626" d="M 452.421875 81.554688 C 453.457031 81.554688 454.292969 80.71875 454.292969 79.683594 L 454.292969 79.667969 C 454.292969 78.628906 453.457031 77.804688 452.421875 77.804688 C 451.386719 77.804688 450.550781 78.648438 450.550781 79.683594 C 450.550781 80.71875 451.386719 81.554688 452.421875 81.554688 Z M 452.421875 81.554688 " fill-opacity="1" fill-rule="nonzero"/><g transform="matrix(1, 0, 0, 1, 25, 36)"><g clip-path="url(#9aa058ef97)"><g fill="#014b93" fill-opacity="1"><g transform="translate(1.747275, 102.941178)"><g><path d="M 90.8125 -69.71875 L 90.8125 -69 C 90.8125 -69.082031 90.8125 -69.140625 90.8125 -69.171875 C 90.8125 -69.210938 90.8125 -69.273438 90.8125 -69.359375 C 90.8125 -69.441406 90.8125 -69.5 90.8125 -69.53125 C 90.8125 -69.570312 90.8125 -69.632812 90.8125 -69.71875 Z M 93.078125 -5.125 C 93.546875 -4.488281 93.703125 -3.535156 93.546875 -2.265625 C 93.304688 -0.671875 92.394531 0.125 90.8125 0.125 L 77.703125 0.125 C 76.671875 0.125 75.835938 -0.113281 75.203125 -0.59375 C 74.960938 -0.75 74.742188 -0.984375 74.546875 -1.296875 C 74.347656 -1.617188 74.128906 -1.941406 73.890625 -2.265625 L 52.3125 -40.515625 L 27.171875 -40.515625 L 27.171875 -4.046875 C 27.171875 -2.222656 26.753906 -1.070312 25.921875 -0.59375 C 25.085938 -0.113281 24.390625 0.125 23.828125 0.125 L 12.984375 0.125 C 12.429688 0.125 11.71875 -0.113281 10.84375 -0.59375 C 9.96875 -1.070312 9.53125 -2.222656 9.53125 -4.046875 L 9.53125 -54.109375 C 9.53125 -55.929688 9.96875 -57.0625 10.84375 -57.5 C 11.71875 -57.9375 12.429688 -58.15625 12.984375 -58.15625 L 64.828125 -58.15625 C 67.847656 -58.15625 69.953125 -59.03125 71.140625 -60.78125 C 72.410156 -62.53125 73.046875 -65.390625 73.046875 -69.359375 C 73.046875 -73.328125 72.410156 -76.1875 71.140625 -77.9375 C 69.953125 -79.6875 67.847656 -80.5625 64.828125 -80.5625 L 12.984375 -80.5625 C 12.429688 -80.5625 11.71875 -80.78125 10.84375 -81.21875 C 9.96875 -81.65625 9.53125 -82.785156 9.53125 -84.609375 L 9.53125 -94.03125 C 9.53125 -95.9375 9.96875 -97.109375 10.84375 -97.546875 C 11.71875 -97.984375 12.429688 -98.203125 12.984375 -98.203125 L 67.921875 -98.203125 C 76.109375 -98.203125 81.988281 -95.660156 85.5625 -90.578125 C 88.976562 -85.648438 90.726562 -78.578125 90.8125 -69.359375 C 90.726562 -60.140625 88.976562 -53.066406 85.5625 -48.140625 C 82.539062 -44.015625 78.09375 -41.59375 72.21875 -40.875 Z M 93.078125 -5.125 "/></g></g></g><g fill="#014b93" fill-opacity="1"><g transform="translate(108.775273, 102.941178)"><g/></g></g><g fill="#014b93" fill-opacity="1"><g transform="translate(173.841276, 102.941178)"><g/></g></g><g fill="#014b93" fill-opacity="1"><g transform="translate(238.94225, 102.941178)"><g><path d="M 92 -67.8125 C 92 -60.257812 90.015625 -54.5 86.046875 -50.53125 C 90.410156 -46.550781 92.59375 -40.628906 92.59375 -32.765625 L 92.59375 -24.78125 C 92.59375 -22.957031 92.515625 -21.191406 92.359375 -19.484375 C 92.203125 -17.773438 91.960938 -16.164062 91.640625 -14.65625 C 91.328125 -13.144531 90.910156 -11.734375 90.390625 -10.421875 C 89.878906 -9.117188 89.222656 -7.910156 88.421875 -6.796875 C 87.078125 -4.648438 85.09375 -2.941406 82.46875 -1.671875 C 80.082031 -0.472656 77.101562 0.125 73.53125 0.125 L 19.90625 0.125 C 18.070312 0.125 16.34375 -0.332031 14.71875 -1.25 C 13.09375 -2.164062 11.800781 -3.414062 10.84375 -5 C 10.207031 -6.113281 9.769531 -7.347656 9.53125 -8.703125 L 9.65625 -90.09375 C 9.8125 -90.570312 9.988281 -91.066406 10.1875 -91.578125 C 10.382812 -92.097656 10.601562 -92.597656 10.84375 -93.078125 C 12.75 -96.171875 15.488281 -97.835938 19.0625 -98.078125 L 19.0625 -98.203125 L 71.734375 -98.203125 C 79.046875 -98.203125 84.253906 -96.175781 87.359375 -92.125 C 90.453125 -88.226562 92 -82.347656 92 -74.484375 Z M 27.046875 -18.234375 C 27.046875 -17.992188 27.066406 -17.832031 27.109375 -17.75 C 27.148438 -17.675781 27.171875 -17.640625 27.171875 -17.640625 L 68.640625 -17.640625 C 71.023438 -17.640625 72.691406 -18.15625 73.640625 -19.1875 C 74.597656 -20.300781 75.078125 -22.207031 75.078125 -24.90625 L 75.078125 -33.015625 C 75.078125 -35.554688 74.5625 -37.460938 73.53125 -38.734375 C 72.414062 -40.003906 70.347656 -40.640625 67.328125 -40.640625 L 44.21875 -40.640625 C 43.175781 -40.640625 42.257812 -41.015625 41.46875 -41.765625 C 40.675781 -42.523438 40.28125 -43.457031 40.28125 -44.5625 L 40.28125 -54.34375 C 40.28125 -55.457031 40.675781 -56.390625 41.46875 -57.140625 C 42.257812 -57.898438 43.175781 -58.28125 44.21875 -58.28125 L 67.328125 -58.28125 C 70.429688 -58.28125 72.457031 -58.832031 73.40625 -59.9375 C 74.4375 -61.050781 74.953125 -62.800781 74.953125 -65.1875 L 74.953125 -73.40625 C 74.953125 -76.03125 74.476562 -77.859375 73.53125 -78.890625 C 72.570312 -80.003906 70.941406 -80.5625 68.640625 -80.5625 L 27.296875 -80.5625 C 27.128906 -80.5625 27.046875 -80.320312 27.046875 -79.84375 Z M 27.046875 -18.234375 "/></g></g></g><g fill="#014b93" fill-opacity="1"><g transform="translate(344.907327, 102.941178)"><g/></g></g><g fill="#014b93" fill-opacity="1"><g transform="translate(409.97333, 102.941178)"><g/></g></g><g fill="#014b93" fill-opacity="1"><g transform="translate(475.074317, 102.941178)"><g><path d="M 91.875 -98.203125 C 92.4375 -98.203125 93.15625 -97.984375 94.03125 -97.546875 C 94.90625 -97.109375 95.34375 -95.972656 95.34375 -94.140625 L 95.34375 -84.84375 C 95.34375 -82.863281 94.90625 -81.65625 94.03125 -81.21875 C 93.15625 -80.78125 92.4375 -80.5625 91.875 -80.5625 L 61.25 -80.5625 L 61.25 -4.046875 C 61.25 -2.222656 60.832031 -1.09375 60 -0.65625 C 59.164062 -0.21875 58.472656 0 57.921875 0 L 46.953125 0 C 46.472656 0 45.796875 -0.21875 44.921875 -0.65625 C 44.046875 -1.09375 43.609375 -2.222656 43.609375 -4.046875 L 43.609375 -80.5625 L 12.984375 -80.5625 C 12.429688 -80.5625 11.71875 -80.78125 10.84375 -81.21875 C 9.96875 -81.65625 9.53125 -82.863281 9.53125 -84.84375 L 9.53125 -94.140625 C 9.53125 -95.972656 9.96875 -97.109375 10.84375 -97.546875 C 11.71875 -97.984375 12.429688 -98.203125 12.984375 -98.203125 Z M 91.875 -98.203125 "/></g></g></g><g fill="#014b93" fill-opacity="1"><g transform="translate(583.756344, 102.941178)"><g><path d="M 23.828125 -98.203125 C 24.304688 -98.203125 24.984375 -97.960938 25.859375 -97.484375 C 26.734375 -97.003906 27.171875 -95.851562 27.171875 -94.03125 L 27.171875 -4.046875 C 27.171875 -2.222656 26.734375 -1.070312 25.859375 -0.59375 C 24.984375 -0.113281 24.304688 0.125 23.828125 0.125 L 12.875 0.125 C 12.394531 0.125 11.71875 -0.113281 10.84375 -0.59375 C 9.96875 -1.070312 9.53125 -2.222656 9.53125 -4.046875 L 9.53125 -94.03125 C 9.53125 -95.851562 9.96875 -97.003906 10.84375 -97.484375 C 11.71875 -97.960938 12.394531 -98.203125 12.875 -98.203125 Z M 23.828125 -98.203125 "/></g></g></g><g fill="#014b93" fill-opacity="1"><g transform="translate(624.273391, 102.941178)"><g><path d="M 82.34375 -98.203125 C 82.820312 -98.203125 83.5 -97.960938 84.375 -97.484375 C 85.25 -97.003906 85.6875 -95.851562 85.6875 -94.03125 L 85.6875 -84.84375 C 85.6875 -82.9375 85.25 -81.742188 84.375 -81.265625 C 83.5 -80.796875 82.820312 -80.5625 82.34375 -80.5625 L 39.5625 -80.5625 C 36.863281 -80.5625 34.800781 -80.28125 33.375 -79.71875 C 31.9375 -79.25 30.742188 -78.378906 29.796875 -77.109375 C 28.921875 -75.910156 28.242188 -74.160156 27.765625 -71.859375 C 27.609375 -70.742188 27.46875 -69.453125 27.34375 -67.984375 C 27.226562 -66.515625 27.171875 -64.867188 27.171875 -63.046875 L 27.171875 -35.28125 C 27.171875 -33.53125 27.226562 -31.898438 27.34375 -30.390625 C 27.46875 -28.878906 27.609375 -27.53125 27.765625 -26.34375 C 28.003906 -25.226562 28.28125 -24.234375 28.59375 -23.359375 C 28.914062 -22.484375 29.316406 -21.726562 29.796875 -21.09375 C 30.742188 -19.820312 31.9375 -18.945312 33.375 -18.46875 C 34.800781 -17.914062 36.863281 -17.640625 39.5625 -17.640625 L 82.34375 -17.640625 C 82.820312 -17.640625 83.5 -17.398438 84.375 -16.921875 C 85.25 -16.441406 85.6875 -15.289062 85.6875 -13.46875 L 85.6875 -4.046875 C 85.6875 -2.222656 85.25 -1.070312 84.375 -0.59375 C 83.5 -0.113281 82.820312 0.125 82.34375 0.125 L 38.96875 0.125 C 33.800781 0.125 29.3125 -0.550781 25.5 -1.90625 C 21.84375 -3.175781 18.785156 -5.363281 16.328125 -8.46875 C 13.859375 -11.644531 12.109375 -15.535156 11.078125 -20.140625 C 10.523438 -22.523438 10.128906 -25.144531 9.890625 -28 C 9.648438 -30.863281 9.53125 -33.960938 9.53125 -37.296875 L 9.53125 -60.890625 C 9.53125 -64.148438 9.648438 -67.207031 9.890625 -70.0625 C 10.128906 -72.925781 10.523438 -75.507812 11.078125 -77.8125 C 12.109375 -82.582031 13.859375 -86.476562 16.328125 -89.5 C 18.628906 -92.519531 21.6875 -94.742188 25.5 -96.171875 C 29.3125 -97.523438 33.800781 -98.203125 38.96875 -98.203125 Z M 82.34375 -98.203125 "/></g></g></g><g fill="#014b93" fill-opacity="1"><g transform="translate(723.30269, 102.941178)"><g><path d="M 73.40625 -87.109375 L 106.890625 -4.53125 C 107.367188 -3.414062 107.488281 -2.460938 107.25 -1.671875 C 107.175781 -1.347656 106.957031 -0.96875 106.59375 -0.53125 C 106.238281 -0.09375 105.585938 0.125 104.640625 0.125 L 91.875 0.125 C 90.207031 0.125 89.054688 -0.75 88.421875 -2.5 L 58.875 -76.265625 C 58.789062 -76.429688 58.75 -76.515625 58.75 -76.515625 L 58.28125 -76.515625 C 58.28125 -76.515625 58.257812 -76.492188 58.21875 -76.453125 C 58.175781 -76.410156 58.113281 -76.3125 58.03125 -76.15625 L 42.78125 -37.546875 L 57.5625 -37.546875 C 59.226562 -37.546875 60.378906 -36.75 61.015625 -35.15625 L 65.3125 -24.546875 C 65.707031 -23.203125 65.546875 -22.050781 64.828125 -21.09375 C 64.191406 -19.976562 63.160156 -19.421875 61.734375 -19.421875 L 35.625 -19.421875 L 28.84375 -2.390625 C 28.207031 -0.710938 27.09375 0.125 25.5 0.125 L 12.390625 0.125 C 11.441406 0.125 10.785156 -0.09375 10.421875 -0.53125 C 10.066406 -0.96875 9.847656 -1.347656 9.765625 -1.671875 C 9.535156 -2.378906 9.617188 -3.332031 10.015625 -4.53125 L 43.265625 -87.109375 C 44.847656 -91.328125 46.59375 -94.226562 48.5 -95.8125 C 48.738281 -95.96875 49.015625 -96.164062 49.328125 -96.40625 C 49.648438 -96.644531 49.972656 -96.84375 50.296875 -97 C 52.671875 -98.675781 55.410156 -99.515625 58.515625 -99.515625 C 61.773438 -99.515625 64.710938 -98.519531 67.328125 -96.53125 C 69.953125 -94.539062 71.738281 -92 72.6875 -88.90625 C 72.851562 -88.664062 72.992188 -88.382812 73.109375 -88.0625 C 73.234375 -87.75 73.332031 -87.429688 73.40625 -87.109375 Z M 73.40625 -87.109375 "/></g></g></g><g fill="#014b93" fill-opacity="1"><g transform="translate(844.140041, 102.941178)"><g/></g></g><g fill="#014b93" fill-opacity="1"><g transform="translate(909.206044, 102.941178)"><g><path d="M 78.53125 -99.859375 C 85.84375 -99.859375 91.164062 -97.71875 94.5 -93.4375 C 98 -89.0625 99.75 -83.457031 99.75 -76.625 L 99.75 -66.609375 C 99.75 -58.828125 97.960938 -52.789062 94.390625 -48.5 C 90.890625 -44.289062 85.679688 -42.1875 78.765625 -42.1875 L 33.375 -42.1875 C 29.238281 -42.1875 27.171875 -39.484375 27.171875 -34.078125 L 27.171875 -20.5 C 27.171875 -18.507812 27.960938 -17.515625 29.546875 -17.515625 L 96.890625 -17.515625 C 98.710938 -17.515625 99.625 -16.441406 99.625 -14.296875 L 99.625 -3.09375 C 99.625 -0.945312 98.710938 0.125 96.890625 0.125 L 20.609375 0.125 C 16.640625 0.125 13.78125 -0.867188 12.03125 -2.859375 C 10.363281 -4.765625 9.53125 -7.820312 9.53125 -12.03125 L 9.53125 -34.078125 C 9.53125 -42.109375 11.28125 -48.148438 14.78125 -52.203125 C 18.269531 -56.484375 23.472656 -58.625 30.390625 -58.625 L 75.796875 -58.625 C 79.921875 -58.625 81.984375 -61.285156 81.984375 -66.609375 L 81.984375 -74.25 C 81.984375 -76.789062 81.507812 -78.773438 80.5625 -80.203125 C 79.601562 -81.628906 77.972656 -82.34375 75.671875 -82.34375 L 21.8125 -82.34375 C 20.0625 -82.34375 19.1875 -83.414062 19.1875 -85.5625 L 19.1875 -96.640625 C 19.1875 -98.785156 20.0625 -99.859375 21.8125 -99.859375 Z M 78.53125 -99.859375 "/></g></g></g><g fill="#014b93" fill-opacity="1"><g transform="translate(1022.297372, 102.941178)"><g><path d="M 98.5625 -44.6875 C 99.269531 -41.75 99.625 -38.332031 99.625 -34.4375 L 99.625 -24.078125 C 99.625 -16.285156 97.992188 -10.363281 94.734375 -6.3125 C 91.398438 -2.019531 85.800781 0.125 77.9375 0.125 L 43.015625 0.125 C 37.054688 0.125 31.929688 -0.550781 27.640625 -1.90625 C 25.503906 -2.539062 23.582031 -3.414062 21.875 -4.53125 C 20.164062 -5.644531 18.632812 -6.957031 17.28125 -8.46875 C 14.582031 -11.5625 12.632812 -15.453125 11.4375 -20.140625 C 10.882812 -22.523438 10.425781 -25.1875 10.0625 -28.125 C 9.707031 -31.0625 9.53125 -34.238281 9.53125 -37.65625 L 9.53125 -62.203125 C 9.53125 -65.617188 9.707031 -68.773438 10.0625 -71.671875 C 10.425781 -74.578125 10.882812 -77.222656 11.4375 -79.609375 C 12.070312 -81.992188 12.882812 -84.140625 13.875 -86.046875 C 14.875 -87.953125 16.007812 -89.660156 17.28125 -91.171875 C 18.632812 -92.679688 20.164062 -93.988281 21.875 -95.09375 C 23.582031 -96.207031 25.503906 -97.082031 27.640625 -97.71875 C 31.859375 -99.144531 36.984375 -99.859375 43.015625 -99.859375 L 87.234375 -99.859375 C 88.984375 -99.859375 89.859375 -98.785156 89.859375 -96.640625 L 89.859375 -85.453125 C 89.859375 -83.378906 88.984375 -82.34375 87.234375 -82.34375 L 43.015625 -82.34375 C 40.078125 -82.34375 37.535156 -82.023438 35.390625 -81.390625 C 33.328125 -80.835938 31.703125 -79.765625 30.515625 -78.171875 C 29.316406 -76.585938 28.476562 -74.601562 28 -72.21875 C 27.53125 -69.757812 27.296875 -66.617188 27.296875 -62.796875 L 27.296875 -36.828125 C 27.296875 -33.171875 27.53125 -30.03125 28 -27.40625 C 28.476562 -24.863281 29.316406 -22.878906 30.515625 -21.453125 C 31.785156 -19.941406 33.410156 -18.910156 35.390625 -18.359375 C 37.535156 -17.722656 40.078125 -17.40625 43.015625 -17.40625 L 75.078125 -17.40625 C 77.535156 -17.40625 79.320312 -18.078125 80.4375 -19.421875 C 81.550781 -20.773438 82.109375 -22.960938 82.109375 -25.984375 L 82.109375 -34.4375 C 82.109375 -37.457031 81.59375 -39.601562 80.5625 -40.875 C 79.445312 -42.226562 77.660156 -42.90625 75.203125 -42.90625 L 44.5625 -42.90625 C 43.769531 -42.90625 43.078125 -43.179688 42.484375 -43.734375 C 41.890625 -44.285156 41.59375 -44.960938 41.59375 -45.765625 L 41.59375 -55.65625 C 41.59375 -56.53125 41.890625 -57.242188 42.484375 -57.796875 C 43.078125 -58.347656 43.769531 -58.625 44.5625 -58.625 L 78.765625 -58.625 C 82.421875 -58.625 85.679688 -58.070312 88.546875 -56.96875 C 91.085938 -55.9375 93.234375 -54.347656 94.984375 -52.203125 C 96.648438 -50.210938 97.84375 -47.707031 98.5625 -44.6875 Z M 98.5625 -44.6875 "/></g></g></g></g></g><g clip-path="url(#b896e2d9bc)"><g clip-path="url(#212c72b388)"><g transform="matrix(1, 0, 0, 1, 27, 161)"><g clip-path="url(#da158a3161)"><g clip-path="url(#d14f64158e)"><g clip-path="url(#1a4a5d772e)"><path fill="#c9042d" d="M 0.757812 0.492188 L 1124.253906 0.492188 L 1124.253906 93.121094 L 0.757812 93.121094 Z M 0.757812 0.492188 " fill-opacity="1" fill-rule="nonzero"/></g></g></g></g></g></g><g transform="matrix(1, 0, 0, 1, 860, 53)"><g clip-path="url(#b763baa27a)"><g fill="#000000" fill-opacity="1"><g transform="translate(0.397003, 99.780269)"><g><path d="M 14.46875 -48.601562 C 12.066406 -48.601562 10.148438 -49.371094 8.722656 -50.914062 C 7.386719 -52.359375 6.714844 -54.261719 6.714844 -56.628906 L 6.714844 -64.621094 C 6.714844 -66.984375 7.386719 -68.890625 8.722656 -70.335938 C 10.148438 -71.875 12.066406 -72.644531 14.46875 -72.644531 L 56.765625 -72.644531 C 59.167969 -72.644531 61.082031 -71.875 62.507812 -70.335938 C 63.847656 -68.890625 64.515625 -66.984375 64.515625 -64.621094 L 64.515625 -56.628906 C 64.515625 -54.261719 63.847656 -52.359375 62.507812 -50.914062 C 61.082031 -49.371094 59.167969 -48.601562 56.765625 -48.601562 Z M 14.46875 -57.214844 L 56.765625 -57.214844 C 56.832031 -57.214844 56.882812 -57.214844 56.917969 -57.222656 C 56.894531 -57.21875 56.859375 -57.207031 56.8125 -57.191406 C 56.585938 -57.109375 56.378906 -56.96875 56.1875 -56.761719 C 56.03125 -56.59375 55.929688 -56.429688 55.878906 -56.269531 C 55.894531 -56.320312 55.902344 -56.441406 55.902344 -56.628906 L 55.902344 -64.621094 C 55.902344 -64.804688 55.894531 -64.925781 55.878906 -64.976562 C 55.929688 -64.816406 56.03125 -64.652344 56.1875 -64.484375 C 56.378906 -64.28125 56.585938 -64.136719 56.8125 -64.054688 C 56.859375 -64.039062 56.894531 -64.027344 56.917969 -64.023438 C 56.882812 -64.03125 56.832031 -64.03125 56.765625 -64.03125 L 14.46875 -64.03125 C 14.398438 -64.03125 14.351562 -64.03125 14.316406 -64.023438 C 14.339844 -64.027344 14.375 -64.039062 14.417969 -64.054688 C 14.648438 -64.136719 14.855469 -64.28125 15.042969 -64.484375 C 15.199219 -64.652344 15.304688 -64.816406 15.351562 -64.976562 C 15.335938 -64.925781 15.328125 -64.804688 15.328125 -64.621094 L 15.328125 -56.628906 C 15.328125 -56.441406 15.335938 -56.320312 15.351562 -56.269531 C 15.304688 -56.429688 15.199219 -56.59375 15.042969 -56.761719 C 14.855469 -56.96875 14.648438 -57.109375 14.417969 -57.191406 C 14.375 -57.207031 14.339844 -57.21875 14.316406 -57.222656 C 14.351562 -57.214844 14.398438 -57.214844 14.46875 -57.214844 Z M 14.46875 -57.214844 "/></g></g></g><g fill="#c9042d" fill-opacity="1"><g transform="translate(0.397003, 99.780269)"><g><path d="M 14.46875 -52.90625 C 12.164062 -52.90625 11.015625 -54.144531 11.015625 -56.625 L 11.015625 -64.625 C 11.015625 -67.101562 12.164062 -68.34375 14.46875 -68.34375 L 56.765625 -68.34375 C 59.054688 -68.34375 60.203125 -67.101562 60.203125 -64.625 L 60.203125 -56.625 C 60.203125 -54.144531 59.054688 -52.90625 56.765625 -52.90625 Z M 14.46875 -52.90625 "/></g></g></g></g></g><path fill="#c9042d" d="M 1164.429688 27.730469 L 1164.429688 42.753906 L 1158.683594 42.753906 L 1158.683594 27.730469 L 1154.589844 27.730469 L 1154.589844 22.996094 L 1168.527344 22.996094 L 1168.527344 27.730469 L 1164.429688 27.730469 " fill-opacity="1" fill-rule="nonzero"/><path fill="#c9042d" d="M 1191.726562 22.996094 L 1191.726562 42.753906 L 1186.09375 42.753906 L 1186.09375 28.628906 L 1182.441406 42.753906 L 1178.589844 42.753906 L 1174.792969 28.628906 L 1174.792969 42.753906 L 1170.25 42.753906 L 1170.25 22.996094 L 1178.171875 22.996094 L 1181.035156 33.488281 L 1183.773438 22.996094 L 1191.726562 22.996094 " fill-opacity="1" fill-rule="nonzero"/><g clip-path="url(#743c220e8c)"><path fill="#c9042d" d="M 1173.15625 7.917969 C 1159.390625 7.917969 1148.191406 19.117188 1148.191406 32.882812 C 1148.191406 46.648438 1159.390625 57.847656 1173.15625 57.847656 C 1186.921875 57.847656 1198.125 46.648438 1198.125 32.882812 C 1198.125 19.117188 1186.921875 7.917969 1173.15625 7.917969 Z M 1173.15625 62.714844 C 1169.128906 62.714844 1165.222656 61.925781 1161.542969 60.367188 C 1157.992188 58.867188 1154.800781 56.714844 1152.0625 53.976562 C 1149.324219 51.238281 1147.175781 48.046875 1145.671875 44.496094 C 1144.117188 40.816406 1143.328125 36.910156 1143.328125 32.882812 C 1143.328125 28.855469 1144.117188 24.949219 1145.671875 21.269531 C 1147.175781 17.71875 1149.324219 14.527344 1152.0625 11.789062 C 1154.800781 9.050781 1157.992188 6.898438 1161.542969 5.398438 C 1165.222656 3.839844 1169.132812 3.050781 1173.15625 3.050781 C 1177.183594 3.050781 1181.089844 3.839844 1184.769531 5.398438 C 1188.320312 6.898438 1191.511719 9.050781 1194.25 11.789062 C 1196.988281 14.527344 1199.140625 17.71875 1200.640625 21.269531 C 1202.199219 24.949219 1202.988281 28.855469 1202.988281 32.882812 C 1202.988281 36.910156 1202.199219 40.816406 1200.640625 44.496094 C 1199.140625 48.046875 1196.988281 51.238281 1194.25 53.976562 C 1191.511719 56.714844 1188.320312 58.867188 1184.769531 60.367188 C 1181.089844 61.925781 1177.183594 62.714844 1173.15625 62.714844 " fill-opacity="1" fill-rule="nonzero"/></g><g transform="matrix(1, 0, 0, 1, 60, 182)"><g clip-path="url(#548b165ed7)"><g clip-path="url(#becfbff9b9)"><g transform="matrix(1, 0, 0, 1, 0, 1)"><g clip-path="url(#42695c847f)"><g fill="#ffffff" fill-opacity="1"><g transform="translate(3.311076, 34.629342)"><g><path d="M 0.390625 -26.203125 L 21.53125 -26.203125 L 7.359375 0 L 0.6875 0 L 12.59375 -20.890625 L 0.390625 -20.890625 Z M 0.390625 -26.203125 "/></g></g></g><g fill="#ffffff" fill-opacity="1"><g transform="translate(28.134505, 34.629342)"><g/></g></g><g fill="#ffffff" fill-opacity="1"><g transform="translate(41.423415, 34.629342)"><g/></g></g><g fill="#ffffff" fill-opacity="1"><g transform="translate(54.712326, 34.629342)"><g/></g></g><g fill="#ffffff" fill-opacity="1"><g transform="translate(68.044965, 34.629342)"><g><path d="M 8.09375 0 L 2.3125 0 L 2.3125 -26.203125 L 8.09375 -26.203125 Z M 8.09375 0 "/></g></g></g><g fill="#ffffff" fill-opacity="1"><g transform="translate(82.103997, 34.629342)"><g><path d="M 22.890625 0 L 17.109375 0 L 8.09375 -16.34375 L 8.09375 0 L 2.3125 0 L 2.3125 -26.203125 L 8.09375 -26.203125 L 17.109375 -9.859375 L 17.109375 -26.203125 L 22.890625 -26.203125 Z M 22.890625 0 "/></g></g></g><g fill="#ffffff" fill-opacity="1"><g transform="translate(110.949823, 34.629342)"><g><path d="M 13.453125 -20.96875 L 13.453125 0 L 7.671875 0 L 7.671875 -20.96875 L 0.1875 -20.96875 L 0.1875 -26.203125 L 20.921875 -26.203125 L 20.921875 -20.96875 Z M 13.453125 -20.96875 "/></g></g></g><g fill="#ffffff" fill-opacity="1"><g transform="translate(135.71389, 34.629342)"><g><path d="M 17.5 -5.234375 L 17.5 0 L 2.3125 0 L 2.3125 -26.203125 L 17.5 -26.203125 L 17.5 -20.96875 L 8.09375 -20.96875 L 8.09375 -15.765625 L 17.109375 -15.765625 L 17.109375 -10.515625 L 8.09375 -10.515625 L 8.09375 -5.234375 Z M 17.5 -5.234375 "/></g></g></g><g fill="#ffffff" fill-opacity="1"><g transform="translate(159.168695, 34.629342)"><g><path d="M 8.09375 -9.359375 L 8.09375 0 L 2.3125 0 L 2.3125 -26.203125 L 12.140625 -26.203125 C 13.546875 -26.203125 14.859375 -25.847656 16.078125 -25.140625 C 17.304688 -24.429688 18.289062 -23.445312 19.03125 -22.1875 C 19.78125 -20.9375 20.15625 -19.472656 20.15625 -17.796875 C 20.15625 -16.335938 19.882812 -15.039062 19.34375 -13.90625 C 18.800781 -12.78125 18.082031 -11.859375 17.1875 -11.140625 C 16.289062 -10.421875 15.285156 -9.921875 14.171875 -9.640625 L 21.6875 0 L 14.375 0 L 8.125 -9.359375 Z M 11.171875 -21.65625 L 8.09375 -21.65625 L 8.09375 -13.90625 L 11.171875 -13.90625 C 12.023438 -13.90625 12.816406 -14.238281 13.546875 -14.90625 C 14.273438 -15.570312 14.640625 -16.535156 14.640625 -17.796875 C 14.640625 -19.003906 14.273438 -19.945312 13.546875 -20.625 C 12.816406 -21.3125 12.023438 -21.65625 11.171875 -21.65625 Z M 11.171875 -21.65625 "/></g></g></g><g fill="#ffffff" fill-opacity="1"><g transform="translate(184.048274, 34.629342)"><g><path d="M 22.890625 0 L 17.109375 0 L 8.09375 -16.34375 L 8.09375 0 L 2.3125 0 L 2.3125 -26.203125 L 8.09375 -26.203125 L 17.109375 -9.859375 L 17.109375 -26.203125 L 22.890625 -26.203125 Z M 22.890625 0 "/></g></g></g><g fill="#ffffff" fill-opacity="1"><g transform="translate(212.894101, 34.629342)"><g><path d="M 16.5625 -10.015625 L 13.25 -19.34375 L 9.9375 -10.015625 Z M 26.359375 0 L 20.15625 0 L 18.265625 -5.28125 L 8.28125 -5.28125 L 6.390625 0 L 0.1875 0 L 10.828125 -26.203125 L 15.71875 -26.203125 Z M 26.359375 0 "/></g></g></g><g fill="#ffffff" fill-opacity="1"><g transform="translate(243.087693, 34.629342)"><g><path d="M 13.453125 -20.96875 L 13.453125 0 L 7.671875 0 L 7.671875 -20.96875 L 0.1875 -20.96875 L 0.1875 -26.203125 L 20.921875 -26.203125 L 20.921875 -20.96875 Z M 13.453125 -20.96875 "/></g></g></g><g fill="#ffffff" fill-opacity="1"><g transform="translate(267.85176, 34.629342)"><g><path d="M 8.09375 0 L 2.3125 0 L 2.3125 -26.203125 L 8.09375 -26.203125 Z M 8.09375 0 "/></g></g></g><g fill="#ffffff" fill-opacity="1"><g transform="translate(281.910792, 34.629342)"><g><path d="M 22.546875 -13.140625 C 22.546875 -14.503906 22.1875 -15.769531 21.46875 -16.9375 C 20.75 -18.101562 19.800781 -19.046875 18.625 -19.765625 C 17.457031 -20.484375 16.191406 -20.84375 14.828125 -20.84375 C 13.492188 -20.84375 12.234375 -20.484375 11.046875 -19.765625 C 9.867188 -19.046875 8.921875 -18.101562 8.203125 -16.9375 C 7.484375 -15.769531 7.125 -14.503906 7.125 -13.140625 C 7.125 -11.804688 7.484375 -10.546875 8.203125 -9.359375 C 8.921875 -8.179688 9.867188 -7.222656 11.046875 -6.484375 C 12.234375 -5.753906 13.492188 -5.390625 14.828125 -5.390625 C 16.191406 -5.390625 17.457031 -5.753906 18.625 -6.484375 C 19.800781 -7.222656 20.75 -8.179688 21.46875 -9.359375 C 22.1875 -10.546875 22.546875 -11.804688 22.546875 -13.140625 Z M 28.328125 -13.09375 C 28.328125 -11.300781 27.960938 -9.585938 27.234375 -7.953125 C 26.515625 -6.328125 25.53125 -4.890625 24.28125 -3.640625 C 23.039062 -2.390625 21.609375 -1.40625 19.984375 -0.6875 C 18.367188 0.03125 16.648438 0.390625 14.828125 0.390625 C 13.035156 0.390625 11.320312 0.03125 9.6875 -0.6875 C 8.0625 -1.40625 6.625 -2.390625 5.375 -3.640625 C 4.125 -4.890625 3.140625 -6.328125 2.421875 -7.953125 C 1.703125 -9.585938 1.34375 -11.300781 1.34375 -13.09375 C 1.34375 -14.925781 1.703125 -16.648438 2.421875 -18.265625 C 3.140625 -19.878906 4.125 -21.304688 5.375 -22.546875 C 6.625 -23.796875 8.0625 -24.78125 9.6875 -25.5 C 11.320312 -26.226562 13.035156 -26.59375 14.828125 -26.59375 C 16.648438 -26.59375 18.367188 -26.226562 19.984375 -25.5 C 21.609375 -24.78125 23.039062 -23.796875 24.28125 -22.546875 C 25.53125 -21.304688 26.515625 -19.878906 27.234375 -18.265625 C 27.960938 -16.648438 28.328125 -14.925781 28.328125 -13.09375 Z M 28.328125 -13.09375 "/></g></g></g><g fill="#ffffff" fill-opacity="1"><g transform="translate(315.22346, 34.629342)"><g><path d="M 22.890625 0 L 17.109375 0 L 8.09375 -16.34375 L 8.09375 0 L 2.3125 0 L 2.3125 -26.203125 L 8.09375 -26.203125 L 17.109375 -9.859375 L 17.109375 -26.203125 L 22.890625 -26.203125 Z M 22.890625 0 "/></g></g></g><g fill="#ffffff" fill-opacity="1"><g transform="translate(344.069286, 34.629342)"><g><path d="M 16.5625 -10.015625 L 13.25 -19.34375 L 9.9375 -10.015625 Z M 26.359375 0 L 20.15625 0 L 18.265625 -5.28125 L 8.28125 -5.28125 L 6.390625 0 L 0.1875 0 L 10.828125 -26.203125 L 15.71875 -26.203125 Z M 26.359375 0 "/></g></g></g><g fill="#ffffff" fill-opacity="1"><g transform="translate(374.262879, 34.629342)"><g><path d="M 2.3125 0 L 2.3125 -26.203125 L 8.09375 -26.203125 L 8.09375 -5.234375 L 17.5 -5.234375 L 17.5 0 Z M 2.3125 0 "/></g></g></g><g fill="#ffffff" fill-opacity="1"><g transform="translate(396.755, 34.629342)"><g/></g></g><g fill="#ffffff" fill-opacity="1"><g transform="translate(410.04391, 34.629342)"><g><path d="M 2.3125 0 L 2.3125 -26.203125 L 8.09375 -26.203125 L 8.09375 -5.234375 L 17.5 -5.234375 L 17.5 0 Z M 2.3125 0 "/></g></g></g><g fill="#ffffff" fill-opacity="1"><g transform="translate(432.536031, 34.629342)"><g><path d="M 17.5 -5.234375 L 17.5 0 L 2.3125 0 L 2.3125 -26.203125 L 17.5 -26.203125 L 17.5 -20.96875 L 8.09375 -20.96875 L 8.09375 -15.765625 L 17.109375 -15.765625 L 17.109375 -10.515625 L 8.09375 -10.515625 L 8.09375 -5.234375 Z M 17.5 -5.234375 "/></g></g></g><g fill="#ffffff" fill-opacity="1"><g transform="translate(455.990836, 34.629342)"><g><path d="M 26.359375 -26.203125 L 15.765625 0 L 10.78125 0 L 0.1875 -26.203125 L 6.4375 -26.203125 L 11.828125 -11.484375 L 13.25 -7.359375 L 14.6875 -11.484375 L 20.109375 -26.203125 Z M 26.359375 -26.203125 "/></g></g></g><g fill="#ffffff" fill-opacity="1"><g transform="translate(486.184429, 34.629342)"><g><path d="M 17.5 -5.234375 L 17.5 0 L 2.3125 0 L 2.3125 -26.203125 L 17.5 -26.203125 L 17.5 -20.96875 L 8.09375 -20.96875 L 8.09375 -15.765625 L 17.109375 -15.765625 L 17.109375 -10.515625 L 8.09375 -10.515625 L 8.09375 -5.234375 Z M 17.5 -5.234375 "/></g></g></g><g fill="#ffffff" fill-opacity="1"><g transform="translate(509.639234, 34.629342)"><g><path d="M 2.3125 0 L 2.3125 -26.203125 L 8.09375 -26.203125 L 8.09375 -5.234375 L 17.5 -5.234375 L 17.5 0 Z M 2.3125 0 "/></g></g></g><g fill="#ffffff" fill-opacity="1"><g transform="translate(532.131355, 34.629342)"><g/></g></g><g fill="#ffffff" fill-opacity="1"><g transform="translate(545.420265, 34.629342)"><g><path d="M 8.09375 -9.359375 L 8.09375 0 L 2.3125 0 L 2.3125 -26.203125 L 12.140625 -26.203125 C 13.546875 -26.203125 14.859375 -25.847656 16.078125 -25.140625 C 17.304688 -24.429688 18.289062 -23.445312 19.03125 -22.1875 C 19.78125 -20.9375 20.15625 -19.472656 20.15625 -17.796875 C 20.15625 -16.335938 19.882812 -15.039062 19.34375 -13.90625 C 18.800781 -12.78125 18.082031 -11.859375 17.1875 -11.140625 C 16.289062 -10.421875 15.285156 -9.921875 14.171875 -9.640625 L 21.6875 0 L 14.375 0 L 8.125 -9.359375 Z M 11.171875 -21.65625 L 8.09375 -21.65625 L 8.09375 -13.90625 L 11.171875 -13.90625 C 12.023438 -13.90625 12.816406 -14.238281 13.546875 -14.90625 C 14.273438 -15.570312 14.640625 -16.535156 14.640625 -17.796875 C 14.640625 -19.003906 14.273438 -19.945312 13.546875 -20.625 C 12.816406 -21.3125 12.023438 -21.65625 11.171875 -21.65625 Z M 11.171875 -21.65625 "/></g></g></g><g fill="#ffffff" fill-opacity="1"><g transform="translate(570.299844, 34.629342)"><g><path d="M 22.546875 -13.140625 C 22.546875 -14.503906 22.1875 -15.769531 21.46875 -16.9375 C 20.75 -18.101562 19.800781 -19.046875 18.625 -19.765625 C 17.457031 -20.484375 16.191406 -20.84375 14.828125 -20.84375 C 13.492188 -20.84375 12.234375 -20.484375 11.046875 -19.765625 C 9.867188 -19.046875 8.921875 -18.101562 8.203125 -16.9375 C 7.484375 -15.769531 7.125 -14.503906 7.125 -13.140625 C 7.125 -11.804688 7.484375 -10.546875 8.203125 -9.359375 C 8.921875 -8.179688 9.867188 -7.222656 11.046875 -6.484375 C 12.234375 -5.753906 13.492188 -5.390625 14.828125 -5.390625 C 16.191406 -5.390625 17.457031 -5.753906 18.625 -6.484375 C 19.800781 -7.222656 20.75 -8.179688 21.46875 -9.359375 C 22.1875 -10.546875 22.546875 -11.804688 22.546875 -13.140625 Z M 28.328125 -13.09375 C 28.328125 -11.300781 27.960938 -9.585938 27.234375 -7.953125 C 26.515625 -6.328125 25.53125 -4.890625 24.28125 -3.640625 C 23.039062 -2.390625 21.609375 -1.40625 19.984375 -0.6875 C 18.367188 0.03125 16.648438 0.390625 14.828125 0.390625 C 13.035156 0.390625 11.320312 0.03125 9.6875 -0.6875 C 8.0625 -1.40625 6.625 -2.390625 5.375 -3.640625 C 4.125 -4.890625 3.140625 -6.328125 2.421875 -7.953125 C 1.703125 -9.585938 1.34375 -11.300781 1.34375 -13.09375 C 1.34375 -14.925781 1.703125 -16.648438 2.421875 -18.265625 C 3.140625 -19.878906 4.125 -21.304688 5.375 -22.546875 C 6.625 -23.796875 8.0625 -24.78125 9.6875 -25.5 C 11.320312 -26.226562 13.035156 -26.59375 14.828125 -26.59375 C 16.648438 -26.59375 18.367188 -26.226562 19.984375 -25.5 C 21.609375 -24.78125 23.039062 -23.796875 24.28125 -22.546875 C 25.53125 -21.304688 26.515625 -19.878906 27.234375 -18.265625 C 27.960938 -16.648438 28.328125 -14.925781 28.328125 -13.09375 Z M 28.328125 -13.09375 "/></g></g></g><g fill="#ffffff" fill-opacity="1"><g transform="translate(603.612512, 34.629342)"><g><path d="M 14.953125 -7.671875 C 14.953125 -8.515625 14.632812 -9.25 14 -9.875 C 13.375 -10.507812 12.625 -10.828125 11.75 -10.828125 L 8.09375 -10.828125 L 8.09375 -4.515625 L 11.75 -4.515625 C 12.625 -4.515625 13.375 -4.820312 14 -5.4375 C 14.632812 -6.050781 14.953125 -6.796875 14.953125 -7.671875 Z M 13.140625 -18.609375 C 13.140625 -19.453125 12.835938 -20.171875 12.234375 -20.765625 C 11.628906 -21.359375 10.914062 -21.65625 10.09375 -21.65625 L 8.09375 -21.65625 L 8.09375 -15.5625 L 10.09375 -15.5625 C 10.914062 -15.5625 11.628906 -15.863281 12.234375 -16.46875 C 12.835938 -17.070312 13.140625 -17.785156 13.140625 -18.609375 Z M 20.84375 -7.515625 C 20.84375 -5.253906 20.148438 -3.4375 18.765625 -2.0625 C 17.378906 -0.6875 15.425781 0 12.90625 0 L 2.3125 0 L 2.3125 -26.203125 L 11.328125 -26.203125 C 12.816406 -26.203125 14.109375 -25.90625 15.203125 -25.3125 C 16.296875 -24.71875 17.144531 -23.925781 17.75 -22.9375 C 18.351562 -21.957031 18.65625 -20.863281 18.65625 -19.65625 C 18.65625 -18.3125 18.378906 -17.15625 17.828125 -16.1875 C 17.273438 -15.226562 16.507812 -14.535156 15.53125 -14.109375 C 16.988281 -13.765625 18.238281 -13.019531 19.28125 -11.875 C 20.320312 -10.738281 20.84375 -9.285156 20.84375 -7.515625 Z M 20.84375 -7.515625 "/></g></g></g><g fill="#ffffff" fill-opacity="1"><g transform="translate(628.492091, 34.629342)"><g><path d="M 22.546875 -13.140625 C 22.546875 -14.503906 22.1875 -15.769531 21.46875 -16.9375 C 20.75 -18.101562 19.800781 -19.046875 18.625 -19.765625 C 17.457031 -20.484375 16.191406 -20.84375 14.828125 -20.84375 C 13.492188 -20.84375 12.234375 -20.484375 11.046875 -19.765625 C 9.867188 -19.046875 8.921875 -18.101562 8.203125 -16.9375 C 7.484375 -15.769531 7.125 -14.503906 7.125 -13.140625 C 7.125 -11.804688 7.484375 -10.546875 8.203125 -9.359375 C 8.921875 -8.179688 9.867188 -7.222656 11.046875 -6.484375 C 12.234375 -5.753906 13.492188 -5.390625 14.828125 -5.390625 C 16.191406 -5.390625 17.457031 -5.753906 18.625 -6.484375 C 19.800781 -7.222656 20.75 -8.179688 21.46875 -9.359375 C 22.1875 -10.546875 22.546875 -11.804688 22.546875 -13.140625 Z M 28.328125 -13.09375 C 28.328125 -11.300781 27.960938 -9.585938 27.234375 -7.953125 C 26.515625 -6.328125 25.53125 -4.890625 24.28125 -3.640625 C 23.039062 -2.390625 21.609375 -1.40625 19.984375 -0.6875 C 18.367188 0.03125 16.648438 0.390625 14.828125 0.390625 C 13.035156 0.390625 11.320312 0.03125 9.6875 -0.6875 C 8.0625 -1.40625 6.625 -2.390625 5.375 -3.640625 C 4.125 -4.890625 3.140625 -6.328125 2.421875 -7.953125 C 1.703125 -9.585938 1.34375 -11.300781 1.34375 -13.09375 C 1.34375 -14.925781 1.703125 -16.648438 2.421875 -18.265625 C 3.140625 -19.878906 4.125 -21.304688 5.375 -22.546875 C 6.625 -23.796875 8.0625 -24.78125 9.6875 -25.5 C 11.320312 -26.226562 13.035156 -26.59375 14.828125 -26.59375 C 16.648438 -26.59375 18.367188 -26.226562 19.984375 -25.5 C 21.609375 -24.78125 23.039062 -23.796875 24.28125 -22.546875 C 25.53125 -21.304688 26.515625 -19.878906 27.234375 -18.265625 C 27.960938 -16.648438 28.328125 -14.925781 28.328125 -13.09375 Z M 28.328125 -13.09375 "/></g></g></g><g fill="#ffffff" fill-opacity="1"><g transform="translate(661.804759, 34.629342)"><g><path d="M 13.453125 -20.96875 L 13.453125 0 L 7.671875 0 L 7.671875 -20.96875 L 0.1875 -20.96875 L 0.1875 -26.203125 L 20.921875 -26.203125 L 20.921875 -20.96875 Z M 13.453125 -20.96875 "/></g></g></g><g fill="#ffffff" fill-opacity="1"><g transform="translate(686.568826, 34.629342)"><g><path d="M 8.09375 0 L 2.3125 0 L 2.3125 -26.203125 L 8.09375 -26.203125 Z M 8.09375 0 "/></g></g></g><g fill="#ffffff" fill-opacity="1"><g transform="translate(700.627858, 34.629342)"><g><path d="M 21.234375 -8.90625 L 27.671875 -8.90625 C 27.078125 -7.101562 26.148438 -5.5 24.890625 -4.09375 C 23.628906 -2.695312 22.140625 -1.597656 20.421875 -0.796875 C 18.703125 -0.00390625 16.835938 0.390625 14.828125 0.390625 C 12.984375 0.390625 11.242188 0.0390625 9.609375 -0.65625 C 7.984375 -1.351562 6.546875 -2.320312 5.296875 -3.5625 C 4.046875 -4.8125 3.070312 -6.25 2.375 -7.875 C 1.6875 -9.507812 1.34375 -11.25 1.34375 -13.09375 C 1.34375 -14.945312 1.6875 -16.6875 2.375 -18.3125 C 3.070312 -19.945312 4.046875 -21.382812 5.296875 -22.625 C 6.546875 -23.875 7.984375 -24.847656 9.609375 -25.546875 C 11.242188 -26.242188 12.984375 -26.59375 14.828125 -26.59375 C 16.835938 -26.59375 18.695312 -26.191406 20.40625 -25.390625 C 22.113281 -24.597656 23.59375 -23.515625 24.84375 -22.140625 C 26.101562 -20.765625 27.03125 -19.175781 27.625 -17.375 L 21.1875 -17.375 C 20.65625 -18.5625 19.796875 -19.492188 18.609375 -20.171875 C 17.429688 -20.847656 16.171875 -21.1875 14.828125 -21.1875 C 13.421875 -21.1875 12.140625 -20.820312 10.984375 -20.09375 C 9.828125 -19.363281 8.90625 -18.382812 8.21875 -17.15625 C 7.539062 -15.9375 7.203125 -14.582031 7.203125 -13.09375 C 7.203125 -11.601562 7.539062 -10.25 8.21875 -9.03125 C 8.90625 -7.8125 9.828125 -6.835938 10.984375 -6.109375 C 12.140625 -5.378906 13.421875 -5.015625 14.828125 -5.015625 C 16.191406 -5.015625 17.460938 -5.375 18.640625 -6.09375 C 19.828125 -6.8125 20.691406 -7.75 21.234375 -8.90625 Z M 21.234375 -8.90625 "/></g></g></g><g fill="#ffffff" fill-opacity="1"><g transform="translate(732.900834, 34.629342)"><g><path d="M 12.484375 -4.078125 C 13.097656 -4.078125 13.765625 -4.171875 14.484375 -4.359375 C 15.203125 -4.554688 15.820312 -4.878906 16.34375 -5.328125 C 16.875 -5.785156 17.140625 -6.398438 17.140625 -7.171875 C 17.140625 -7.890625 16.863281 -8.46875 16.3125 -8.90625 C 15.757812 -9.34375 15.035156 -9.703125 14.140625 -9.984375 C 13.242188 -10.265625 12.257812 -10.523438 11.1875 -10.765625 C 10.125 -11.015625 9.050781 -11.3125 7.96875 -11.65625 C 6.894531 -12 5.90625 -12.453125 5 -13.015625 C 4.101562 -13.585938 3.378906 -14.320312 2.828125 -15.21875 C 2.273438 -16.113281 2 -17.257812 2 -18.65625 C 2 -20.007812 2.28125 -21.179688 2.84375 -22.171875 C 3.414062 -23.160156 4.171875 -23.984375 5.109375 -24.640625 C 6.046875 -25.296875 7.097656 -25.785156 8.265625 -26.109375 C 9.429688 -26.429688 10.609375 -26.59375 11.796875 -26.59375 C 13.585938 -26.59375 15.265625 -26.304688 16.828125 -25.734375 C 18.398438 -25.171875 19.679688 -24.28125 20.671875 -23.0625 C 21.660156 -21.84375 22.179688 -20.226562 22.234375 -18.21875 L 16.640625 -18.21875 C 16.492188 -19.582031 16.019531 -20.523438 15.21875 -21.046875 C 14.425781 -21.578125 13.3125 -21.84375 11.875 -21.84375 C 11.332031 -21.84375 10.757812 -21.753906 10.15625 -21.578125 C 9.550781 -21.398438 9.035156 -21.109375 8.609375 -20.703125 C 8.179688 -20.304688 7.96875 -19.773438 7.96875 -19.109375 C 7.96875 -18.441406 8.242188 -17.914062 8.796875 -17.53125 C 9.359375 -17.144531 10.085938 -16.820312 10.984375 -16.5625 C 11.878906 -16.3125 12.863281 -16.066406 13.9375 -15.828125 C 15.019531 -15.597656 16.09375 -15.316406 17.15625 -14.984375 C 18.226562 -14.648438 19.210938 -14.191406 20.109375 -13.609375 C 21.015625 -13.035156 21.742188 -12.285156 22.296875 -11.359375 C 22.847656 -10.441406 23.125 -9.265625 23.125 -7.828125 C 23.125 -6.285156 22.8125 -4.972656 22.1875 -3.890625 C 21.570312 -2.804688 20.742188 -1.9375 19.703125 -1.28125 C 18.660156 -0.632812 17.488281 -0.160156 16.1875 0.140625 C 14.894531 0.453125 13.582031 0.609375 12.25 0.609375 C 10.320312 0.609375 8.515625 0.285156 6.828125 -0.359375 C 5.148438 -1.015625 3.789062 -2.023438 2.75 -3.390625 C 1.707031 -4.753906 1.175781 -6.5 1.15625 -8.625 L 7.015625 -8.625 C 7.085938 -7.0625 7.660156 -5.910156 8.734375 -5.171875 C 9.816406 -4.441406 11.066406 -4.078125 12.484375 -4.078125 Z M 12.484375 -4.078125 "/></g></g></g><g fill="#ffffff" fill-opacity="1"><g transform="translate(760.822481, 34.629342)"><g/></g></g><g fill="#ffffff" fill-opacity="1"><g transform="translate(774.111391, 34.629342)"><g><path d="M 21.234375 -8.90625 L 27.671875 -8.90625 C 27.078125 -7.101562 26.148438 -5.5 24.890625 -4.09375 C 23.628906 -2.695312 22.140625 -1.597656 20.421875 -0.796875 C 18.703125 -0.00390625 16.835938 0.390625 14.828125 0.390625 C 12.984375 0.390625 11.242188 0.0390625 9.609375 -0.65625 C 7.984375 -1.351562 6.546875 -2.320312 5.296875 -3.5625 C 4.046875 -4.8125 3.070312 -6.25 2.375 -7.875 C 1.6875 -9.507812 1.34375 -11.25 1.34375 -13.09375 C 1.34375 -14.945312 1.6875 -16.6875 2.375 -18.3125 C 3.070312 -19.945312 4.046875 -21.382812 5.296875 -22.625 C 6.546875 -23.875 7.984375 -24.847656 9.609375 -25.546875 C 11.242188 -26.242188 12.984375 -26.59375 14.828125 -26.59375 C 16.835938 -26.59375 18.695312 -26.191406 20.40625 -25.390625 C 22.113281 -24.597656 23.59375 -23.515625 24.84375 -22.140625 C 26.101562 -20.765625 27.03125 -19.175781 27.625 -17.375 L 21.1875 -17.375 C 20.65625 -18.5625 19.796875 -19.492188 18.609375 -20.171875 C 17.429688 -20.847656 16.171875 -21.1875 14.828125 -21.1875 C 13.421875 -21.1875 12.140625 -20.820312 10.984375 -20.09375 C 9.828125 -19.363281 8.90625 -18.382812 8.21875 -17.15625 C 7.539062 -15.9375 7.203125 -14.582031 7.203125 -13.09375 C 7.203125 -11.601562 7.539062 -10.25 8.21875 -9.03125 C 8.90625 -7.8125 9.828125 -6.835938 10.984375 -6.109375 C 12.140625 -5.378906 13.421875 -5.015625 14.828125 -5.015625 C 16.191406 -5.015625 17.460938 -5.375 18.640625 -6.09375 C 19.828125 -6.8125 20.691406 -7.75 21.234375 -8.90625 Z M 21.234375 -8.90625 "/></g></g></g><g fill="#ffffff" fill-opacity="1"><g transform="translate(806.384367, 34.629342)"><g><path d="M 22.546875 -13.140625 C 22.546875 -14.503906 22.1875 -15.769531 21.46875 -16.9375 C 20.75 -18.101562 19.800781 -19.046875 18.625 -19.765625 C 17.457031 -20.484375 16.191406 -20.84375 14.828125 -20.84375 C 13.492188 -20.84375 12.234375 -20.484375 11.046875 -19.765625 C 9.867188 -19.046875 8.921875 -18.101562 8.203125 -16.9375 C 7.484375 -15.769531 7.125 -14.503906 7.125 -13.140625 C 7.125 -11.804688 7.484375 -10.546875 8.203125 -9.359375 C 8.921875 -8.179688 9.867188 -7.222656 11.046875 -6.484375 C 12.234375 -5.753906 13.492188 -5.390625 14.828125 -5.390625 C 16.191406 -5.390625 17.457031 -5.753906 18.625 -6.484375 C 19.800781 -7.222656 20.75 -8.179688 21.46875 -9.359375 C 22.1875 -10.546875 22.546875 -11.804688 22.546875 -13.140625 Z M 28.328125 -13.09375 C 28.328125 -11.300781 27.960938 -9.585938 27.234375 -7.953125 C 26.515625 -6.328125 25.53125 -4.890625 24.28125 -3.640625 C 23.039062 -2.390625 21.609375 -1.40625 19.984375 -0.6875 C 18.367188 0.03125 16.648438 0.390625 14.828125 0.390625 C 13.035156 0.390625 11.320312 0.03125 9.6875 -0.6875 C 8.0625 -1.40625 6.625 -2.390625 5.375 -3.640625 C 4.125 -4.890625 3.140625 -6.328125 2.421875 -7.953125 C 1.703125 -9.585938 1.34375 -11.300781 1.34375 -13.09375 C 1.34375 -14.925781 1.703125 -16.648438 2.421875 -18.265625 C 3.140625 -19.878906 4.125 -21.304688 5.375 -22.546875 C 6.625 -23.796875 8.0625 -24.78125 9.6875 -25.5 C 11.320312 -26.226562 13.035156 -26.59375 14.828125 -26.59375 C 16.648438 -26.59375 18.367188 -26.226562 19.984375 -25.5 C 21.609375 -24.78125 23.039062 -23.796875 24.28125 -22.546875 C 25.53125 -21.304688 26.515625 -19.878906 27.234375 -18.265625 C 27.960938 -16.648438 28.328125 -14.925781 28.328125 -13.09375 Z M 28.328125 -13.09375 "/></g></g></g><g fill="#ffffff" fill-opacity="1"><g transform="translate(839.696993, 34.629342)"><g><path d="M 34.984375 0 L 28.625 0 L 25.546875 -18.078125 L 20.421875 0 L 14.75 0 L 9.640625 -18.078125 L 6.546875 0 L 0.1875 0 L 5.28125 -26.203125 L 12.140625 -26.203125 L 17.609375 -7.828125 L 23.046875 -26.203125 L 29.90625 -26.203125 Z M 34.984375 0 "/></g></g></g><g fill="#ffffff" fill-opacity="1"><g transform="translate(878.516237, 34.629342)"><g><path d="M 8.09375 -9.359375 L 8.09375 0 L 2.3125 0 L 2.3125 -26.203125 L 12.140625 -26.203125 C 13.546875 -26.203125 14.859375 -25.847656 16.078125 -25.140625 C 17.304688 -24.429688 18.289062 -23.445312 19.03125 -22.1875 C 19.78125 -20.9375 20.15625 -19.472656 20.15625 -17.796875 C 20.15625 -16.023438 19.78125 -14.507812 19.03125 -13.25 C 18.289062 -11.988281 17.304688 -11.023438 16.078125 -10.359375 C 14.859375 -9.691406 13.546875 -9.359375 12.140625 -9.359375 Z M 11.171875 -21.65625 L 8.09375 -21.65625 L 8.09375 -13.90625 L 11.171875 -13.90625 C 12.023438 -13.90625 12.816406 -14.238281 13.546875 -14.90625 C 14.273438 -15.570312 14.640625 -16.535156 14.640625 -17.796875 C 14.640625 -19.003906 14.273438 -19.945312 13.546875 -20.625 C 12.816406 -21.3125 12.023438 -21.65625 11.171875 -21.65625 Z M 11.171875 -21.65625 "/></g></g></g><g fill="#ffffff" fill-opacity="1"><g transform="translate(902.895179, 34.629342)"><g><path d="M 17.5 -5.234375 L 17.5 0 L 2.3125 0 L 2.3125 -26.203125 L 17.5 -26.203125 L 17.5 -20.96875 L 8.09375 -20.96875 L 8.09375 -15.765625 L 17.109375 -15.765625 L 17.109375 -10.515625 L 8.09375 -10.515625 L 8.09375 -5.234375 Z M 17.5 -5.234375 "/></g></g></g><g fill="#ffffff" fill-opacity="1"><g transform="translate(926.350027, 34.629342)"><g><path d="M 13.453125 -20.96875 L 13.453125 0 L 7.671875 0 L 7.671875 -20.96875 L 0.1875 -20.96875 L 0.1875 -26.203125 L 20.921875 -26.203125 L 20.921875 -20.96875 Z M 13.453125 -20.96875 "/></g></g></g><g fill="#ffffff" fill-opacity="1"><g transform="translate(951.114094, 34.629342)"><g><path d="M 8.09375 0 L 2.3125 0 L 2.3125 -26.203125 L 8.09375 -26.203125 Z M 8.09375 0 "/></g></g></g><g fill="#ffffff" fill-opacity="1"><g transform="translate(965.173126, 34.629342)"><g><path d="M 13.453125 -20.96875 L 13.453125 0 L 7.671875 0 L 7.671875 -20.96875 L 0.1875 -20.96875 L 0.1875 -26.203125 L 20.921875 -26.203125 L 20.921875 -20.96875 Z M 13.453125 -20.96875 "/></g></g></g><g fill="#ffffff" fill-opacity="1"><g transform="translate(989.937193, 34.629342)"><g><path d="M 8.09375 0 L 2.3125 0 L 2.3125 -26.203125 L 8.09375 -26.203125 Z M 8.09375 0 "/></g></g></g><g fill="#ffffff" fill-opacity="1"><g transform="translate(1003.996224, 34.629342)"><g><path d="M 22.546875 -13.140625 C 22.546875 -14.503906 22.1875 -15.769531 21.46875 -16.9375 C 20.75 -18.101562 19.800781 -19.046875 18.625 -19.765625 C 17.457031 -20.484375 16.191406 -20.84375 14.828125 -20.84375 C 13.492188 -20.84375 12.234375 -20.484375 11.046875 -19.765625 C 9.867188 -19.046875 8.921875 -18.101562 8.203125 -16.9375 C 7.484375 -15.769531 7.125 -14.503906 7.125 -13.140625 C 7.125 -11.804688 7.484375 -10.546875 8.203125 -9.359375 C 8.921875 -8.179688 9.867188 -7.222656 11.046875 -6.484375 C 12.234375 -5.753906 13.492188 -5.390625 14.828125 -5.390625 C 16.191406 -5.390625 17.457031 -5.753906 18.625 -6.484375 C 19.800781 -7.222656 20.75 -8.179688 21.46875 -9.359375 C 22.1875 -10.546875 22.546875 -11.804688 22.546875 -13.140625 Z M 28.328125 -13.09375 C 28.328125 -11.300781 27.960938 -9.585938 27.234375 -7.953125 C 26.515625 -6.328125 25.53125 -4.890625 24.28125 -3.640625 C 23.039062 -2.390625 21.609375 -1.40625 19.984375 -0.6875 C 18.367188 0.03125 16.648438 0.390625 14.828125 0.390625 C 13.035156 0.390625 11.320312 0.03125 9.6875 -0.6875 C 8.0625 -1.40625 6.625 -2.390625 5.375 -3.640625 C 4.125 -4.890625 3.140625 -6.328125 2.421875 -7.953125 C 1.703125 -9.585938 1.34375 -11.300781 1.34375 -13.09375 C 1.34375 -14.925781 1.703125 -16.648438 2.421875 -18.265625 C 3.140625 -19.878906 4.125 -21.304688 5.375 -22.546875 C 6.625 -23.796875 8.0625 -24.78125 9.6875 -25.5 C 11.320312 -26.226562 13.035156 -26.59375 14.828125 -26.59375 C 16.648438 -26.59375 18.367188 -26.226562 19.984375 -25.5 C 21.609375 -24.78125 23.039062 -23.796875 24.28125 -22.546875 C 25.53125 -21.304688 26.515625 -19.878906 27.234375 -18.265625 C 27.960938 -16.648438 28.328125 -14.925781 28.328125 -13.09375 Z M 28.328125 -13.09375 "/></g></g></g><g fill="#ffffff" fill-opacity="1"><g transform="translate(1037.308935, 34.629342)"><g><path d="M 22.890625 0 L 17.109375 0 L 8.09375 -16.34375 L 8.09375 0 L 2.3125 0 L 2.3125 -26.203125 L 8.09375 -26.203125 L 17.109375 -9.859375 L 17.109375 -26.203125 L 22.890625 -26.203125 Z M 22.890625 0 "/></g></g></g></g></g></g><g clip-path="url(#7cb32e574f)"><g transform="matrix(1, 0, 0, 1, 25, 0.000000000000056843)"><g clip-path="url(#dbff1843bc)"><g fill="#ffffff" fill-opacity="1"><g transform="translate(2.354527, 20.774336)"><g><path d="M 7.53125 -11.734375 L 7.53125 0 L 4.296875 0 L 4.296875 -11.734375 L 0.109375 -11.734375 L 0.109375 -14.65625 L 11.703125 -14.65625 L 11.703125 -11.734375 Z M 7.53125 -11.734375 "/></g></g></g><g fill="#ffffff" fill-opacity="1"><g transform="translate(14.170057, 20.774336)"><g><path d="M 9.359375 -14.65625 L 12.8125 -14.65625 L 12.8125 0 L 9.359375 0 L 9.359375 -5.890625 L 4.53125 -5.890625 L 4.53125 0 L 1.296875 0 L 1.296875 -14.65625 L 4.53125 -14.65625 L 4.53125 -8.8125 L 9.359375 -8.8125 Z M 9.359375 -14.65625 "/></g></g></g></g></g></g></g></g></svg>