<svg xmlns="http://www.w3.org/2000/svg" xmlns:xlink="http://www.w3.org/1999/xlink" width="1626" zoomAndPan="magnify" viewBox="0 0 1219.5 260.999984" height="348" preserveAspectRatio="xMidYMid meet" version="1.0"><defs><g/><clipPath id="94211de269"><path d="M 122.113281 30.324219 L 235 30.324219 L 235 144 L 122.113281 144 Z M 122.113281 30.324219 " clip-rule="nonzero"/></clipPath><clipPath id="ecd2311d85"><path d="M 367.550781 30.324219 L 481 30.324219 L 481 144 L 367.550781 144 Z M 367.550781 30.324219 " clip-rule="nonzero"/></clipPath><clipPath id="0a65f110ac"><path d="M 0.3125 34 L 1145 34 L 1145 169 L 0.3125 169 Z M 0.3125 34 " clip-rule="nonzero"/></clipPath><clipPath id="0683de5ba3"><rect x="0" width="1145" y="0" height="135"/></clipPath><clipPath id="b3f799fac2"><path d="M 2.855469 159.566406 L 1132.320312 159.566406 L 1132.320312 252.660156 L 2.855469 252.660156 Z M 2.855469 159.566406 " clip-rule="nonzero"/></clipPath><clipPath id="8b39f8d408"><path d="M 10.351562 159.566406 L 1124.511719 159.566406 C 1126.5 159.566406 1128.410156 160.359375 1129.816406 161.765625 C 1131.222656 163.171875 1132.011719 165.078125 1132.011719 167.066406 L 1132.011719 245.164062 C 1132.011719 247.152344 1131.222656 249.058594 1129.816406 250.464844 C 1128.410156 251.871094 1126.5 252.660156 1124.511719 252.660156 L 10.351562 252.660156 C 8.363281 252.660156 6.457031 251.871094 5.050781 250.464844 C 3.644531 249.058594 2.855469 247.152344 2.855469 245.164062 L 2.855469 167.066406 C 2.855469 165.078125 3.644531 163.171875 5.050781 161.765625 C 6.457031 160.359375 8.363281 159.566406 10.351562 159.566406 Z M 10.351562 159.566406 " clip-rule="nonzero"/></clipPath><clipPath id="2870bb701e"><path d="M 0.855469 0.566406 L 1130 0.566406 L 1130 93.660156 L 0.855469 93.660156 Z M 0.855469 0.566406 " clip-rule="nonzero"/></clipPath><clipPath id="57a0fcba0d"><path d="M 8.351562 0.566406 L 1122.511719 0.566406 C 1124.5 0.566406 1126.410156 1.359375 1127.816406 2.765625 C 1129.222656 4.171875 1130.011719 6.078125 1130.011719 8.066406 L 1130.011719 86.164062 C 1130.011719 88.152344 1129.222656 90.058594 1127.816406 91.464844 C 1126.410156 92.871094 1124.5 93.660156 1122.511719 93.660156 L 8.351562 93.660156 C 6.363281 93.660156 4.457031 92.871094 3.050781 91.464844 C 1.644531 90.058594 0.855469 88.152344 0.855469 86.164062 L 0.855469 8.066406 C 0.855469 6.078125 1.644531 4.171875 3.050781 2.765625 C 4.457031 1.359375 6.363281 0.566406 8.351562 0.566406 Z M 8.351562 0.566406 " clip-rule="nonzero"/></clipPath><clipPath id="16213c9eef"><rect x="0" width="1131" y="0" height="94"/></clipPath><clipPath id="892c947891"><rect x="0" width="80" y="0" height="138"/></clipPath><clipPath id="f6d60a6403"><path d="M 1123.988281 0.339844 L 1183.578125 0.339844 L 1183.578125 59.929688 L 1123.988281 59.929688 Z M 1123.988281 0.339844 " clip-rule="nonzero"/></clipPath><clipPath id="b0ee81143e"><rect x="0" width="1082" y="0" height="54"/></clipPath><clipPath id="0ae158b184"><rect x="0" width="34" y="0" height="30"/></clipPath><clipPath id="7c0acebfd6"><rect x="0" width="1185" y="0" height="253"/></clipPath></defs><g transform="matrix(1, 0, 0, 1, 22, 4)"><g clip-path="url(#7c0acebfd6)"><path fill="#ced7dd" d="M 155.976562 105.570312 L 155.976562 122.5 C 155.976562 124.578125 157.660156 126.261719 159.738281 126.261719 L 167.261719 126.261719 L 167.261719 105.570312 Z M 155.976562 105.570312 " fill-opacity="1" fill-rule="nonzero"/><path fill="#ced7dd" d="M 201.125 105.570312 L 201.125 122.5 C 201.125 124.578125 199.441406 126.261719 197.363281 126.261719 L 189.835938 126.261719 L 189.835938 105.570312 Z M 201.125 105.570312 " fill-opacity="1" fill-rule="nonzero"/><path fill="#b3c1c9" d="M 163.5 110.875 C 162.917969 111.101562 162.277344 111.214844 161.617188 111.214844 C 158.496094 111.214844 155.976562 108.691406 155.976562 105.570312 C 155.976562 102.449219 158.496094 99.925781 161.617188 99.925781 C 163.632812 99.925781 165.382812 100.960938 166.378906 102.542969 Z M 163.5 110.875 " fill-opacity="1" fill-rule="nonzero"/><path fill="#b3c1c9" d="M 190.722656 102.542969 C 191.71875 100.960938 193.46875 99.925781 195.480469 99.925781 C 198.601562 99.925781 201.125 102.449219 201.125 105.570312 C 201.125 108.691406 198.601562 111.214844 195.480469 111.214844 C 194.820312 111.214844 194.183594 111.101562 193.597656 110.875 Z M 190.722656 102.542969 " fill-opacity="1" fill-rule="nonzero"/><path fill="#ced7dd" d="M 172.90625 90.519531 L 184.191406 90.519531 L 184.191406 101.808594 L 172.90625 101.808594 Z M 172.90625 90.519531 " fill-opacity="1" fill-rule="nonzero"/><path fill="#e4eaef" d="M 172.90625 99.925781 L 184.191406 99.925781 C 189.386719 99.925781 193.597656 104.140625 193.597656 109.332031 L 193.597656 122.5 C 193.597656 124.578125 191.914062 126.261719 189.835938 126.261719 L 167.261719 126.261719 C 165.1875 126.261719 163.5 124.578125 163.5 122.5 L 163.5 109.332031 C 163.5 104.140625 167.714844 99.925781 172.90625 99.925781 Z M 172.90625 99.925781 " fill-opacity="1" fill-rule="nonzero"/><path fill="#c9042d" d="M 229.886719 77.503906 L 223.210938 76.167969 C 222.0625 71.332031 220.160156 66.78125 217.621094 62.679688 L 221.382812 57.015625 C 222.457031 55.417969 222.25 53.292969 220.894531 51.957031 L 213.351562 44.414062 C 212.015625 43.058594 209.890625 42.851562 208.292969 43.921875 L 202.628906 47.6875 C 198.527344 45.148438 193.976562 43.246094 189.140625 42.097656 L 187.804688 35.421875 C 187.429688 33.558594 185.792969 32.203125 183.875 32.203125 L 173.226562 32.203125 C 171.308594 32.203125 169.671875 33.558594 169.292969 35.421875 L 167.957031 42.097656 C 163.125 43.246094 158.570312 45.148438 154.46875 47.6875 L 148.808594 43.921875 C 147.210938 42.851562 145.082031 43.058594 143.746094 44.414062 L 136.203125 51.957031 C 134.851562 53.292969 134.644531 55.417969 135.714844 57.015625 L 139.476562 62.679688 C 136.9375 66.78125 135.039062 71.332031 133.890625 76.167969 L 127.210938 77.503906 C 125.351562 77.878906 123.996094 79.515625 123.996094 81.433594 L 123.996094 92.082031 C 123.996094 94 125.351562 95.636719 127.210938 96.015625 L 133.890625 97.347656 C 135.039062 102.183594 136.9375 106.738281 139.476562 110.835938 L 135.714844 116.5 C 134.644531 118.097656 134.851562 120.226562 136.203125 121.558594 L 143.746094 129.105469 C 145.082031 130.457031 147.210938 130.664062 148.808594 129.59375 L 154.46875 125.832031 C 158.570312 128.371094 163.125 130.269531 167.957031 131.417969 L 169.292969 138.097656 C 169.671875 139.957031 171.308594 141.3125 173.226562 141.3125 L 183.875 141.3125 C 185.792969 141.3125 187.429688 139.957031 187.804688 138.097656 L 189.140625 131.417969 C 193.976562 130.269531 198.527344 128.371094 202.628906 125.832031 L 208.292969 129.59375 C 209.890625 130.664062 212.015625 130.457031 213.351562 129.105469 L 220.894531 121.558594 C 222.25 120.226562 222.457031 118.097656 221.382812 116.5 L 217.621094 110.835938 C 220.160156 106.738281 222.0625 102.183594 223.210938 97.347656 L 229.886719 96.015625 C 231.75 95.636719 233.105469 94 233.105469 92.082031 L 233.105469 81.433594 C 233.105469 79.515625 231.75 77.878906 229.886719 77.503906 Z M 178.550781 124.382812 C 157.761719 124.382812 140.925781 107.546875 140.925781 86.757812 C 140.925781 65.972656 157.761719 49.132812 178.550781 49.132812 C 199.335938 49.132812 216.171875 65.972656 216.171875 86.757812 C 216.171875 107.546875 199.335938 124.382812 178.550781 124.382812 Z M 178.550781 124.382812 " fill-opacity="1" fill-rule="nonzero"/><path fill="#e4eaef" d="M 187.898438 62.304688 L 187.957031 62.304688 C 193.5625 62.304688 198.226562 66.402344 199.09375 71.785156 C 201.3125 72.160156 203.003906 74.078125 203.003906 76.410156 L 203.003906 78.292969 C 203.003906 80.625 201.3125 82.542969 199.09375 82.921875 C 198.226562 88.300781 193.5625 92.402344 187.957031 92.402344 L 169.144531 92.402344 C 163.539062 92.402344 158.871094 88.300781 158.007812 82.921875 C 155.789062 82.542969 154.09375 80.625 154.09375 78.292969 L 154.09375 76.410156 C 154.09375 74.078125 155.789062 72.160156 158.007812 71.785156 C 158.871094 66.402344 163.539062 62.304688 169.144531 62.304688 Z M 187.898438 62.304688 " fill-opacity="1" fill-rule="nonzero"/><path fill="#ced7dd" d="M 185.746094 68.257812 C 186.746094 66.90625 187.953125 64.84375 187.957031 62.78125 C 187.957031 61.484375 186.902344 60.421875 185.605469 60.421875 L 171.496094 60.421875 C 170.195312 60.421875 169.140625 61.484375 169.144531 62.78125 C 169.148438 64.84375 170.351562 66.90625 171.355469 68.257812 C 172.089844 69.253906 173.261719 69.828125 174.5 69.828125 L 182.601562 69.828125 C 183.835938 69.828125 185.007812 69.257812 185.746094 68.257812 Z M 185.746094 68.257812 " fill-opacity="1" fill-rule="nonzero"/><path fill="#c9042d" d="M 193.597656 77.351562 C 193.597656 77.847656 193.550781 78.335938 193.453125 78.820312 C 193.359375 79.304688 193.214844 79.777344 193.027344 80.230469 C 192.835938 80.6875 192.605469 81.121094 192.332031 81.53125 C 192.054688 81.945312 191.746094 82.324219 191.394531 82.671875 C 191.046875 83.023438 190.664062 83.335938 190.253906 83.609375 C 189.84375 83.882812 189.410156 84.117188 188.953125 84.304688 C 188.496094 84.492188 188.027344 84.636719 187.542969 84.734375 C 187.058594 84.828125 186.570312 84.878906 186.074219 84.878906 L 171.023438 84.878906 C 170.53125 84.878906 170.042969 84.828125 169.558594 84.734375 C 169.074219 84.636719 168.601562 84.492188 168.144531 84.304688 C 167.6875 84.117188 167.253906 83.882812 166.84375 83.609375 C 166.433594 83.335938 166.054688 83.023438 165.703125 82.671875 C 165.355469 82.324219 165.042969 81.945312 164.769531 81.53125 C 164.492188 81.121094 164.261719 80.6875 164.074219 80.230469 C 163.882812 79.777344 163.742188 79.304688 163.644531 78.820312 C 163.546875 78.335938 163.5 77.847656 163.5 77.351562 C 163.5 76.859375 163.546875 76.367188 163.644531 75.882812 C 163.742188 75.398438 163.882812 74.929688 164.074219 74.472656 C 164.261719 74.015625 164.492188 73.582031 164.769531 73.171875 C 165.042969 72.761719 165.355469 72.382812 165.703125 72.03125 C 166.054688 71.683594 166.433594 71.371094 166.84375 71.097656 C 167.253906 70.820312 167.6875 70.589844 168.144531 70.402344 C 168.601562 70.210938 169.074219 70.070312 169.558594 69.972656 C 170.042969 69.875 170.53125 69.828125 171.023438 69.828125 L 186.074219 69.828125 C 186.570312 69.828125 187.058594 69.875 187.542969 69.972656 C 188.027344 70.070312 188.496094 70.210938 188.953125 70.402344 C 189.410156 70.589844 189.84375 70.820312 190.253906 71.097656 C 190.664062 71.371094 191.046875 71.683594 191.394531 72.03125 C 191.746094 72.382812 192.054688 72.761719 192.332031 73.171875 C 192.605469 73.582031 192.835938 74.015625 193.027344 74.472656 C 193.214844 74.929688 193.359375 75.398438 193.453125 75.882812 C 193.550781 76.367188 193.597656 76.859375 193.597656 77.351562 Z M 193.597656 77.351562 " fill-opacity="1" fill-rule="nonzero"/><g clip-path="url(#94211de269)"><path fill="#262626" d="M 230.25 75.65625 L 224.746094 74.554688 C 223.65625 70.410156 222.011719 66.441406 219.84375 62.726562 L 222.957031 58.054688 C 224.507812 55.722656 224.199219 52.601562 222.21875 50.621094 L 214.6875 43.089844 C 212.707031 41.109375 209.582031 40.800781 207.253906 42.351562 L 202.578125 45.464844 C 198.863281 43.296875 194.894531 41.652344 190.753906 40.558594 L 189.652344 35.058594 C 189.101562 32.316406 186.675781 30.324219 183.875 30.324219 L 173.222656 30.324219 C 170.425781 30.324219 167.996094 32.316406 167.445312 35.058594 L 166.347656 40.558594 C 162.203125 41.652344 158.234375 43.296875 154.519531 45.464844 L 149.84375 42.351562 C 147.519531 40.800781 144.390625 41.109375 142.410156 43.089844 L 134.878906 50.621094 C 132.902344 52.601562 132.589844 55.722656 134.140625 58.054688 L 137.253906 62.726562 C 135.089844 66.441406 133.441406 70.410156 132.351562 74.554688 L 126.851562 75.65625 C 124.105469 76.203125 122.113281 78.632812 122.113281 81.433594 L 122.113281 92.085938 C 122.113281 94.882812 124.105469 97.3125 126.851562 97.859375 L 132.351562 98.960938 C 133.441406 103.105469 135.089844 107.074219 137.253906 110.789062 L 134.140625 115.464844 C 132.589844 117.789062 132.898438 120.917969 134.878906 122.894531 L 142.410156 130.429688 C 144.390625 132.40625 147.519531 132.71875 149.84375 131.164062 L 154.515625 128.050781 C 158.234375 130.21875 162.203125 131.867188 166.347656 132.957031 L 167.445312 138.457031 C 167.996094 141.203125 170.425781 143.195312 173.222656 143.195312 L 183.875 143.195312 C 186.675781 143.195312 189.101562 141.203125 189.652344 138.457031 L 190.753906 132.957031 C 194.894531 131.867188 198.863281 130.21875 202.582031 128.050781 L 207.253906 131.164062 C 209.582031 132.71875 212.707031 132.40625 214.6875 130.429688 L 222.21875 122.894531 C 224.199219 120.917969 224.507812 117.789062 222.957031 115.464844 L 219.84375 110.789062 C 222.011719 107.074219 223.65625 103.105469 224.746094 98.960938 L 230.25 97.859375 C 232.992188 97.3125 234.984375 94.882812 234.984375 92.085938 L 234.984375 81.433594 C 234.984375 78.632812 232.992188 76.203125 230.25 75.65625 Z M 231.222656 92.085938 C 231.222656 93.097656 230.503906 93.976562 229.511719 94.171875 L 222.84375 95.507812 C 222.121094 95.648438 221.550781 96.203125 221.382812 96.917969 C 220.304688 101.484375 218.5 105.839844 216.015625 109.855469 C 215.628906 110.476562 215.644531 111.273438 216.054688 111.886719 L 219.828125 117.550781 C 220.390625 118.390625 220.277344 119.523438 219.5625 120.238281 L 212.027344 127.769531 C 211.3125 128.484375 210.1875 128.597656 209.34375 128.039062 L 203.679688 124.261719 C 203.066406 123.851562 202.273438 123.839844 201.648438 124.226562 C 197.628906 126.707031 193.277344 128.511719 188.707031 129.589844 C 187.992188 129.761719 187.441406 130.332031 187.296875 131.054688 L 185.964844 137.71875 C 185.765625 138.710938 184.886719 139.433594 183.875 139.433594 L 173.222656 139.433594 C 172.210938 139.433594 171.332031 138.710938 171.136719 137.71875 L 169.800781 131.054688 C 169.660156 130.332031 169.105469 129.761719 168.390625 129.589844 C 163.820312 128.511719 159.472656 126.707031 155.453125 124.226562 C 155.148438 124.039062 154.804688 123.945312 154.464844 123.945312 C 154.101562 123.945312 153.738281 124.050781 153.421875 124.261719 L 147.757812 128.039062 C 146.914062 128.601562 145.785156 128.484375 145.070312 127.769531 L 137.539062 120.238281 C 136.824219 119.523438 136.710938 118.394531 137.269531 117.550781 L 141.046875 111.886719 C 141.453125 111.273438 141.46875 110.476562 141.082031 109.855469 C 138.601562 105.839844 136.796875 101.484375 135.71875 96.917969 C 135.546875 96.203125 134.976562 95.648438 134.253906 95.507812 L 127.589844 94.171875 C 126.597656 93.976562 125.875 93.097656 125.875 92.085938 L 125.875 81.433594 C 125.875 80.421875 126.597656 79.542969 127.589844 79.34375 L 134.253906 78.011719 C 134.976562 77.867188 135.546875 77.316406 135.71875 76.601562 C 136.796875 72.027344 138.601562 67.675781 141.082031 63.660156 C 141.46875 63.035156 141.453125 62.242188 141.046875 61.628906 L 137.269531 55.964844 C 136.710938 55.125 136.824219 53.992188 137.539062 53.277344 L 145.070312 45.746094 C 145.785156 45.035156 146.910156 44.921875 147.757812 45.480469 L 153.421875 49.253906 C 154.035156 49.664062 154.828125 49.675781 155.453125 49.289062 C 159.46875 46.8125 163.820312 45.003906 168.390625 43.925781 C 169.105469 43.753906 169.660156 43.183594 169.800781 42.464844 L 171.136719 35.796875 C 171.332031 34.804688 172.210938 34.085938 173.222656 34.085938 L 183.875 34.085938 C 184.886719 34.085938 185.765625 34.804688 185.964844 35.796875 L 187.296875 42.464844 C 187.441406 43.1875 187.992188 43.757812 188.707031 43.925781 C 193.277344 45.003906 197.628906 46.808594 201.644531 49.289062 C 202.273438 49.675781 203.0625 49.664062 203.675781 49.253906 L 209.34375 45.480469 C 210.1875 44.917969 211.3125 45.035156 212.027344 45.746094 L 219.5625 53.277344 C 220.277344 53.992188 220.386719 55.121094 219.828125 55.964844 L 216.054688 61.628906 C 215.644531 62.242188 215.628906 63.035156 216.015625 63.660156 C 218.496094 67.675781 220.300781 72.027344 221.382812 76.601562 C 221.554688 77.316406 222.125 77.867188 222.84375 78.011719 L 229.511719 79.34375 C 230.503906 79.542969 231.222656 80.421875 231.222656 81.433594 Z M 231.222656 92.085938 " fill-opacity="1" fill-rule="nonzero"/></g><path fill="#262626" d="M 178.550781 47.253906 C 169.132812 47.253906 160.011719 50.621094 152.871094 56.738281 C 152.082031 57.410156 151.988281 58.597656 152.667969 59.390625 C 153.34375 60.183594 154.53125 60.269531 155.320312 59.59375 C 161.78125 54.0625 170.03125 51.015625 178.550781 51.015625 C 198.261719 51.015625 214.292969 67.046875 214.292969 86.757812 C 214.292969 97 209.9375 106.230469 203.007812 112.75 L 203.007812 105.570312 C 203.007812 101.417969 199.632812 98.042969 195.480469 98.042969 C 193.59375 98.042969 191.828125 98.738281 190.472656 99.957031 C 189.171875 99.085938 187.679688 98.484375 186.078125 98.214844 L 186.078125 94.28125 L 187.957031 94.28125 C 194.042969 94.28125 199.222656 90.199219 200.699219 84.417969 C 203.191406 83.453125 204.886719 81.054688 204.886719 78.292969 L 204.886719 76.410156 C 204.886719 73.648438 203.191406 71.25 200.699219 70.28125 C 199.324219 64.894531 194.71875 61.03125 189.179688 60.523438 C 189.015625 60.257812 188.824219 60.011719 188.601562 59.785156 C 187.800781 58.980469 186.738281 58.539062 185.605469 58.539062 L 171.496094 58.539062 C 170.363281 58.539062 169.300781 58.980469 168.503906 59.785156 C 168.277344 60.011719 168.089844 60.261719 167.921875 60.523438 C 162.382812 61.03125 157.78125 64.894531 156.402344 70.28125 C 153.910156 71.25 152.214844 73.648438 152.214844 76.410156 L 152.214844 78.292969 C 152.214844 81.054688 153.910156 83.453125 156.402344 84.417969 C 157.878906 90.199219 163.058594 94.28125 169.144531 94.28125 L 171.023438 94.28125 L 171.023438 98.214844 C 169.421875 98.484375 167.925781 99.082031 166.628906 99.957031 C 165.273438 98.738281 163.507812 98.042969 161.617188 98.042969 C 157.46875 98.042969 154.09375 101.417969 154.09375 105.570312 L 154.09375 112.75 C 147.164062 106.226562 142.808594 97 142.808594 86.757812 C 142.808594 78.949219 145.277344 71.53125 149.957031 65.308594 C 150.578125 64.480469 150.410156 63.300781 149.582031 62.675781 C 148.753906 62.054688 147.574219 62.21875 146.949219 63.050781 C 141.777344 69.929688 139.046875 78.128906 139.046875 86.757812 C 139.046875 108.539062 156.769531 126.261719 178.550781 126.261719 C 200.332031 126.261719 218.054688 108.539062 218.054688 86.757812 C 218.054688 64.976562 200.332031 47.253906 178.550781 47.253906 Z M 195.480469 113.09375 C 196.859375 113.09375 198.132812 112.695312 199.242188 112.050781 L 199.242188 115.847656 C 198.035156 116.707031 196.792969 117.519531 195.480469 118.226562 Z M 199.242188 105.570312 C 199.242188 107.644531 197.554688 109.332031 195.480469 109.332031 C 195.480469 106.804688 194.632812 104.472656 193.226562 102.589844 C 193.867188 102.101562 194.640625 101.808594 195.480469 101.808594 C 197.554688 101.808594 199.242188 103.496094 199.242188 105.570312 Z M 171.023438 71.707031 L 186.074219 71.707031 C 189.1875 71.707031 191.71875 74.242188 191.71875 77.351562 C 191.71875 80.464844 189.1875 82.996094 186.074219 82.996094 L 171.023438 82.996094 C 167.914062 82.996094 165.382812 80.464844 165.382812 77.351562 C 165.382812 74.242188 167.914062 71.707031 171.023438 71.707031 Z M 171.164062 62.441406 C 171.226562 62.378906 171.335938 62.304688 171.496094 62.304688 L 185.605469 62.304688 C 185.761719 62.304688 185.875 62.378906 185.933594 62.441406 C 185.988281 62.492188 186.074219 62.609375 186.074219 62.777344 C 186.074219 63.992188 185.417969 65.539062 184.234375 67.140625 C 183.863281 67.644531 183.253906 67.945312 182.601562 67.945312 L 174.5 67.945312 C 173.847656 67.945312 173.238281 67.644531 172.867188 67.136719 C 171.679688 65.535156 171.027344 63.988281 171.023438 62.773438 C 171.023438 62.605469 171.113281 62.492188 171.164062 62.441406 Z M 159.863281 82.621094 C 159.734375 81.824219 159.117188 81.203125 158.320312 81.066406 C 156.960938 80.835938 155.976562 79.671875 155.976562 78.292969 L 155.976562 76.410156 C 155.976562 75.035156 156.960938 73.867188 158.320312 73.640625 C 159.117188 73.503906 159.734375 72.878906 159.863281 72.082031 C 160.503906 68.089844 163.554688 65.058594 167.4375 64.347656 C 167.730469 65.757812 168.351562 67.070312 169.027344 68.167969 C 164.796875 69.089844 161.617188 72.851562 161.617188 77.351562 C 161.617188 82.535156 165.839844 86.757812 171.023438 86.757812 L 186.074219 86.757812 C 191.261719 86.757812 195.480469 82.535156 195.480469 77.351562 C 195.480469 72.851562 192.300781 69.089844 188.074219 68.167969 C 188.75 67.066406 189.375 65.75 189.660156 64.335938 C 193.527344 65.035156 196.589844 68.078125 197.234375 72.082031 C 197.363281 72.878906 197.984375 73.5 198.777344 73.636719 C 200.136719 73.867188 201.125 75.03125 201.125 76.410156 L 201.125 78.292969 C 201.125 79.667969 200.136719 80.835938 198.777344 81.0625 C 197.984375 81.199219 197.363281 81.824219 197.234375 82.621094 C 196.5 87.199219 192.597656 90.519531 187.957031 90.519531 L 169.144531 90.519531 C 164.503906 90.519531 160.601562 87.195312 159.863281 82.621094 Z M 182.3125 94.285156 L 182.3125 98.046875 L 174.789062 98.046875 L 174.789062 94.285156 Z M 161.617188 101.808594 C 162.457031 101.808594 163.234375 102.101562 163.875 102.589844 C 162.464844 104.472656 161.617188 106.804688 161.617188 109.332031 C 159.542969 109.332031 157.855469 107.644531 157.855469 105.570312 C 157.855469 103.496094 159.542969 101.808594 161.617188 101.808594 Z M 157.855469 112.050781 C 158.96875 112.695312 160.242188 113.09375 161.617188 113.09375 L 161.617188 118.226562 C 160.308594 117.515625 159.0625 116.707031 157.855469 115.847656 Z M 165.382812 119.957031 L 165.382812 109.332031 C 165.382812 105.183594 168.757812 101.808594 172.90625 101.808594 L 184.191406 101.808594 C 188.34375 101.808594 191.71875 105.183594 191.71875 109.332031 L 191.71875 119.957031 C 187.636719 121.582031 183.203125 122.5 178.550781 122.5 C 173.898438 122.5 169.460938 121.582031 165.382812 119.957031 Z M 165.382812 119.957031 " fill-opacity="1" fill-rule="nonzero"/><path fill="#262626" d="M 172.90625 79.226562 C 173.945312 79.226562 174.789062 78.386719 174.789062 77.347656 L 174.789062 77.328125 C 174.789062 76.289062 173.945312 75.457031 172.90625 75.457031 C 171.867188 75.457031 171.023438 76.304688 171.023438 77.347656 C 171.023438 78.386719 171.867188 79.226562 172.90625 79.226562 Z M 172.90625 79.226562 " fill-opacity="1" fill-rule="nonzero"/><path fill="#262626" d="M 184.191406 79.226562 C 185.234375 79.226562 186.074219 78.386719 186.074219 77.347656 L 186.074219 77.328125 C 186.074219 76.289062 185.234375 75.457031 184.191406 75.457031 C 183.152344 75.457031 182.3125 76.304688 182.3125 77.347656 C 182.3125 78.386719 183.152344 79.226562 184.191406 79.226562 Z M 184.191406 79.226562 " fill-opacity="1" fill-rule="nonzero"/><path fill="#ced7dd" d="M 401.410156 105.570312 L 401.410156 122.5 C 401.410156 124.578125 403.09375 126.261719 405.175781 126.261719 L 412.699219 126.261719 L 412.699219 105.570312 Z M 401.410156 105.570312 " fill-opacity="1" fill-rule="nonzero"/><path fill="#ced7dd" d="M 446.558594 105.570312 L 446.558594 122.5 C 446.558594 124.578125 444.875 126.261719 442.796875 126.261719 L 435.273438 126.261719 L 435.273438 105.570312 Z M 446.558594 105.570312 " fill-opacity="1" fill-rule="nonzero"/><path fill="#b3c1c9" d="M 408.9375 110.875 C 408.351562 111.101562 407.714844 111.214844 407.054688 111.214844 C 403.933594 111.214844 401.410156 108.691406 401.410156 105.570312 C 401.410156 102.449219 403.933594 99.925781 407.054688 99.925781 C 409.066406 99.925781 410.816406 100.960938 411.816406 102.542969 Z M 408.9375 110.875 " fill-opacity="1" fill-rule="nonzero"/><path fill="#b3c1c9" d="M 436.15625 102.542969 C 437.15625 100.960938 438.902344 99.925781 440.917969 99.925781 C 444.039062 99.925781 446.558594 102.449219 446.558594 105.570312 C 446.558594 108.691406 444.039062 111.214844 440.917969 111.214844 C 440.257812 111.214844 439.617188 111.101562 439.035156 110.875 Z M 436.15625 102.542969 " fill-opacity="1" fill-rule="nonzero"/><path fill="#ced7dd" d="M 418.34375 90.519531 L 429.628906 90.519531 L 429.628906 101.808594 L 418.34375 101.808594 Z M 418.34375 90.519531 " fill-opacity="1" fill-rule="nonzero"/><path fill="#e4eaef" d="M 418.34375 99.925781 L 429.628906 99.925781 C 434.820312 99.925781 439.035156 104.140625 439.035156 109.332031 L 439.035156 122.5 C 439.035156 124.578125 437.351562 126.261719 435.273438 126.261719 L 412.699219 126.261719 C 410.621094 126.261719 408.9375 124.578125 408.9375 122.5 L 408.9375 109.332031 C 408.9375 104.140625 413.152344 99.925781 418.34375 99.925781 Z M 418.34375 99.925781 " fill-opacity="1" fill-rule="nonzero"/><path fill="#c9042d" d="M 475.324219 77.503906 L 468.644531 76.167969 C 467.5 71.332031 465.597656 66.78125 463.058594 62.679688 L 466.820312 57.015625 C 467.894531 55.417969 467.6875 53.292969 466.332031 51.957031 L 458.789062 44.414062 C 457.453125 43.058594 455.328125 42.851562 453.726562 43.921875 L 448.066406 47.6875 C 443.964844 45.148438 439.410156 43.246094 434.578125 42.097656 L 433.242188 35.421875 C 432.867188 33.558594 431.230469 32.203125 429.308594 32.203125 L 418.664062 32.203125 C 416.742188 32.203125 415.105469 33.558594 414.730469 35.421875 L 413.394531 42.097656 C 408.558594 43.246094 404.007812 45.148438 399.90625 47.6875 L 394.246094 43.921875 C 392.644531 42.851562 390.519531 43.058594 389.183594 44.414062 L 381.640625 51.957031 C 380.285156 53.292969 380.078125 55.417969 381.152344 57.015625 L 384.914062 62.679688 C 382.375 66.78125 380.472656 71.332031 379.328125 76.167969 L 372.648438 77.503906 C 370.785156 77.878906 369.433594 79.515625 369.433594 81.433594 L 369.433594 92.082031 C 369.433594 94 370.785156 95.636719 372.648438 96.015625 L 379.328125 97.347656 C 380.472656 102.183594 382.375 106.738281 384.914062 110.835938 L 381.152344 116.5 C 380.078125 118.097656 380.285156 120.226562 381.640625 121.558594 L 389.183594 129.105469 C 390.519531 130.457031 392.644531 130.664062 394.246094 129.59375 L 399.90625 125.832031 C 404.007812 128.371094 408.558594 130.269531 413.394531 131.417969 L 414.730469 138.097656 C 415.105469 139.957031 416.742188 141.3125 418.664062 141.3125 L 429.308594 141.3125 C 431.230469 141.3125 432.867188 139.957031 433.242188 138.097656 L 434.578125 131.417969 C 439.410156 130.269531 443.964844 128.371094 448.066406 125.832031 L 453.726562 129.59375 C 455.328125 130.664062 457.453125 130.457031 458.789062 129.105469 L 466.332031 121.558594 C 467.6875 120.226562 467.894531 118.097656 466.820312 116.5 L 463.058594 110.835938 C 465.597656 106.738281 467.5 102.183594 468.644531 97.347656 L 475.324219 96.015625 C 477.1875 95.636719 478.539062 94 478.539062 92.082031 L 478.539062 81.433594 C 478.539062 79.515625 477.1875 77.878906 475.324219 77.503906 Z M 423.984375 124.382812 C 403.199219 124.382812 386.363281 107.546875 386.363281 86.757812 C 386.363281 65.972656 403.199219 49.132812 423.984375 49.132812 C 444.773438 49.132812 461.609375 65.972656 461.609375 86.757812 C 461.609375 107.546875 444.773438 124.382812 423.984375 124.382812 Z M 423.984375 124.382812 " fill-opacity="1" fill-rule="nonzero"/><path fill="#e4eaef" d="M 433.335938 62.304688 L 433.390625 62.304688 C 439 62.304688 443.664062 66.402344 444.527344 71.785156 C 446.75 72.160156 448.441406 74.078125 448.441406 76.410156 L 448.441406 78.292969 C 448.441406 80.625 446.75 82.542969 444.527344 82.921875 C 443.664062 88.300781 439 92.402344 433.390625 92.402344 L 414.582031 92.402344 C 408.972656 92.402344 404.308594 88.300781 403.445312 82.921875 C 401.222656 82.542969 399.53125 80.625 399.53125 78.292969 L 399.53125 76.410156 C 399.53125 74.078125 401.222656 72.160156 403.445312 71.785156 C 404.308594 66.402344 408.972656 62.304688 414.582031 62.304688 Z M 433.335938 62.304688 " fill-opacity="1" fill-rule="nonzero"/><path fill="#ced7dd" d="M 431.183594 68.257812 C 432.183594 66.90625 433.386719 64.84375 433.390625 62.78125 C 433.394531 61.484375 432.339844 60.421875 431.039062 60.421875 L 416.933594 60.421875 C 415.632812 60.421875 414.578125 61.484375 414.582031 62.78125 C 414.585938 64.84375 415.789062 66.90625 416.789062 68.257812 C 417.527344 69.253906 418.699219 69.828125 419.9375 69.828125 L 428.035156 69.828125 C 429.273438 69.828125 430.445312 69.257812 431.183594 68.257812 Z M 431.183594 68.257812 " fill-opacity="1" fill-rule="nonzero"/><path fill="#c9042d" d="M 439.035156 77.351562 C 439.035156 77.847656 438.988281 78.335938 438.890625 78.820312 C 438.792969 79.304688 438.652344 79.777344 438.464844 80.230469 C 438.273438 80.6875 438.042969 81.121094 437.765625 81.53125 C 437.492188 81.945312 437.179688 82.324219 436.832031 82.671875 C 436.480469 83.023438 436.101562 83.335938 435.691406 83.609375 C 435.28125 83.882812 434.847656 84.117188 434.390625 84.304688 C 433.933594 84.492188 433.464844 84.636719 432.980469 84.734375 C 432.496094 84.828125 432.003906 84.878906 431.511719 84.878906 L 416.460938 84.878906 C 415.96875 84.878906 415.476562 84.828125 414.992188 84.734375 C 414.507812 84.636719 414.039062 84.492188 413.582031 84.304688 C 413.125 84.117188 412.691406 83.882812 412.28125 83.609375 C 411.871094 83.335938 411.488281 83.023438 411.140625 82.671875 C 410.792969 82.324219 410.480469 81.945312 410.203125 81.53125 C 409.929688 81.121094 409.699219 80.6875 409.507812 80.230469 C 409.320312 79.777344 409.175781 79.304688 409.082031 78.820312 C 408.984375 78.335938 408.9375 77.847656 408.9375 77.351562 C 408.9375 76.859375 408.984375 76.367188 409.082031 75.882812 C 409.175781 75.398438 409.320312 74.929688 409.507812 74.472656 C 409.699219 74.015625 409.929688 73.582031 410.203125 73.171875 C 410.480469 72.761719 410.792969 72.382812 411.140625 72.03125 C 411.488281 71.683594 411.871094 71.371094 412.28125 71.097656 C 412.691406 70.820312 413.125 70.589844 413.582031 70.402344 C 414.039062 70.210938 414.507812 70.070312 414.992188 69.972656 C 415.476562 69.875 415.96875 69.828125 416.460938 69.828125 L 431.511719 69.828125 C 432.003906 69.828125 432.496094 69.875 432.980469 69.972656 C 433.464844 70.070312 433.933594 70.210938 434.390625 70.402344 C 434.847656 70.589844 435.28125 70.820312 435.691406 71.097656 C 436.101562 71.371094 436.480469 71.683594 436.832031 72.03125 C 437.179688 72.382812 437.492188 72.761719 437.765625 73.171875 C 438.042969 73.582031 438.273438 74.015625 438.464844 74.472656 C 438.652344 74.929688 438.792969 75.398438 438.890625 75.882812 C 438.988281 76.367188 439.035156 76.859375 439.035156 77.351562 Z M 439.035156 77.351562 " fill-opacity="1" fill-rule="nonzero"/><g clip-path="url(#ecd2311d85)"><path fill="#262626" d="M 475.683594 75.65625 L 470.183594 74.554688 C 469.09375 70.410156 467.449219 66.441406 465.28125 62.726562 L 468.394531 58.054688 C 469.945312 55.722656 469.636719 52.601562 467.65625 50.621094 L 460.125 43.089844 C 458.144531 41.109375 455.019531 40.800781 452.691406 42.351562 L 448.015625 45.464844 C 444.300781 43.296875 440.332031 41.652344 436.191406 40.558594 L 435.089844 35.058594 C 434.539062 32.316406 432.109375 30.324219 429.3125 30.324219 L 418.660156 30.324219 C 415.863281 30.324219 413.433594 32.316406 412.882812 35.058594 L 411.78125 40.558594 C 407.640625 41.652344 403.671875 43.296875 399.957031 45.464844 L 395.28125 42.351562 C 392.957031 40.800781 389.828125 41.109375 387.847656 43.089844 L 380.316406 50.621094 C 378.335938 52.601562 378.027344 55.722656 379.578125 58.054688 L 382.691406 62.726562 C 380.523438 66.441406 378.878906 70.410156 377.789062 74.554688 L 372.289062 75.65625 C 369.542969 76.203125 367.550781 78.632812 367.550781 81.433594 L 367.550781 92.085938 C 367.550781 94.882812 369.542969 97.3125 372.289062 97.859375 L 377.789062 98.960938 C 378.878906 103.105469 380.523438 107.074219 382.691406 110.789062 L 379.578125 115.464844 C 378.027344 117.789062 378.335938 120.917969 380.316406 122.894531 L 387.847656 130.429688 C 389.828125 132.40625 392.957031 132.71875 395.28125 131.164062 L 399.953125 128.050781 C 403.671875 130.21875 407.640625 131.867188 411.78125 132.957031 L 412.882812 138.457031 C 413.433594 141.203125 415.859375 143.195312 418.660156 143.195312 L 429.3125 143.195312 C 432.109375 143.195312 434.539062 141.203125 435.089844 138.457031 L 436.191406 132.957031 C 440.332031 131.867188 444.300781 130.21875 448.019531 128.050781 L 452.691406 131.164062 C 455.019531 132.71875 458.144531 132.40625 460.125 130.429688 L 467.65625 122.894531 C 469.636719 120.917969 469.945312 117.789062 468.394531 115.464844 L 465.28125 110.789062 C 467.449219 107.074219 469.09375 103.105469 470.183594 98.960938 L 475.683594 97.859375 C 478.429688 97.3125 480.421875 94.882812 480.421875 92.085938 L 480.421875 81.433594 C 480.421875 78.632812 478.429688 76.203125 475.683594 75.65625 Z M 476.660156 92.085938 C 476.660156 93.097656 475.9375 93.976562 474.949219 94.171875 L 468.28125 95.507812 C 467.558594 95.648438 466.988281 96.203125 466.820312 96.917969 C 465.742188 101.484375 463.933594 105.839844 461.453125 109.855469 C 461.066406 110.476562 461.082031 111.273438 461.488281 111.886719 L 465.265625 117.550781 C 465.824219 118.390625 465.710938 119.523438 464.996094 120.238281 L 457.464844 127.769531 C 456.75 128.484375 455.625 128.597656 454.78125 128.039062 L 449.113281 124.261719 C 448.5 123.851562 447.710938 123.839844 447.082031 124.226562 C 443.066406 126.707031 438.714844 128.511719 434.144531 129.589844 C 433.429688 129.761719 432.875 130.332031 432.734375 131.054688 L 431.398438 137.71875 C 431.203125 138.710938 430.324219 139.433594 429.3125 139.433594 L 418.660156 139.433594 C 417.648438 139.433594 416.769531 138.710938 416.574219 137.71875 L 415.238281 131.054688 C 415.09375 130.332031 414.542969 129.761719 413.828125 129.589844 C 409.257812 128.511719 404.90625 126.707031 400.890625 124.226562 C 400.585938 124.039062 400.242188 123.945312 399.902344 123.945312 C 399.539062 123.945312 399.171875 124.050781 398.855469 124.261719 L 393.191406 128.039062 C 392.351562 128.601562 391.222656 128.484375 390.507812 127.769531 L 382.972656 120.238281 C 382.257812 119.523438 382.148438 118.394531 382.707031 117.550781 L 386.484375 111.886719 C 386.890625 111.273438 386.90625 110.476562 386.519531 109.855469 C 384.039062 105.839844 382.234375 101.484375 381.152344 96.917969 C 380.980469 96.203125 380.414062 95.648438 379.691406 95.507812 L 373.023438 94.171875 C 372.035156 93.976562 371.3125 93.097656 371.3125 92.085938 L 371.3125 81.433594 C 371.3125 80.421875 372.035156 79.542969 373.023438 79.34375 L 379.691406 78.011719 C 380.414062 77.867188 380.984375 77.316406 381.152344 76.601562 C 382.234375 72.027344 384.039062 67.675781 386.519531 63.660156 C 386.90625 63.035156 386.890625 62.242188 386.484375 61.628906 L 382.707031 55.964844 C 382.148438 55.125 382.257812 53.992188 382.972656 53.277344 L 390.507812 45.746094 C 391.222656 45.035156 392.347656 44.921875 393.191406 45.480469 L 398.859375 49.253906 C 399.472656 49.664062 400.265625 49.675781 400.890625 49.289062 C 404.90625 46.8125 409.257812 45.003906 413.828125 43.925781 C 414.542969 43.753906 415.09375 43.183594 415.238281 42.464844 L 416.574219 35.796875 C 416.769531 34.804688 417.648438 34.085938 418.660156 34.085938 L 429.3125 34.085938 C 430.324219 34.085938 431.203125 34.804688 431.398438 35.796875 L 432.734375 42.464844 C 432.875 43.1875 433.429688 43.757812 434.144531 43.925781 C 438.714844 45.003906 443.066406 46.808594 447.082031 49.289062 C 447.707031 49.675781 448.5 49.664062 449.113281 49.253906 L 454.78125 45.480469 C 455.621094 44.917969 456.75 45.035156 457.464844 45.746094 L 464.996094 53.277344 C 465.710938 53.992188 465.824219 55.121094 465.265625 55.964844 L 461.488281 61.628906 C 461.082031 62.242188 461.066406 63.035156 461.453125 63.660156 C 463.933594 67.675781 465.738281 72.027344 466.820312 76.601562 C 466.988281 77.316406 467.558594 77.867188 468.28125 78.011719 L 474.949219 79.34375 C 475.9375 79.542969 476.660156 80.421875 476.660156 81.433594 Z M 476.660156 92.085938 " fill-opacity="1" fill-rule="nonzero"/></g><path fill="#262626" d="M 423.984375 47.253906 C 414.570312 47.253906 405.449219 50.621094 398.308594 56.738281 C 397.519531 57.410156 397.425781 58.597656 398.101562 59.390625 C 398.78125 60.183594 399.96875 60.269531 400.753906 59.59375 C 407.21875 54.0625 415.464844 51.015625 423.988281 51.015625 C 443.699219 51.015625 459.730469 67.046875 459.730469 86.757812 C 459.730469 97 455.375 106.230469 448.445312 112.75 L 448.445312 105.570312 C 448.445312 101.417969 445.070312 98.042969 440.917969 98.042969 C 439.03125 98.042969 437.265625 98.738281 435.910156 99.957031 C 434.609375 99.085938 433.117188 98.484375 431.511719 98.214844 L 431.511719 94.28125 L 433.394531 94.28125 C 439.476562 94.28125 444.660156 90.199219 446.136719 84.417969 C 448.625 83.453125 450.324219 81.054688 450.324219 78.292969 L 450.324219 76.410156 C 450.324219 73.648438 448.628906 71.25 446.136719 70.28125 C 444.761719 64.894531 440.15625 61.03125 434.617188 60.523438 C 434.453125 60.257812 434.261719 60.011719 434.039062 59.785156 C 433.238281 58.980469 432.175781 58.539062 431.042969 58.539062 L 416.933594 58.539062 C 415.800781 58.539062 414.738281 58.980469 413.9375 59.785156 C 413.714844 60.011719 413.523438 60.261719 413.359375 60.523438 C 407.820312 61.03125 403.214844 64.894531 401.835938 70.28125 C 399.347656 71.25 397.648438 73.648438 397.648438 76.410156 L 397.648438 78.292969 C 397.648438 81.054688 399.347656 83.453125 401.835938 84.417969 C 403.316406 90.199219 408.496094 94.28125 414.582031 94.28125 L 416.460938 94.28125 L 416.460938 98.214844 C 414.855469 98.484375 413.363281 99.082031 412.066406 99.957031 C 410.707031 98.738281 408.945312 98.042969 407.054688 98.042969 C 402.90625 98.042969 399.53125 101.417969 399.53125 105.570312 L 399.53125 112.75 C 392.601562 106.226562 388.242188 97 388.242188 86.757812 C 388.242188 78.949219 390.714844 71.53125 395.390625 65.308594 C 396.015625 64.480469 395.847656 63.300781 395.019531 62.675781 C 394.191406 62.054688 393.011719 62.21875 392.382812 63.050781 C 387.214844 69.929688 384.484375 78.128906 384.484375 86.757812 C 384.484375 108.539062 402.207031 126.261719 423.988281 126.261719 C 445.769531 126.261719 463.492188 108.539062 463.492188 86.757812 C 463.492188 64.976562 445.769531 47.253906 423.988281 47.253906 Z M 440.917969 113.09375 C 442.292969 113.09375 443.566406 112.695312 444.679688 112.050781 L 444.679688 115.847656 C 443.472656 116.707031 442.226562 117.519531 440.917969 118.226562 Z M 444.679688 105.570312 C 444.679688 107.644531 442.992188 109.332031 440.917969 109.332031 C 440.917969 106.804688 440.070312 104.472656 438.660156 102.589844 C 439.304688 102.101562 440.078125 101.808594 440.917969 101.808594 C 442.992188 101.808594 444.679688 103.496094 444.679688 105.570312 Z M 416.460938 71.707031 L 431.511719 71.707031 C 434.621094 71.707031 437.15625 74.242188 437.15625 77.351562 C 437.15625 80.464844 434.621094 82.996094 431.511719 82.996094 L 416.460938 82.996094 C 413.351562 82.996094 410.816406 80.464844 410.816406 77.351562 C 410.816406 74.242188 413.351562 71.707031 416.460938 71.707031 Z M 416.601562 62.441406 C 416.664062 62.378906 416.773438 62.304688 416.933594 62.304688 L 431.039062 62.304688 C 431.199219 62.304688 431.308594 62.378906 431.371094 62.441406 C 431.425781 62.492188 431.511719 62.609375 431.511719 62.777344 C 431.511719 63.992188 430.855469 65.539062 429.667969 67.140625 C 429.296875 67.644531 428.6875 67.945312 428.039062 67.945312 L 419.9375 67.945312 C 419.285156 67.945312 418.675781 67.644531 418.304688 67.136719 C 417.117188 65.535156 416.464844 63.988281 416.460938 62.773438 C 416.460938 62.605469 416.546875 62.492188 416.601562 62.441406 Z M 405.300781 82.621094 C 405.171875 81.824219 404.554688 81.203125 403.757812 81.066406 C 402.398438 80.835938 401.410156 79.671875 401.410156 78.292969 L 401.410156 76.410156 C 401.410156 75.035156 402.398438 73.867188 403.757812 73.640625 C 404.554688 73.503906 405.171875 72.878906 405.300781 72.082031 C 405.941406 68.089844 408.992188 65.058594 412.875 64.347656 C 413.164062 65.757812 413.785156 67.070312 414.464844 68.167969 C 410.234375 69.089844 407.054688 72.851562 407.054688 77.351562 C 407.054688 82.535156 411.273438 86.757812 416.460938 86.757812 L 431.511719 86.757812 C 436.699219 86.757812 440.917969 82.535156 440.917969 77.351562 C 440.917969 72.851562 437.734375 69.089844 433.507812 68.167969 C 434.1875 67.066406 434.8125 65.75 435.097656 64.335938 C 438.960938 65.035156 442.027344 68.078125 442.671875 72.082031 C 442.800781 72.878906 443.417969 73.5 444.214844 73.636719 C 445.574219 73.867188 446.558594 75.03125 446.558594 76.410156 L 446.558594 78.292969 C 446.558594 79.667969 445.574219 80.835938 444.214844 81.0625 C 443.417969 81.199219 442.800781 81.824219 442.671875 82.621094 C 441.933594 87.199219 438.03125 90.519531 433.390625 90.519531 L 414.582031 90.519531 C 409.9375 90.519531 406.039062 87.195312 405.300781 82.621094 Z M 427.75 94.285156 L 427.75 98.046875 L 420.222656 98.046875 L 420.222656 94.285156 Z M 407.054688 101.808594 C 407.894531 101.808594 408.671875 102.101562 409.3125 102.589844 C 407.898438 104.472656 407.054688 106.804688 407.054688 109.332031 C 404.980469 109.332031 403.292969 107.644531 403.292969 105.570312 C 403.292969 103.496094 404.980469 101.808594 407.054688 101.808594 Z M 403.292969 112.050781 C 404.40625 112.695312 405.679688 113.09375 407.054688 113.09375 L 407.054688 118.226562 C 405.746094 117.515625 404.5 116.707031 403.292969 115.847656 Z M 410.816406 119.957031 L 410.816406 109.332031 C 410.816406 105.183594 414.191406 101.808594 418.34375 101.808594 L 429.628906 101.808594 C 433.78125 101.808594 437.15625 105.183594 437.15625 109.332031 L 437.15625 119.957031 C 433.074219 121.582031 428.636719 122.5 423.984375 122.5 C 419.335938 122.5 414.898438 121.582031 410.816406 119.957031 Z M 410.816406 119.957031 " fill-opacity="1" fill-rule="nonzero"/><path fill="#262626" d="M 418.34375 79.226562 C 419.382812 79.226562 420.222656 78.386719 420.222656 77.347656 L 420.222656 77.328125 C 420.222656 76.289062 419.382812 75.457031 418.34375 75.457031 C 417.300781 75.457031 416.460938 76.304688 416.460938 77.347656 C 416.460938 78.386719 417.300781 79.226562 418.34375 79.226562 Z M 418.34375 79.226562 " fill-opacity="1" fill-rule="nonzero"/><path fill="#262626" d="M 429.628906 79.226562 C 430.671875 79.226562 431.511719 78.386719 431.511719 77.347656 L 431.511719 77.328125 C 431.511719 76.289062 430.671875 75.457031 429.628906 75.457031 C 428.589844 75.457031 427.75 76.304688 427.75 77.347656 C 427.75 78.386719 428.589844 79.226562 429.628906 79.226562 Z M 429.628906 79.226562 " fill-opacity="1" fill-rule="nonzero"/><g clip-path="url(#0a65f110ac)"><g transform="matrix(1, 0, 0, 1, 0, 34)"><g clip-path="url(#0683de5ba3)"><g fill="#014b93" fill-opacity="1"><g transform="translate(1.840187, 102.90659)"><g><path d="M 91.265625 -70.0625 L 91.265625 -69.34375 C 91.265625 -69.425781 91.265625 -69.484375 91.265625 -69.515625 C 91.265625 -69.554688 91.265625 -69.617188 91.265625 -69.703125 C 91.265625 -69.785156 91.265625 -69.84375 91.265625 -69.875 C 91.265625 -69.914062 91.265625 -69.976562 91.265625 -70.0625 Z M 93.53125 -5.15625 C 94.007812 -4.507812 94.171875 -3.550781 94.015625 -2.28125 C 93.773438 -0.675781 92.859375 0.125 91.265625 0.125 L 78.09375 0.125 C 77.050781 0.125 76.210938 -0.113281 75.578125 -0.59375 C 75.335938 -0.757812 75.113281 -1 74.90625 -1.3125 C 74.707031 -1.632812 74.488281 -1.957031 74.25 -2.28125 L 52.578125 -40.71875 L 27.3125 -40.71875 L 27.3125 -4.078125 C 27.3125 -2.234375 26.890625 -1.070312 26.046875 -0.59375 C 25.210938 -0.113281 24.515625 0.125 23.953125 0.125 L 13.046875 0.125 C 12.492188 0.125 11.773438 -0.113281 10.890625 -0.59375 C 10.015625 -1.070312 9.578125 -2.234375 9.578125 -4.078125 L 9.578125 -54.375 C 9.578125 -56.207031 10.015625 -57.34375 10.890625 -57.78125 C 11.773438 -58.226562 12.492188 -58.453125 13.046875 -58.453125 L 65.15625 -58.453125 C 68.1875 -58.453125 70.300781 -59.328125 71.5 -61.078125 C 72.78125 -62.835938 73.421875 -65.710938 73.421875 -69.703125 C 73.421875 -73.691406 72.78125 -76.566406 71.5 -78.328125 C 70.300781 -80.085938 68.1875 -80.96875 65.15625 -80.96875 L 13.046875 -80.96875 C 12.492188 -80.96875 11.773438 -81.1875 10.890625 -81.625 C 10.015625 -82.0625 9.578125 -83.195312 9.578125 -85.03125 L 9.578125 -94.5 C 9.578125 -96.414062 10.015625 -97.59375 10.890625 -98.03125 C 11.773438 -98.46875 12.492188 -98.6875 13.046875 -98.6875 L 68.265625 -98.6875 C 76.492188 -98.6875 82.398438 -96.128906 85.984375 -91.015625 C 89.421875 -86.066406 91.179688 -78.960938 91.265625 -69.703125 C 91.179688 -60.441406 89.421875 -53.335938 85.984375 -48.390625 C 82.953125 -44.234375 78.484375 -41.796875 72.578125 -41.078125 Z M 93.53125 -5.15625 "/></g></g></g><g fill="#014b93" fill-opacity="1"><g transform="translate(109.40208, 102.90659)"><g/></g></g><g fill="#014b93" fill-opacity="1"><g transform="translate(174.792656, 102.90659)"><g/></g></g><g fill="#014b93" fill-opacity="1"><g transform="translate(240.218378, 102.90659)"><g><path d="M 92.453125 -68.140625 C 92.453125 -60.554688 90.457031 -54.769531 86.46875 -50.78125 C 90.863281 -46.789062 93.0625 -40.84375 93.0625 -32.9375 L 93.0625 -24.90625 C 93.0625 -23.070312 92.976562 -21.296875 92.8125 -19.578125 C 92.65625 -17.859375 92.414062 -16.242188 92.09375 -14.734375 C 91.78125 -13.210938 91.363281 -11.789062 90.84375 -10.46875 C 90.320312 -9.15625 89.660156 -7.941406 88.859375 -6.828125 C 87.503906 -4.671875 85.507812 -2.953125 82.875 -1.671875 C 80.476562 -0.472656 77.484375 0.125 73.890625 0.125 L 20 0.125 C 18.164062 0.125 16.425781 -0.332031 14.78125 -1.25 C 13.144531 -2.175781 11.851562 -3.4375 10.90625 -5.03125 C 10.257812 -6.144531 9.816406 -7.382812 9.578125 -8.75 L 9.703125 -90.546875 C 9.859375 -91.023438 10.035156 -91.519531 10.234375 -92.03125 C 10.441406 -92.550781 10.664062 -93.050781 10.90625 -93.53125 C 12.8125 -96.644531 15.5625 -98.320312 19.15625 -98.5625 L 19.15625 -98.6875 L 72.09375 -98.6875 C 79.445312 -98.6875 84.675781 -96.648438 87.78125 -92.578125 C 90.894531 -88.660156 92.453125 -82.753906 92.453125 -74.859375 Z M 27.1875 -18.328125 C 27.1875 -18.085938 27.207031 -17.925781 27.25 -17.84375 C 27.289062 -17.757812 27.3125 -17.71875 27.3125 -17.71875 L 68.984375 -17.71875 C 71.378906 -17.71875 73.054688 -18.238281 74.015625 -19.28125 C 74.972656 -20.394531 75.453125 -22.3125 75.453125 -25.03125 L 75.453125 -33.171875 C 75.453125 -35.722656 74.929688 -37.640625 73.890625 -38.921875 C 72.773438 -40.203125 70.703125 -40.84375 67.671875 -40.84375 L 44.4375 -40.84375 C 43.394531 -40.84375 42.472656 -41.21875 41.671875 -41.96875 C 40.878906 -42.726562 40.484375 -43.671875 40.484375 -44.796875 L 40.484375 -54.609375 C 40.484375 -55.734375 40.878906 -56.671875 41.671875 -57.421875 C 42.472656 -58.179688 43.394531 -58.5625 44.4375 -58.5625 L 67.671875 -58.5625 C 70.785156 -58.5625 72.820312 -59.117188 73.78125 -60.234375 C 74.8125 -61.359375 75.328125 -63.117188 75.328125 -65.515625 L 75.328125 -73.78125 C 75.328125 -76.414062 74.847656 -78.25 73.890625 -79.28125 C 72.929688 -80.40625 71.296875 -80.96875 68.984375 -80.96875 L 27.421875 -80.96875 C 27.265625 -80.96875 27.1875 -80.726562 27.1875 -80.25 Z M 27.1875 -18.328125 "/></g></g></g><g fill="#014b93" fill-opacity="1"><g transform="translate(346.712048, 102.90659)"><g/></g></g><g fill="#014b93" fill-opacity="1"><g transform="translate(412.102625, 102.90659)"><g/></g></g><g fill="#014b93" fill-opacity="1"><g transform="translate(477.52836, 102.90659)"><g><path d="M 92.34375 -98.6875 C 92.894531 -98.6875 93.609375 -98.46875 94.484375 -98.03125 C 95.367188 -97.59375 95.8125 -96.453125 95.8125 -94.609375 L 95.8125 -85.265625 C 95.8125 -83.273438 95.367188 -82.0625 94.484375 -81.625 C 93.609375 -81.1875 92.894531 -80.96875 92.34375 -80.96875 L 61.5625 -80.96875 L 61.5625 -4.078125 C 61.5625 -2.234375 61.140625 -1.09375 60.296875 -0.65625 C 59.460938 -0.21875 58.765625 0 58.203125 0 L 47.1875 0 C 46.707031 0 46.023438 -0.21875 45.140625 -0.65625 C 44.265625 -1.09375 43.828125 -2.234375 43.828125 -4.078125 L 43.828125 -80.96875 L 13.046875 -80.96875 C 12.492188 -80.96875 11.773438 -81.1875 10.890625 -81.625 C 10.015625 -82.0625 9.578125 -83.273438 9.578125 -85.265625 L 9.578125 -94.609375 C 9.578125 -96.453125 10.015625 -97.59375 10.890625 -98.03125 C 11.773438 -98.46875 12.492188 -98.6875 13.046875 -98.6875 Z M 92.34375 -98.6875 "/></g></g></g><g fill="#014b93" fill-opacity="1"><g transform="translate(586.752532, 102.90659)"><g><path d="M 23.953125 -98.6875 C 24.429688 -98.6875 25.109375 -98.445312 25.984375 -97.96875 C 26.867188 -97.488281 27.3125 -96.332031 27.3125 -94.5 L 27.3125 -4.078125 C 27.3125 -2.234375 26.867188 -1.070312 25.984375 -0.59375 C 25.109375 -0.113281 24.429688 0.125 23.953125 0.125 L 12.9375 0.125 C 12.457031 0.125 11.773438 -0.113281 10.890625 -0.59375 C 10.015625 -1.070312 9.578125 -2.234375 9.578125 -4.078125 L 9.578125 -94.5 C 9.578125 -96.332031 10.015625 -97.488281 10.890625 -97.96875 C 11.773438 -98.445312 12.457031 -98.6875 12.9375 -98.6875 Z M 23.953125 -98.6875 "/></g></g></g><g fill="#014b93" fill-opacity="1"><g transform="translate(627.471694, 102.90659)"><g><path d="M 82.765625 -98.6875 C 83.242188 -98.6875 83.921875 -98.445312 84.796875 -97.96875 C 85.671875 -97.488281 86.109375 -96.332031 86.109375 -94.5 L 86.109375 -85.265625 C 86.109375 -83.359375 85.671875 -82.164062 84.796875 -81.6875 C 83.921875 -81.207031 83.242188 -80.96875 82.765625 -80.96875 L 39.765625 -80.96875 C 37.046875 -80.96875 34.96875 -80.6875 33.53125 -80.125 C 32.09375 -79.644531 30.894531 -78.765625 29.9375 -77.484375 C 29.0625 -76.285156 28.382812 -74.53125 27.90625 -72.21875 C 27.75 -71.101562 27.609375 -69.804688 27.484375 -68.328125 C 27.367188 -66.847656 27.3125 -65.191406 27.3125 -63.359375 L 27.3125 -35.453125 C 27.3125 -33.691406 27.367188 -32.050781 27.484375 -30.53125 C 27.609375 -29.019531 27.75 -27.664062 27.90625 -26.46875 C 28.144531 -25.351562 28.421875 -24.351562 28.734375 -23.46875 C 29.054688 -22.59375 29.457031 -21.835938 29.9375 -21.203125 C 30.894531 -19.921875 32.09375 -19.039062 33.53125 -18.5625 C 34.96875 -18 37.046875 -17.71875 39.765625 -17.71875 L 82.765625 -17.71875 C 83.242188 -17.71875 83.921875 -17.476562 84.796875 -17 C 85.671875 -16.519531 86.109375 -15.363281 86.109375 -13.53125 L 86.109375 -4.078125 C 86.109375 -2.234375 85.671875 -1.070312 84.796875 -0.59375 C 83.921875 -0.113281 83.242188 0.125 82.765625 0.125 L 39.15625 0.125 C 33.96875 0.125 29.457031 -0.554688 25.625 -1.921875 C 21.957031 -3.191406 18.882812 -5.382812 16.40625 -8.5 C 13.925781 -11.695312 12.171875 -15.609375 11.140625 -20.234375 C 10.578125 -22.628906 10.175781 -25.265625 9.9375 -28.140625 C 9.695312 -31.015625 9.578125 -34.128906 9.578125 -37.484375 L 9.578125 -61.203125 C 9.578125 -64.472656 9.695312 -67.546875 9.9375 -70.421875 C 10.175781 -73.296875 10.578125 -75.890625 11.140625 -78.203125 C 12.171875 -82.992188 13.925781 -86.90625 16.40625 -89.9375 C 18.71875 -92.976562 21.789062 -95.21875 25.625 -96.65625 C 29.457031 -98.007812 33.96875 -98.6875 39.15625 -98.6875 Z M 82.765625 -98.6875 "/></g></g></g><g fill="#014b93" fill-opacity="1"><g transform="translate(726.994988, 102.90659)"><g><path d="M 73.78125 -87.546875 L 107.421875 -4.546875 C 107.898438 -3.429688 108.019531 -2.472656 107.78125 -1.671875 C 107.707031 -1.359375 107.488281 -0.976562 107.125 -0.53125 C 106.769531 -0.09375 106.113281 0.125 105.15625 0.125 L 92.34375 0.125 C 90.664062 0.125 89.503906 -0.753906 88.859375 -2.515625 L 59.171875 -76.65625 C 59.085938 -76.8125 59.046875 -76.890625 59.046875 -76.890625 L 58.5625 -76.890625 C 58.5625 -76.890625 58.539062 -76.867188 58.5 -76.828125 C 58.46875 -76.785156 58.410156 -76.6875 58.328125 -76.53125 L 43 -37.71875 L 57.84375 -37.71875 C 59.519531 -37.71875 60.675781 -36.921875 61.3125 -35.328125 L 65.625 -24.671875 C 66.03125 -23.316406 65.875 -22.160156 65.15625 -21.203125 C 64.507812 -20.078125 63.46875 -19.515625 62.03125 -19.515625 L 35.8125 -19.515625 L 28.984375 -2.390625 C 28.347656 -0.710938 27.226562 0.125 25.625 0.125 L 12.453125 0.125 C 11.492188 0.125 10.832031 -0.09375 10.46875 -0.53125 C 10.113281 -0.976562 9.898438 -1.359375 9.828125 -1.671875 C 9.585938 -2.390625 9.664062 -3.347656 10.0625 -4.546875 L 43.46875 -87.546875 C 45.070312 -91.773438 46.832031 -94.691406 48.75 -96.296875 C 48.988281 -96.453125 49.265625 -96.648438 49.578125 -96.890625 C 49.898438 -97.128906 50.222656 -97.328125 50.546875 -97.484375 C 52.941406 -99.160156 55.695312 -100 58.8125 -100 C 62.082031 -100 65.035156 -99 67.671875 -97 C 70.304688 -95.007812 72.101562 -92.457031 73.0625 -89.34375 C 73.21875 -89.101562 73.351562 -88.820312 73.46875 -88.5 C 73.59375 -88.1875 73.695312 -87.867188 73.78125 -87.546875 Z M 73.78125 -87.546875 "/></g></g></g><g fill="#014b93" fill-opacity="1"><g transform="translate(848.435121, 102.90659)"><g/></g></g><g fill="#014b93" fill-opacity="1"><g transform="translate(913.825697, 102.90659)"><g><path d="M 78.921875 -100.359375 C 86.265625 -100.359375 91.613281 -98.203125 94.96875 -93.890625 C 98.488281 -89.503906 100.25 -83.878906 100.25 -77.015625 L 100.25 -66.953125 C 100.25 -59.128906 98.453125 -53.0625 94.859375 -48.75 C 91.335938 -44.507812 86.109375 -42.390625 79.171875 -42.390625 L 33.53125 -42.390625 C 29.382812 -42.390625 27.3125 -39.675781 27.3125 -34.25 L 27.3125 -20.59375 C 27.3125 -18.601562 28.109375 -17.609375 29.703125 -17.609375 L 97.375 -17.609375 C 99.207031 -17.609375 100.125 -16.53125 100.125 -14.375 L 100.125 -3.109375 C 100.125 -0.953125 99.207031 0.125 97.375 0.125 L 20.71875 0.125 C 16.726562 0.125 13.851562 -0.875 12.09375 -2.875 C 10.414062 -4.789062 9.578125 -7.863281 9.578125 -12.09375 L 9.578125 -34.25 C 9.578125 -42.3125 11.332031 -48.378906 14.84375 -52.453125 C 18.363281 -56.765625 23.597656 -58.921875 30.546875 -58.921875 L 76.171875 -58.921875 C 80.328125 -58.921875 82.40625 -61.597656 82.40625 -66.953125 L 82.40625 -74.609375 C 82.40625 -77.171875 81.925781 -79.171875 80.96875 -80.609375 C 80.007812 -82.046875 78.367188 -82.765625 76.046875 -82.765625 L 21.921875 -82.765625 C 20.160156 -82.765625 19.28125 -83.835938 19.28125 -85.984375 L 19.28125 -97.125 C 19.28125 -99.28125 20.160156 -100.359375 21.921875 -100.359375 Z M 78.921875 -100.359375 "/></g></g></g><g fill="#014b93" fill-opacity="1"><g transform="translate(1027.481166, 102.90659)"><g><path d="M 99.046875 -44.90625 C 99.765625 -41.957031 100.125 -38.523438 100.125 -34.609375 L 100.125 -24.1875 C 100.125 -16.363281 98.488281 -10.414062 95.21875 -6.34375 C 91.863281 -2.03125 86.234375 0.125 78.328125 0.125 L 43.234375 0.125 C 37.242188 0.125 32.09375 -0.554688 27.78125 -1.921875 C 25.625 -2.554688 23.6875 -3.429688 21.96875 -4.546875 C 20.257812 -5.671875 18.722656 -6.988281 17.359375 -8.5 C 14.648438 -11.613281 12.695312 -15.523438 11.5 -20.234375 C 10.9375 -22.628906 10.472656 -25.304688 10.109375 -28.265625 C 9.753906 -31.222656 9.578125 -34.414062 9.578125 -37.84375 L 9.578125 -62.515625 C 9.578125 -65.953125 9.753906 -69.125 10.109375 -72.03125 C 10.472656 -74.945312 10.9375 -77.601562 11.5 -80 C 12.132812 -82.394531 12.953125 -84.550781 13.953125 -86.46875 C 14.953125 -88.382812 16.085938 -90.101562 17.359375 -91.625 C 18.722656 -93.132812 20.257812 -94.445312 21.96875 -95.5625 C 23.6875 -96.6875 25.625 -97.566406 27.78125 -98.203125 C 32.019531 -99.640625 37.171875 -100.359375 43.234375 -100.359375 L 87.671875 -100.359375 C 89.421875 -100.359375 90.296875 -99.28125 90.296875 -97.125 L 90.296875 -85.875 C 90.296875 -83.800781 89.421875 -82.765625 87.671875 -82.765625 L 43.234375 -82.765625 C 40.273438 -82.765625 37.722656 -82.441406 35.578125 -81.796875 C 33.492188 -81.242188 31.851562 -80.164062 30.65625 -78.5625 C 29.457031 -76.96875 28.617188 -74.972656 28.140625 -72.578125 C 27.660156 -70.097656 27.421875 -66.941406 27.421875 -63.109375 L 27.421875 -37 C 27.421875 -33.332031 27.660156 -30.179688 28.140625 -27.546875 C 28.617188 -24.992188 29.457031 -23 30.65625 -21.5625 C 31.9375 -20.039062 33.578125 -19 35.578125 -18.4375 C 37.722656 -17.800781 40.273438 -17.484375 43.234375 -17.484375 L 75.453125 -17.484375 C 77.929688 -17.484375 79.726562 -18.160156 80.84375 -19.515625 C 81.957031 -20.878906 82.515625 -23.078125 82.515625 -26.109375 L 82.515625 -34.609375 C 82.515625 -37.640625 82 -39.796875 80.96875 -41.078125 C 79.84375 -42.429688 78.046875 -43.109375 75.578125 -43.109375 L 44.796875 -43.109375 C 43.992188 -43.109375 43.289062 -43.390625 42.6875 -43.953125 C 42.09375 -44.515625 41.796875 -45.191406 41.796875 -45.984375 L 41.796875 -55.9375 C 41.796875 -56.8125 42.09375 -57.523438 42.6875 -58.078125 C 43.289062 -58.640625 43.992188 -58.921875 44.796875 -58.921875 L 79.171875 -58.921875 C 82.835938 -58.921875 86.109375 -58.363281 88.984375 -57.25 C 91.535156 -56.207031 93.691406 -54.609375 95.453125 -52.453125 C 97.128906 -50.460938 98.328125 -47.945312 99.046875 -44.90625 Z M 99.046875 -44.90625 "/></g></g></g></g></g></g><g clip-path="url(#b3f799fac2)"><g clip-path="url(#8b39f8d408)"><g transform="matrix(1, 0, 0, 1, 2, 159)"><g clip-path="url(#16213c9eef)"><g clip-path="url(#2870bb701e)"><g clip-path="url(#57a0fcba0d)"><path fill="#c9042d" d="M 0.855469 0.566406 L 1129.957031 0.566406 L 1129.957031 93.660156 L 0.855469 93.660156 Z M 0.855469 0.566406 " fill-opacity="1" fill-rule="nonzero"/></g></g></g></g></g></g><g transform="matrix(1, 0, 0, 1, 839, 50)"><g clip-path="url(#892c947891)"><g fill="#000000" fill-opacity="1"><g transform="translate(0.648403, 100.814717)"><g><path d="M 14.539062 -48.84375 C 12.125 -48.84375 10.199219 -49.617188 8.765625 -51.167969 C 7.421875 -52.617188 6.75 -54.535156 6.75 -56.910156 L 6.75 -64.941406 C 6.75 -67.316406 7.421875 -69.234375 8.765625 -70.6875 C 10.199219 -72.234375 12.125 -73.007812 14.539062 -73.007812 L 57.050781 -73.007812 C 59.464844 -73.007812 61.386719 -72.234375 62.820312 -70.6875 C 64.164062 -69.234375 64.839844 -67.316406 64.839844 -64.941406 L 64.839844 -56.910156 C 64.839844 -54.535156 64.164062 -52.617188 62.820312 -51.167969 C 61.386719 -49.617188 59.464844 -48.84375 57.050781 -48.84375 Z M 14.539062 -57.5 L 57.050781 -57.5 C 57.117188 -57.5 57.167969 -57.503906 57.199219 -57.507812 C 57.175781 -57.503906 57.144531 -57.492188 57.097656 -57.476562 C 56.867188 -57.394531 56.660156 -57.25 56.46875 -57.046875 C 56.3125 -56.875 56.207031 -56.710938 56.160156 -56.550781 C 56.175781 -56.601562 56.183594 -56.722656 56.183594 -56.910156 L 56.183594 -64.941406 C 56.183594 -65.128906 56.175781 -65.25 56.160156 -65.300781 C 56.207031 -65.140625 56.3125 -64.976562 56.46875 -64.804688 C 56.660156 -64.601562 56.867188 -64.457031 57.097656 -64.375 C 57.144531 -64.359375 57.175781 -64.347656 57.199219 -64.34375 C 57.167969 -64.351562 57.117188 -64.351562 57.050781 -64.351562 L 14.539062 -64.351562 C 14.472656 -64.351562 14.421875 -64.351562 14.386719 -64.34375 C 14.410156 -64.347656 14.445312 -64.359375 14.492188 -64.375 C 14.71875 -64.457031 14.929688 -64.601562 15.117188 -64.804688 C 15.277344 -64.976562 15.378906 -65.140625 15.429688 -65.300781 C 15.414062 -65.25 15.40625 -65.128906 15.40625 -64.941406 L 15.40625 -56.910156 C 15.40625 -56.722656 15.414062 -56.601562 15.429688 -56.550781 C 15.378906 -56.710938 15.277344 -56.875 15.117188 -57.046875 C 14.929688 -57.25 14.71875 -57.394531 14.492188 -57.476562 C 14.445312 -57.492188 14.410156 -57.503906 14.386719 -57.507812 C 14.421875 -57.503906 14.472656 -57.5 14.539062 -57.5 Z M 14.539062 -57.5 "/></g></g></g><g fill="#c9042d" fill-opacity="1"><g transform="translate(0.648403, 100.814717)"><g><path d="M 14.546875 -53.171875 C 12.234375 -53.171875 11.078125 -54.414062 11.078125 -56.90625 L 11.078125 -64.9375 C 11.078125 -67.4375 12.234375 -68.6875 14.546875 -68.6875 L 57.046875 -68.6875 C 59.359375 -68.6875 60.515625 -67.4375 60.515625 -64.9375 L 60.515625 -56.90625 C 60.515625 -54.414062 59.359375 -53.171875 57.046875 -53.171875 Z M 14.546875 -53.171875 "/></g></g></g></g></g><path fill="#c9042d" d="M 1145.1875 25.128906 L 1145.1875 40.21875 L 1139.417969 40.21875 L 1139.417969 25.128906 L 1135.300781 25.128906 L 1135.300781 20.375 L 1149.300781 20.375 L 1149.300781 25.128906 L 1145.1875 25.128906 " fill-opacity="1" fill-rule="nonzero"/><path fill="#c9042d" d="M 1172.605469 20.375 L 1172.605469 40.21875 L 1166.949219 40.21875 L 1166.949219 26.03125 L 1163.277344 40.21875 L 1159.414062 40.21875 L 1155.597656 26.03125 L 1155.597656 40.21875 L 1151.03125 40.21875 L 1151.03125 20.375 L 1158.992188 20.375 L 1161.867188 30.914062 L 1164.617188 20.375 L 1172.605469 20.375 " fill-opacity="1" fill-rule="nonzero"/><g clip-path="url(#f6d60a6403)"><path fill="#c9042d" d="M 1153.953125 5.226562 C 1140.125 5.226562 1128.875 16.476562 1128.875 30.304688 C 1128.875 44.132812 1140.125 55.382812 1153.953125 55.382812 C 1167.78125 55.382812 1179.03125 44.132812 1179.03125 30.304688 C 1179.03125 16.476562 1167.78125 5.226562 1153.953125 5.226562 Z M 1153.953125 60.269531 C 1149.910156 60.269531 1145.984375 59.476562 1142.289062 57.914062 C 1138.722656 56.402344 1135.515625 54.242188 1132.765625 51.492188 C 1130.015625 48.742188 1127.855469 45.539062 1126.34375 41.96875 C 1124.78125 38.273438 1123.988281 34.347656 1123.988281 30.304688 C 1123.988281 26.261719 1124.78125 22.335938 1126.34375 18.640625 C 1127.855469 15.070312 1130.015625 11.867188 1132.765625 9.117188 C 1135.515625 6.363281 1138.722656 4.203125 1142.289062 2.695312 C 1145.984375 1.132812 1149.910156 0.339844 1153.953125 0.339844 C 1158 0.339844 1161.921875 1.132812 1165.617188 2.695312 C 1169.1875 4.203125 1172.390625 6.363281 1175.140625 9.117188 C 1177.894531 11.867188 1180.054688 15.070312 1181.5625 18.640625 C 1183.125 22.335938 1183.917969 26.261719 1183.917969 30.304688 C 1183.917969 34.347656 1183.125 38.273438 1181.5625 41.96875 C 1180.054688 45.539062 1177.894531 48.742188 1175.140625 51.492188 C 1172.390625 54.242188 1169.1875 56.402344 1165.617188 57.914062 C 1161.921875 59.476562 1158 60.269531 1153.953125 60.269531 " fill-opacity="1" fill-rule="nonzero"/></g><g transform="matrix(1, 0, 0, 1, 34, 178)"><g clip-path="url(#b0ee81143e)"><g fill="#ffffff" fill-opacity="1"><g transform="translate(0.950847, 40.121195)"><g><path d="M 0.453125 -30.5 L 25.0625 -30.5 L 8.5625 0 L 0.8125 0 L 14.65625 -24.3125 L 0.453125 -24.3125 Z M 0.453125 -30.5 "/></g></g></g><g fill="#ffffff" fill-opacity="1"><g transform="translate(29.836629, 40.121195)"><g/></g></g><g fill="#ffffff" fill-opacity="1"><g transform="translate(45.300269, 40.121195)"><g/></g></g><g fill="#ffffff" fill-opacity="1"><g transform="translate(60.763909, 40.121195)"><g/></g></g><g fill="#ffffff" fill-opacity="1"><g transform="translate(76.278434, 40.121195)"><g><path d="M 9.421875 0 L 2.6875 0 L 2.6875 -30.5 L 9.421875 -30.5 Z M 9.421875 0 "/></g></g></g><g fill="#ffffff" fill-opacity="1"><g transform="translate(92.638225, 40.121195)"><g><path d="M 26.640625 0 L 19.90625 0 L 9.421875 -19.015625 L 9.421875 0 L 2.6875 0 L 2.6875 -30.5 L 9.421875 -30.5 L 19.90625 -11.484375 L 19.90625 -30.5 L 26.640625 -30.5 Z M 26.640625 0 "/></g></g></g><g fill="#ffffff" fill-opacity="1"><g transform="translate(126.20467, 40.121195)"><g><path d="M 15.65625 -24.390625 L 15.65625 0 L 8.921875 0 L 8.921875 -24.390625 L 0.21875 -24.390625 L 0.21875 -30.5 L 24.34375 -30.5 L 24.34375 -24.390625 Z M 15.65625 -24.390625 "/></g></g></g><g fill="#ffffff" fill-opacity="1"><g transform="translate(155.021375, 40.121195)"><g><path d="M 20.359375 -6.09375 L 20.359375 0 L 2.6875 0 L 2.6875 -30.5 L 20.359375 -30.5 L 20.359375 -24.390625 L 9.421875 -24.390625 L 9.421875 -18.34375 L 19.90625 -18.34375 L 19.90625 -12.25 L 9.421875 -12.25 L 9.421875 -6.09375 Z M 20.359375 -6.09375 "/></g></g></g><g fill="#ffffff" fill-opacity="1"><g transform="translate(182.314558, 40.121195)"><g><path d="M 9.421875 -10.890625 L 9.421875 0 L 2.6875 0 L 2.6875 -30.5 L 14.125 -30.5 C 15.769531 -30.5 17.300781 -30.085938 18.71875 -29.265625 C 20.144531 -28.441406 21.289062 -27.296875 22.15625 -25.828125 C 23.019531 -24.359375 23.453125 -22.65625 23.453125 -20.71875 C 23.453125 -19.007812 23.132812 -17.5 22.5 -16.1875 C 21.875 -14.875 21.039062 -13.796875 20 -12.953125 C 18.957031 -12.117188 17.789062 -11.535156 16.5 -11.203125 L 25.25 0 L 16.734375 0 L 9.46875 -10.890625 Z M 13 -25.203125 L 9.421875 -25.203125 L 9.421875 -16.1875 L 13 -16.1875 C 13.988281 -16.1875 14.910156 -16.570312 15.765625 -17.34375 C 16.617188 -18.125 17.046875 -19.25 17.046875 -20.71875 C 17.046875 -22.125 16.617188 -23.222656 15.765625 -24.015625 C 14.910156 -24.804688 13.988281 -25.203125 13 -25.203125 Z M 13 -25.203125 "/></g></g></g><g fill="#ffffff" fill-opacity="1"><g transform="translate(211.265679, 40.121195)"><g><path d="M 26.640625 0 L 19.90625 0 L 9.421875 -19.015625 L 9.421875 0 L 2.6875 0 L 2.6875 -30.5 L 9.421875 -30.5 L 19.90625 -11.484375 L 19.90625 -30.5 L 26.640625 -30.5 Z M 26.640625 0 "/></g></g></g><g fill="#ffffff" fill-opacity="1"><g transform="translate(244.832123, 40.121195)"><g><path d="M 19.28125 -11.65625 L 15.421875 -22.515625 L 11.5625 -11.65625 Z M 30.671875 0 L 23.453125 0 L 21.25 -6.140625 L 9.640625 -6.140625 L 7.4375 0 L 0.21875 0 L 12.59375 -30.5 L 18.296875 -30.5 Z M 30.671875 0 "/></g></g></g><g fill="#ffffff" fill-opacity="1"><g transform="translate(279.966896, 40.121195)"><g><path d="M 15.65625 -24.390625 L 15.65625 0 L 8.921875 0 L 8.921875 -24.390625 L 0.21875 -24.390625 L 0.21875 -30.5 L 24.34375 -30.5 L 24.34375 -24.390625 Z M 15.65625 -24.390625 "/></g></g></g><g fill="#ffffff" fill-opacity="1"><g transform="translate(308.783601, 40.121195)"><g><path d="M 9.421875 0 L 2.6875 0 L 2.6875 -30.5 L 9.421875 -30.5 Z M 9.421875 0 "/></g></g></g><g fill="#ffffff" fill-opacity="1"><g transform="translate(325.143392, 40.121195)"><g><path d="M 26.234375 -15.296875 C 26.234375 -16.878906 25.8125 -18.347656 24.96875 -19.703125 C 24.132812 -21.066406 23.035156 -22.164062 21.671875 -23 C 20.316406 -23.84375 18.847656 -24.265625 17.265625 -24.265625 C 15.710938 -24.265625 14.25 -23.84375 12.875 -23 C 11.5 -22.164062 10.390625 -21.066406 9.546875 -19.703125 C 8.710938 -18.347656 8.296875 -16.878906 8.296875 -15.296875 C 8.296875 -13.734375 8.710938 -12.265625 9.546875 -10.890625 C 10.390625 -9.515625 11.5 -8.398438 12.875 -7.546875 C 14.25 -6.703125 15.710938 -6.28125 17.265625 -6.28125 C 18.847656 -6.28125 20.316406 -6.703125 21.671875 -7.546875 C 23.035156 -8.398438 24.132812 -9.515625 24.96875 -10.890625 C 25.8125 -12.265625 26.234375 -13.734375 26.234375 -15.296875 Z M 32.953125 -15.25 C 32.953125 -13.15625 32.535156 -11.15625 31.703125 -9.25 C 30.867188 -7.351562 29.722656 -5.679688 28.265625 -4.234375 C 26.816406 -2.785156 25.148438 -1.640625 23.265625 -0.796875 C 21.390625 0.0351562 19.390625 0.453125 17.265625 0.453125 C 15.171875 0.453125 13.175781 0.0351562 11.28125 -0.796875 C 9.382812 -1.640625 7.707031 -2.785156 6.25 -4.234375 C 4.800781 -5.679688 3.65625 -7.351562 2.8125 -9.25 C 1.976562 -11.15625 1.5625 -13.15625 1.5625 -15.25 C 1.5625 -17.375 1.976562 -19.375 2.8125 -21.25 C 3.65625 -23.132812 4.800781 -24.800781 6.25 -26.25 C 7.707031 -27.707031 9.382812 -28.851562 11.28125 -29.6875 C 13.175781 -30.519531 15.171875 -30.9375 17.265625 -30.9375 C 19.390625 -30.9375 21.390625 -30.519531 23.265625 -29.6875 C 25.148438 -28.851562 26.816406 -27.707031 28.265625 -26.25 C 29.722656 -24.800781 30.867188 -23.132812 31.703125 -21.25 C 32.535156 -19.375 32.953125 -17.375 32.953125 -15.25 Z M 32.953125 -15.25 "/></g></g></g><g fill="#ffffff" fill-opacity="1"><g transform="translate(363.907677, 40.121195)"><g><path d="M 26.640625 0 L 19.90625 0 L 9.421875 -19.015625 L 9.421875 0 L 2.6875 0 L 2.6875 -30.5 L 9.421875 -30.5 L 19.90625 -11.484375 L 19.90625 -30.5 L 26.640625 -30.5 Z M 26.640625 0 "/></g></g></g><g fill="#ffffff" fill-opacity="1"><g transform="translate(397.474121, 40.121195)"><g><path d="M 19.28125 -11.65625 L 15.421875 -22.515625 L 11.5625 -11.65625 Z M 30.671875 0 L 23.453125 0 L 21.25 -6.140625 L 9.640625 -6.140625 L 7.4375 0 L 0.21875 0 L 12.59375 -30.5 L 18.296875 -30.5 Z M 30.671875 0 "/></g></g></g><g fill="#ffffff" fill-opacity="1"><g transform="translate(432.608894, 40.121195)"><g><path d="M 2.6875 0 L 2.6875 -30.5 L 9.421875 -30.5 L 9.421875 -6.09375 L 20.359375 -6.09375 L 20.359375 0 Z M 2.6875 0 "/></g></g></g><g fill="#ffffff" fill-opacity="1"><g transform="translate(458.781849, 40.121195)"><g/></g></g><g fill="#ffffff" fill-opacity="1"><g transform="translate(474.245489, 40.121195)"><g><path d="M 9.421875 -10.890625 L 9.421875 0 L 2.6875 0 L 2.6875 -30.5 L 14.125 -30.5 C 15.769531 -30.5 17.300781 -30.085938 18.71875 -29.265625 C 20.144531 -28.441406 21.289062 -27.296875 22.15625 -25.828125 C 23.019531 -24.359375 23.453125 -22.65625 23.453125 -20.71875 C 23.453125 -19.007812 23.132812 -17.5 22.5 -16.1875 C 21.875 -14.875 21.039062 -13.796875 20 -12.953125 C 18.957031 -12.117188 17.789062 -11.535156 16.5 -11.203125 L 25.25 0 L 16.734375 0 L 9.46875 -10.890625 Z M 13 -25.203125 L 9.421875 -25.203125 L 9.421875 -16.1875 L 13 -16.1875 C 13.988281 -16.1875 14.910156 -16.570312 15.765625 -17.34375 C 16.617188 -18.125 17.046875 -19.25 17.046875 -20.71875 C 17.046875 -22.125 16.617188 -23.222656 15.765625 -24.015625 C 14.910156 -24.804688 13.988281 -25.203125 13 -25.203125 Z M 13 -25.203125 "/></g></g></g><g fill="#ffffff" fill-opacity="1"><g transform="translate(503.19661, 40.121195)"><g><path d="M 26.234375 -15.296875 C 26.234375 -16.878906 25.8125 -18.347656 24.96875 -19.703125 C 24.132812 -21.066406 23.035156 -22.164062 21.671875 -23 C 20.316406 -23.84375 18.847656 -24.265625 17.265625 -24.265625 C 15.710938 -24.265625 14.25 -23.84375 12.875 -23 C 11.5 -22.164062 10.390625 -21.066406 9.546875 -19.703125 C 8.710938 -18.347656 8.296875 -16.878906 8.296875 -15.296875 C 8.296875 -13.734375 8.710938 -12.265625 9.546875 -10.890625 C 10.390625 -9.515625 11.5 -8.398438 12.875 -7.546875 C 14.25 -6.703125 15.710938 -6.28125 17.265625 -6.28125 C 18.847656 -6.28125 20.316406 -6.703125 21.671875 -7.546875 C 23.035156 -8.398438 24.132812 -9.515625 24.96875 -10.890625 C 25.8125 -12.265625 26.234375 -13.734375 26.234375 -15.296875 Z M 32.953125 -15.25 C 32.953125 -13.15625 32.535156 -11.15625 31.703125 -9.25 C 30.867188 -7.351562 29.722656 -5.679688 28.265625 -4.234375 C 26.816406 -2.785156 25.148438 -1.640625 23.265625 -0.796875 C 21.390625 0.0351562 19.390625 0.453125 17.265625 0.453125 C 15.171875 0.453125 13.175781 0.0351562 11.28125 -0.796875 C 9.382812 -1.640625 7.707031 -2.785156 6.25 -4.234375 C 4.800781 -5.679688 3.65625 -7.351562 2.8125 -9.25 C 1.976562 -11.15625 1.5625 -13.15625 1.5625 -15.25 C 1.5625 -17.375 1.976562 -19.375 2.8125 -21.25 C 3.65625 -23.132812 4.800781 -24.800781 6.25 -26.25 C 7.707031 -27.707031 9.382812 -28.851562 11.28125 -29.6875 C 13.175781 -30.519531 15.171875 -30.9375 17.265625 -30.9375 C 19.390625 -30.9375 21.390625 -30.519531 23.265625 -29.6875 C 25.148438 -28.851562 26.816406 -27.707031 28.265625 -26.25 C 29.722656 -24.800781 30.867188 -23.132812 31.703125 -21.25 C 32.535156 -19.375 32.953125 -17.375 32.953125 -15.25 Z M 32.953125 -15.25 "/></g></g></g><g fill="#ffffff" fill-opacity="1"><g transform="translate(541.960894, 40.121195)"><g><path d="M 17.40625 -8.921875 C 17.40625 -9.910156 17.035156 -10.769531 16.296875 -11.5 C 15.566406 -12.226562 14.691406 -12.59375 13.671875 -12.59375 L 9.421875 -12.59375 L 9.421875 -5.25 L 13.671875 -5.25 C 14.691406 -5.25 15.566406 -5.609375 16.296875 -6.328125 C 17.035156 -7.046875 17.40625 -7.910156 17.40625 -8.921875 Z M 15.296875 -21.65625 C 15.296875 -22.644531 14.941406 -23.484375 14.234375 -24.171875 C 13.535156 -24.859375 12.707031 -25.203125 11.75 -25.203125 L 9.421875 -25.203125 L 9.421875 -18.109375 L 11.75 -18.109375 C 12.707031 -18.109375 13.535156 -18.457031 14.234375 -19.15625 C 14.941406 -19.863281 15.296875 -20.695312 15.296875 -21.65625 Z M 24.265625 -8.75 C 24.265625 -6.113281 23.457031 -3.992188 21.84375 -2.390625 C 20.226562 -0.796875 17.953125 0 15.015625 0 L 2.6875 0 L 2.6875 -30.5 L 13.1875 -30.5 C 14.914062 -30.5 16.414062 -30.15625 17.6875 -29.46875 C 18.957031 -28.78125 19.941406 -27.859375 20.640625 -26.703125 C 21.347656 -25.554688 21.703125 -24.28125 21.703125 -22.875 C 21.703125 -21.3125 21.378906 -19.96875 20.734375 -18.84375 C 20.097656 -17.726562 19.210938 -16.914062 18.078125 -16.40625 C 19.773438 -16.019531 21.226562 -15.160156 22.4375 -13.828125 C 23.65625 -12.503906 24.265625 -10.8125 24.265625 -8.75 Z M 24.265625 -8.75 "/></g></g></g><g fill="#ffffff" fill-opacity="1"><g transform="translate(570.912015, 40.121195)"><g><path d="M 26.234375 -15.296875 C 26.234375 -16.878906 25.8125 -18.347656 24.96875 -19.703125 C 24.132812 -21.066406 23.035156 -22.164062 21.671875 -23 C 20.316406 -23.84375 18.847656 -24.265625 17.265625 -24.265625 C 15.710938 -24.265625 14.25 -23.84375 12.875 -23 C 11.5 -22.164062 10.390625 -21.066406 9.546875 -19.703125 C 8.710938 -18.347656 8.296875 -16.878906 8.296875 -15.296875 C 8.296875 -13.734375 8.710938 -12.265625 9.546875 -10.890625 C 10.390625 -9.515625 11.5 -8.398438 12.875 -7.546875 C 14.25 -6.703125 15.710938 -6.28125 17.265625 -6.28125 C 18.847656 -6.28125 20.316406 -6.703125 21.671875 -7.546875 C 23.035156 -8.398438 24.132812 -9.515625 24.96875 -10.890625 C 25.8125 -12.265625 26.234375 -13.734375 26.234375 -15.296875 Z M 32.953125 -15.25 C 32.953125 -13.15625 32.535156 -11.15625 31.703125 -9.25 C 30.867188 -7.351562 29.722656 -5.679688 28.265625 -4.234375 C 26.816406 -2.785156 25.148438 -1.640625 23.265625 -0.796875 C 21.390625 0.0351562 19.390625 0.453125 17.265625 0.453125 C 15.171875 0.453125 13.175781 0.0351562 11.28125 -0.796875 C 9.382812 -1.640625 7.707031 -2.785156 6.25 -4.234375 C 4.800781 -5.679688 3.65625 -7.351562 2.8125 -9.25 C 1.976562 -11.15625 1.5625 -13.15625 1.5625 -15.25 C 1.5625 -17.375 1.976562 -19.375 2.8125 -21.25 C 3.65625 -23.132812 4.800781 -24.800781 6.25 -26.25 C 7.707031 -27.707031 9.382812 -28.851562 11.28125 -29.6875 C 13.175781 -30.519531 15.171875 -30.9375 17.265625 -30.9375 C 19.390625 -30.9375 21.390625 -30.519531 23.265625 -29.6875 C 25.148438 -28.851562 26.816406 -27.707031 28.265625 -26.25 C 29.722656 -24.800781 30.867188 -23.132812 31.703125 -21.25 C 32.535156 -19.375 32.953125 -17.375 32.953125 -15.25 Z M 32.953125 -15.25 "/></g></g></g><g fill="#ffffff" fill-opacity="1"><g transform="translate(609.6763, 40.121195)"><g><path d="M 15.65625 -24.390625 L 15.65625 0 L 8.921875 0 L 8.921875 -24.390625 L 0.21875 -24.390625 L 0.21875 -30.5 L 24.34375 -30.5 L 24.34375 -24.390625 Z M 15.65625 -24.390625 "/></g></g></g><g fill="#ffffff" fill-opacity="1"><g transform="translate(638.493005, 40.121195)"><g><path d="M 9.421875 0 L 2.6875 0 L 2.6875 -30.5 L 9.421875 -30.5 Z M 9.421875 0 "/></g></g></g><g fill="#ffffff" fill-opacity="1"><g transform="translate(654.852797, 40.121195)"><g><path d="M 24.703125 -10.359375 L 32.203125 -10.359375 C 31.515625 -8.265625 30.4375 -6.398438 28.96875 -4.765625 C 27.5 -3.140625 25.765625 -1.863281 23.765625 -0.9375 C 21.765625 -0.0078125 19.597656 0.453125 17.265625 0.453125 C 15.109375 0.453125 13.082031 0.0507812 11.1875 -0.75 C 9.289062 -1.5625 7.613281 -2.691406 6.15625 -4.140625 C 4.707031 -5.597656 3.578125 -7.273438 2.765625 -9.171875 C 1.960938 -11.066406 1.5625 -13.09375 1.5625 -15.25 C 1.5625 -17.394531 1.960938 -19.414062 2.765625 -21.3125 C 3.578125 -23.21875 4.707031 -24.894531 6.15625 -26.34375 C 7.613281 -27.789062 9.289062 -28.914062 11.1875 -29.71875 C 13.082031 -30.53125 15.109375 -30.9375 17.265625 -30.9375 C 19.597656 -30.9375 21.757812 -30.472656 23.75 -29.546875 C 25.738281 -28.617188 27.460938 -27.351562 28.921875 -25.75 C 30.390625 -24.15625 31.46875 -22.3125 32.15625 -20.21875 L 24.65625 -20.21875 C 24.03125 -21.59375 23.03125 -22.675781 21.65625 -23.46875 C 20.28125 -24.257812 18.816406 -24.65625 17.265625 -24.65625 C 15.617188 -24.65625 14.125 -24.226562 12.78125 -23.375 C 11.4375 -22.53125 10.367188 -21.394531 9.578125 -19.96875 C 8.785156 -18.550781 8.390625 -16.976562 8.390625 -15.25 C 8.390625 -13.507812 8.785156 -11.929688 9.578125 -10.515625 C 10.367188 -9.097656 11.4375 -7.960938 12.78125 -7.109375 C 14.125 -6.253906 15.617188 -5.828125 17.265625 -5.828125 C 18.847656 -5.828125 20.328125 -6.242188 21.703125 -7.078125 C 23.078125 -7.921875 24.078125 -9.015625 24.703125 -10.359375 Z M 24.703125 -10.359375 "/></g></g></g><g fill="#ffffff" fill-opacity="1"><g transform="translate(692.407244, 40.121195)"><g><path d="M 14.53125 -4.75 C 15.25 -4.75 16.023438 -4.859375 16.859375 -5.078125 C 17.691406 -5.304688 18.414062 -5.679688 19.03125 -6.203125 C 19.644531 -6.734375 19.953125 -7.445312 19.953125 -8.34375 C 19.953125 -9.175781 19.628906 -9.847656 18.984375 -10.359375 C 18.347656 -10.867188 17.503906 -11.285156 16.453125 -11.609375 C 15.410156 -11.941406 14.269531 -12.25 13.03125 -12.53125 C 11.789062 -12.8125 10.539062 -13.15625 9.28125 -13.5625 C 8.03125 -13.96875 6.878906 -14.5 5.828125 -15.15625 C 4.785156 -15.8125 3.941406 -16.660156 3.296875 -17.703125 C 2.648438 -18.753906 2.328125 -20.085938 2.328125 -21.703125 C 2.328125 -23.285156 2.65625 -24.648438 3.3125 -25.796875 C 3.976562 -26.953125 4.851562 -27.910156 5.9375 -28.671875 C 7.03125 -29.441406 8.253906 -30.007812 9.609375 -30.375 C 10.972656 -30.75 12.34375 -30.9375 13.71875 -30.9375 C 15.8125 -30.9375 17.769531 -30.609375 19.59375 -29.953125 C 21.414062 -29.296875 22.898438 -28.253906 24.046875 -26.828125 C 25.203125 -25.410156 25.8125 -23.539062 25.875 -21.21875 L 19.375 -21.21875 C 19.195312 -22.800781 18.644531 -23.894531 17.71875 -24.5 C 16.789062 -25.113281 15.488281 -25.421875 13.8125 -25.421875 C 13.1875 -25.421875 12.519531 -25.316406 11.8125 -25.109375 C 11.113281 -24.898438 10.515625 -24.5625 10.015625 -24.09375 C 9.523438 -23.632812 9.28125 -23.019531 9.28125 -22.25 C 9.28125 -21.46875 9.597656 -20.851562 10.234375 -20.40625 C 10.878906 -19.957031 11.722656 -19.582031 12.765625 -19.28125 C 13.816406 -18.976562 14.96875 -18.691406 16.21875 -18.421875 C 17.476562 -18.160156 18.726562 -17.832031 19.96875 -17.4375 C 21.21875 -17.050781 22.363281 -16.519531 23.40625 -15.84375 C 24.457031 -15.175781 25.300781 -14.300781 25.9375 -13.21875 C 26.582031 -12.144531 26.90625 -10.773438 26.90625 -9.109375 C 26.90625 -7.304688 26.546875 -5.773438 25.828125 -4.515625 C 25.109375 -3.265625 24.144531 -2.257812 22.9375 -1.5 C 21.726562 -0.738281 20.367188 -0.179688 18.859375 0.171875 C 17.347656 0.535156 15.816406 0.71875 14.265625 0.71875 C 12.015625 0.71875 9.910156 0.335938 7.953125 -0.421875 C 5.992188 -1.179688 4.410156 -2.351562 3.203125 -3.9375 C 1.992188 -5.53125 1.375 -7.566406 1.34375 -10.046875 L 8.15625 -10.046875 C 8.25 -8.222656 8.921875 -6.882812 10.171875 -6.03125 C 11.429688 -5.175781 12.882812 -4.75 14.53125 -4.75 Z M 14.53125 -4.75 "/></g></g></g><g fill="#ffffff" fill-opacity="1"><g transform="translate(724.898266, 40.121195)"><g/></g></g><g fill="#ffffff" fill-opacity="1"><g transform="translate(740.361906, 40.121195)"><g><path d="M 24.703125 -10.359375 L 32.203125 -10.359375 C 31.515625 -8.265625 30.4375 -6.398438 28.96875 -4.765625 C 27.5 -3.140625 25.765625 -1.863281 23.765625 -0.9375 C 21.765625 -0.0078125 19.597656 0.453125 17.265625 0.453125 C 15.109375 0.453125 13.082031 0.0507812 11.1875 -0.75 C 9.289062 -1.5625 7.613281 -2.691406 6.15625 -4.140625 C 4.707031 -5.597656 3.578125 -7.273438 2.765625 -9.171875 C 1.960938 -11.066406 1.5625 -13.09375 1.5625 -15.25 C 1.5625 -17.394531 1.960938 -19.414062 2.765625 -21.3125 C 3.578125 -23.21875 4.707031 -24.894531 6.15625 -26.34375 C 7.613281 -27.789062 9.289062 -28.914062 11.1875 -29.71875 C 13.082031 -30.53125 15.109375 -30.9375 17.265625 -30.9375 C 19.597656 -30.9375 21.757812 -30.472656 23.75 -29.546875 C 25.738281 -28.617188 27.460938 -27.351562 28.921875 -25.75 C 30.390625 -24.15625 31.46875 -22.3125 32.15625 -20.21875 L 24.65625 -20.21875 C 24.03125 -21.59375 23.03125 -22.675781 21.65625 -23.46875 C 20.28125 -24.257812 18.816406 -24.65625 17.265625 -24.65625 C 15.617188 -24.65625 14.125 -24.226562 12.78125 -23.375 C 11.4375 -22.53125 10.367188 -21.394531 9.578125 -19.96875 C 8.785156 -18.550781 8.390625 -16.976562 8.390625 -15.25 C 8.390625 -13.507812 8.785156 -11.929688 9.578125 -10.515625 C 10.367188 -9.097656 11.4375 -7.960938 12.78125 -7.109375 C 14.125 -6.253906 15.617188 -5.828125 17.265625 -5.828125 C 18.847656 -5.828125 20.328125 -6.242188 21.703125 -7.078125 C 23.078125 -7.921875 24.078125 -9.015625 24.703125 -10.359375 Z M 24.703125 -10.359375 "/></g></g></g><g fill="#ffffff" fill-opacity="1"><g transform="translate(777.916353, 40.121195)"><g><path d="M 26.234375 -15.296875 C 26.234375 -16.878906 25.8125 -18.347656 24.96875 -19.703125 C 24.132812 -21.066406 23.035156 -22.164062 21.671875 -23 C 20.316406 -23.84375 18.847656 -24.265625 17.265625 -24.265625 C 15.710938 -24.265625 14.25 -23.84375 12.875 -23 C 11.5 -22.164062 10.390625 -21.066406 9.546875 -19.703125 C 8.710938 -18.347656 8.296875 -16.878906 8.296875 -15.296875 C 8.296875 -13.734375 8.710938 -12.265625 9.546875 -10.890625 C 10.390625 -9.515625 11.5 -8.398438 12.875 -7.546875 C 14.25 -6.703125 15.710938 -6.28125 17.265625 -6.28125 C 18.847656 -6.28125 20.316406 -6.703125 21.671875 -7.546875 C 23.035156 -8.398438 24.132812 -9.515625 24.96875 -10.890625 C 25.8125 -12.265625 26.234375 -13.734375 26.234375 -15.296875 Z M 32.953125 -15.25 C 32.953125 -13.15625 32.535156 -11.15625 31.703125 -9.25 C 30.867188 -7.351562 29.722656 -5.679688 28.265625 -4.234375 C 26.816406 -2.785156 25.148438 -1.640625 23.265625 -0.796875 C 21.390625 0.0351562 19.390625 0.453125 17.265625 0.453125 C 15.171875 0.453125 13.175781 0.0351562 11.28125 -0.796875 C 9.382812 -1.640625 7.707031 -2.785156 6.25 -4.234375 C 4.800781 -5.679688 3.65625 -7.351562 2.8125 -9.25 C 1.976562 -11.15625 1.5625 -13.15625 1.5625 -15.25 C 1.5625 -17.375 1.976562 -19.375 2.8125 -21.25 C 3.65625 -23.132812 4.800781 -24.800781 6.25 -26.25 C 7.707031 -27.707031 9.382812 -28.851562 11.28125 -29.6875 C 13.175781 -30.519531 15.171875 -30.9375 17.265625 -30.9375 C 19.390625 -30.9375 21.390625 -30.519531 23.265625 -29.6875 C 25.148438 -28.851562 26.816406 -27.707031 28.265625 -26.25 C 29.722656 -24.800781 30.867188 -23.132812 31.703125 -21.25 C 32.535156 -19.375 32.953125 -17.375 32.953125 -15.25 Z M 32.953125 -15.25 "/></g></g></g><g fill="#ffffff" fill-opacity="1"><g transform="translate(816.680638, 40.121195)"><g><path d="M 40.71875 0 L 33.3125 0 L 29.734375 -21.03125 L 23.765625 0 L 17.171875 0 L 11.203125 -21.03125 L 7.625 0 L 0.21875 0 L 6.140625 -30.5 L 14.125 -30.5 L 20.5 -9.109375 L 26.8125 -30.5 L 34.796875 -30.5 Z M 40.71875 0 "/></g></g></g><g fill="#ffffff" fill-opacity="1"><g transform="translate(861.852599, 40.121195)"><g><path d="M 9.421875 -10.890625 L 9.421875 0 L 2.6875 0 L 2.6875 -30.5 L 14.125 -30.5 C 15.769531 -30.5 17.300781 -30.085938 18.71875 -29.265625 C 20.144531 -28.441406 21.289062 -27.296875 22.15625 -25.828125 C 23.019531 -24.359375 23.453125 -22.65625 23.453125 -20.71875 C 23.453125 -18.65625 23.019531 -16.890625 22.15625 -15.421875 C 21.289062 -13.960938 20.144531 -12.84375 18.71875 -12.0625 C 17.300781 -11.28125 15.769531 -10.890625 14.125 -10.890625 Z M 13 -25.203125 L 9.421875 -25.203125 L 9.421875 -16.1875 L 13 -16.1875 C 13.988281 -16.1875 14.910156 -16.570312 15.765625 -17.34375 C 16.617188 -18.125 17.046875 -19.25 17.046875 -20.71875 C 17.046875 -22.125 16.617188 -23.222656 15.765625 -24.015625 C 14.910156 -24.804688 13.988281 -25.203125 13 -25.203125 Z M 13 -25.203125 "/></g></g></g><g fill="#ffffff" fill-opacity="1"><g transform="translate(890.221204, 40.121195)"><g><path d="M 20.359375 -6.09375 L 20.359375 0 L 2.6875 0 L 2.6875 -30.5 L 20.359375 -30.5 L 20.359375 -24.390625 L 9.421875 -24.390625 L 9.421875 -18.34375 L 19.90625 -18.34375 L 19.90625 -12.25 L 9.421875 -12.25 L 9.421875 -6.09375 Z M 20.359375 -6.09375 "/></g></g></g><g fill="#ffffff" fill-opacity="1"><g transform="translate(917.514437, 40.121195)"><g><path d="M 15.65625 -24.390625 L 15.65625 0 L 8.921875 0 L 8.921875 -24.390625 L 0.21875 -24.390625 L 0.21875 -30.5 L 24.34375 -30.5 L 24.34375 -24.390625 Z M 15.65625 -24.390625 "/></g></g></g><g fill="#ffffff" fill-opacity="1"><g transform="translate(946.331042, 40.121195)"><g><path d="M 9.421875 0 L 2.6875 0 L 2.6875 -30.5 L 9.421875 -30.5 Z M 9.421875 0 "/></g></g></g><g fill="#ffffff" fill-opacity="1"><g transform="translate(962.690934, 40.121195)"><g><path d="M 15.65625 -24.390625 L 15.65625 0 L 8.921875 0 L 8.921875 -24.390625 L 0.21875 -24.390625 L 0.21875 -30.5 L 24.34375 -30.5 L 24.34375 -24.390625 Z M 15.65625 -24.390625 "/></g></g></g><g fill="#ffffff" fill-opacity="1"><g transform="translate(991.507539, 40.121195)"><g><path d="M 9.421875 0 L 2.6875 0 L 2.6875 -30.5 L 9.421875 -30.5 Z M 9.421875 0 "/></g></g></g><g fill="#ffffff" fill-opacity="1"><g transform="translate(1007.867431, 40.121195)"><g><path d="M 26.234375 -15.296875 C 26.234375 -16.878906 25.8125 -18.347656 24.96875 -19.703125 C 24.132812 -21.066406 23.035156 -22.164062 21.671875 -23 C 20.316406 -23.84375 18.847656 -24.265625 17.265625 -24.265625 C 15.710938 -24.265625 14.25 -23.84375 12.875 -23 C 11.5 -22.164062 10.390625 -21.066406 9.546875 -19.703125 C 8.710938 -18.347656 8.296875 -16.878906 8.296875 -15.296875 C 8.296875 -13.734375 8.710938 -12.265625 9.546875 -10.890625 C 10.390625 -9.515625 11.5 -8.398438 12.875 -7.546875 C 14.25 -6.703125 15.710938 -6.28125 17.265625 -6.28125 C 18.847656 -6.28125 20.316406 -6.703125 21.671875 -7.546875 C 23.035156 -8.398438 24.132812 -9.515625 24.96875 -10.890625 C 25.8125 -12.265625 26.234375 -13.734375 26.234375 -15.296875 Z M 32.953125 -15.25 C 32.953125 -13.15625 32.535156 -11.15625 31.703125 -9.25 C 30.867188 -7.351562 29.722656 -5.679688 28.265625 -4.234375 C 26.816406 -2.785156 25.148438 -1.640625 23.265625 -0.796875 C 21.390625 0.0351562 19.390625 0.453125 17.265625 0.453125 C 15.171875 0.453125 13.175781 0.0351562 11.28125 -0.796875 C 9.382812 -1.640625 7.707031 -2.785156 6.25 -4.234375 C 4.800781 -5.679688 3.65625 -7.351562 2.8125 -9.25 C 1.976562 -11.15625 1.5625 -13.15625 1.5625 -15.25 C 1.5625 -17.375 1.976562 -19.375 2.8125 -21.25 C 3.65625 -23.132812 4.800781 -24.800781 6.25 -26.25 C 7.707031 -27.707031 9.382812 -28.851562 11.28125 -29.6875 C 13.175781 -30.519531 15.171875 -30.9375 17.265625 -30.9375 C 19.390625 -30.9375 21.390625 -30.519531 23.265625 -29.6875 C 25.148438 -28.851562 26.816406 -27.707031 28.265625 -26.25 C 29.722656 -24.800781 30.867188 -23.132812 31.703125 -21.25 C 32.535156 -19.375 32.953125 -17.375 32.953125 -15.25 Z M 32.953125 -15.25 "/></g></g></g><g fill="#ffffff" fill-opacity="1"><g transform="translate(1046.631666, 40.121195)"><g><path d="M 26.640625 0 L 19.90625 0 L 9.421875 -19.015625 L 9.421875 0 L 2.6875 0 L 2.6875 -30.5 L 9.421875 -30.5 L 19.90625 -11.484375 L 19.90625 -30.5 L 26.640625 -30.5 Z M 26.640625 0 "/></g></g></g></g></g><g transform="matrix(1, 0, 0, 1, 60, 177)"><g clip-path="url(#0ae158b184)"><g fill="#ffffff" fill-opacity="1"><g transform="translate(1.659628, 23.259943)"><g><path d="M 8.75 -13.65625 L 8.75 0 L 5 0 L 5 -13.65625 L 0.125 -13.65625 L 0.125 -17.0625 L 13.625 -17.0625 L 13.625 -13.65625 Z M 8.75 -13.65625 "/></g></g></g><g fill="#ffffff" fill-opacity="1"><g transform="translate(15.40877, 23.259943)"><g><path d="M 10.890625 -17.0625 L 14.90625 -17.0625 L 14.90625 0 L 10.890625 0 L 10.890625 -6.84375 L 5.265625 -6.84375 L 5.265625 0 L 1.5 0 L 1.5 -17.0625 L 5.265625 -17.0625 L 5.265625 -10.265625 L 10.890625 -10.265625 Z M 10.890625 -17.0625 "/></g></g></g></g></g></g></g></svg>